<?xml version="1.0" encoding="UTF-8"?>
<svg width="426px" height="160px" viewBox="0 0 426 160" version="1.1" xmlns="http://www.w3.org/2000/svg" xmlns:xlink="http://www.w3.org/1999/xlink">
    <title>Logo</title>
    <g id="Logo" stroke="none" stroke-width="1" fill="none" fill-rule="evenodd">
        <g transform="translate(0.000000, 0.699219)" fill="#103243">
            <text id="Service-Corporation" font-family="Cinzel-SemiBold, Cinzel" font-size="18" font-weight="500" letter-spacing="2">
                <tspan x="90" y="152.300781">Service Corporation</tspan>
            </text>
            <text id="Summit-Anesthesia" font-family="Cinzel-SemiBold, Cinzel" font-size="42" font-weight="500">
                <tspan x="0" y="129.300781">Summit Anesthesia</tspan>
            </text>
            <path d="M207.480469,0 L242,33.3007812 L264.621094,23.25 L304.040283,59.5180664 L319,64.3007812 L337,79.3007812 L337,82.3007812 L321,71.3007812 L327,79.3007812 L322,78.3007812 L330,87.3007812 L290,66.3007812 L300,68.3007812 L277,49.3007812 L281,49.3007812 L265,33.3007812 L271,48.3007812 L265,48.3007812 L282,65.3007812 L276,64.3007812 C277.432793,65.4435352 292.410011,76.4170399 294.09375,77.75 C300.512745,82.8870407 306.299893,89.3781101 312,95.3007812 C299.457329,89.4288514 292.457329,86.0955181 291,85.3007812 C295.666667,91.9674479 298,95.3007812 298,95.3007812 L271,80.3007812 C273,84.9674479 274,87.3007812 274,87.3007812 L257,78.3007812 L263,91.3007812 C258.089928,87.1492587 251.423261,79.8159253 243,69.3007812 L252,68.3007812 L233,55.3007812 L219,36.3007812 L238,45.3007812 L212,22.3007812 L219,24.3007812 L209,11.3007812 C203,16.6341146 200,19.3007812 200,19.3007812 L204,18.3007812 C202.35,20.9407812 200.7,23.5807812 199,26.3007812 C199.5225,25.9570312 201.855833,24.6236979 206,22.3007812 L201,33.3007812 L188,45.3007812 L192,35.3007812 L183,39.3007812 L170,52.3007812 L179,50.3007812 L168,64.3007812 L147,82.3007812 L163,61.3007812 L115,95.3007812 L133,69.3007812 L154,55.3007812 C162.665256,44.5328656 167.331923,38.866199 168,38.3007812 L163,32.3007812 L152,43.3007812 L160,42.3007812 L152,53.3007812 L137,64.3007812 L135,60.3007812 L97,95.3007812 L107,77.3007812 L101,80.3007812 L105,71.3007812 L92,82.3007812 L92,79.3007812 L105,66.3007812 L118,64.3007812 L161.527344,23.3828125 L170.621094,27.7539062 L207.480469,0 Z" id="Mountain" fill-rule="nonzero"></path>
            <polygon id="EKG-Right" fill-rule="nonzero" transform="translate(381.500000, 78.721368) scale(-1, -1) translate(-381.500000, -78.721368) " points="402 75.141955 408.340101 62.3007812 415 84.141955 417 75.141955 426 75.141955 426 78.141955 419 78.141955 415.199376 95.141955 408 70.141955 404 78.141955 376 78.141955 337 78.141955 337 75.141955"></polygon>
            <polygon id="EKG-LEFT" fill-rule="nonzero" transform="translate(47.500000, 78.721368) scale(1, -1) translate(-47.500000, -78.721368) " points="68 75.141955 74.3401009 62.3007812 81 84.141955 83 75.141955 92 75.141955 92 78.141955 85 78.141955 81.1993758 95.141955 74 70.141955 70 78.141955 42 78.141955 3 78.141955 3 75.141955"></polygon>
        </g>
    </g>
</svg>