<svg xmlns="http://www.w3.org/2000/svg" width="424" height="154"><g fill="none" fill-rule="evenodd"><g fill="#103243" fill-rule="nonzero"><path d="M74.824 140.148c.228 0 .498.012.81.036.312.024.627.057.945.099.318.042.603.084.855.126.252.042.426.087.522.135l-.144 2.286h-.18c0-.612-.219-1.098-.657-1.458-.438-.36-1.005-.54-1.701-.54-.696 0-1.251.18-1.665.54-.414.36-.627.798-.639 1.314-.024.3.063.591.261.873.198.282.465.543.801.783l3.474 2.574c.492.324.852.717 1.08 1.179.228.462.33.981.306 1.557-.036 1.104-.435 1.98-1.197 2.628-.762.648-1.797.972-3.105.972-.444 0-.897-.039-1.359-.117-.462-.078-.885-.198-1.269-.36-.384-.162-.69-.357-.918-.585-.072-.24-.102-.531-.09-.873.012-.342.06-.696.144-1.062.084-.366.186-.675.306-.927h.162c-.048.612.054 1.167.306 1.665s.621.888 1.107 1.17c.486.282 1.059.417 1.719.405.744-.024 1.341-.234 1.791-.63.45-.396.675-.906.675-1.53 0-.36-.096-.687-.288-.981-.192-.294-.492-.561-.9-.801l-3.258-2.466c-.552-.36-.945-.795-1.179-1.305-.234-.51-.333-1.041-.297-1.593.036-.576.198-1.101.486-1.575s.693-.849 1.215-1.125c.522-.276 1.149-.414 1.881-.414Zm3.15.18-.018.378h-1.872v-.378h1.89ZM87.842 142.2V153h-2.106v-10.8h2.106Zm4.428 10.134.27.666h-4.734v-.666h4.464Zm-.702-5.04v.666h-3.762v-.666h3.762Zm.828-5.094v.666h-4.59v-.666h4.59Zm.972 7.74-.792 3.06h-2.988l.576-.666c.552 0 1.023-.099 1.413-.297.39-.198.717-.477.981-.837s.48-.78.648-1.26h.162Zm-1.8-2.016v1.404h-.18v-.162c0-.336-.102-.618-.306-.846-.204-.228-.492-.348-.864-.36v-.036h1.35Zm0-1.98v1.386h-1.35v-.036c.372 0 .66-.114.864-.342.204-.228.306-.51.306-.846v-.162h.18Zm.828-3.132v1.692h-.198v-.198c0-.432-.12-.78-.36-1.044s-.582-.396-1.026-.396v-.054h1.584Zm0-.9v.468l-1.944-.18c.348 0 .72-.033 1.116-.099.396-.066.672-.129.828-.189Zm-6.624 9.954.126 1.134h-1.404v-.18h.234c.276 0 .51-.093.702-.279.192-.186.294-.411.306-.675h.036Zm0-8.532h-.036c-.012-.276-.114-.504-.306-.684-.192-.18-.426-.27-.702-.27h-.234v-.18h1.404l-.126 1.134ZM101.652 142.2h2.052c.528 0 1.023.054 1.485.162.462.108.87.279 1.224.513.354.234.63.537.828.909.198.372.297.822.297 1.35 0 .444-.096.879-.288 1.305-.192.426-.48.786-.864 1.08-.384.294-.864.477-1.44.549.3.096.603.3.909.612.306.312.543.606.711.882.036.06.123.195.261.405.138.21.309.456.513.738.204.282.414.561.63.837.24.312.456.561.648.747.192.186.393.321.603.405.21.084.447.126.711.126v.18h-1.188c-.648 0-1.194-.06-1.638-.18-.444-.12-.819-.306-1.125-.558-.306-.252-.585-.564-.837-.936-.084-.132-.195-.312-.333-.54-.138-.228-.279-.465-.423-.711-.144-.246-.276-.48-.396-.702-.12-.222-.198-.393-.234-.513-.18-.36-.39-.636-.63-.828-.24-.192-.474-.294-.702-.306v-.162c.012 0 .078.003.198.009.12.006.27.003.45-.009.276-.012.555-.054.837-.126.282-.072.537-.228.765-.468.228-.24.402-.612.522-1.116.036-.096.063-.216.081-.36.018-.144.021-.306.009-.486-.012-.408-.084-.747-.216-1.017-.132-.27-.3-.483-.504-.639-.204-.156-.426-.27-.666-.342-.24-.072-.468-.114-.684-.126-.348-.012-.654-.015-.918-.009s-.426.009-.486.009c-.012-.012-.03-.072-.054-.18s-.048-.219-.072-.333l-.036-.171Zm.18 0V153h-2.124v-10.8h2.124Zm-2.07 9.666.126 1.134H98.52v-.18H98.736c.276 0 .507-.093.693-.279.186-.186.285-.411.297-.675h.036Zm0-8.532h-.036c-.012-.276-.111-.504-.297-.684-.186-.18-.411-.27-.675-.27h-.234v-.18h1.368l-.126 1.134Zm2.034 8.532h.036c.012.276.12.504.324.684.204.18.432.27.684.27h.198l.018.18h-1.386l.126-1.134ZM118.576 153.234l-5.184-10.926h2.52l3.456 8.19-.792 2.736Zm0 0-.09-1.8 3.978-9.18h1.26l-4.194 8.91c-.024.036-.075.141-.153.315-.078.174-.165.372-.261.594-.096.222-.18.438-.252.648-.072.21-.12.381-.144.513h-.144Zm3.366-9.792c.132-.348.117-.612-.045-.792-.162-.18-.351-.27-.567-.27h-.126v-.18h3.528v.18h-.144c-.24 0-.492.081-.756.243-.264.162-.486.435-.666.819h-1.224Zm-5.562 0h-2.448c-.18-.384-.399-.657-.657-.819-.258-.162-.507-.243-.747-.243h-.144v-.18h4.752v.18h-.144c-.192 0-.372.09-.54.27-.168.18-.192.444-.072.792ZM132.62 142.2V153h-2.106v-10.8h2.106Zm-2.052 9.666V153h-1.386v-.18h.234c.3 0 .558-.093.774-.279.216-.186.324-.411.324-.675h.054Zm1.998 0h.054c.012.264.123.489.333.675.21.186.471.279.783.279H133.952v.18h-1.386v-1.134Zm0-8.532V142.2h1.386l-.018.18h-.198c-.312 0-.573.09-.783.27-.21.18-.321.408-.333.684h-.054Zm-1.998 0h-.054c0-.276-.108-.504-.324-.684-.216-.18-.474-.27-.774-.27H129.182v-.18h1.386v1.134ZM150.102 148.482l.072 2.628c-.264.42-.615.789-1.053 1.107-.438.318-.96.567-1.566.747-.606.18-1.287.27-2.043.27-1.296-.012-2.418-.24-3.366-.684-.948-.444-1.677-1.086-2.187-1.926-.51-.84-.765-1.848-.765-3.024s.252-2.184.756-3.024c.504-.84 1.23-1.485 2.178-1.935.948-.45 2.076-.675 3.384-.675.792 0 1.548.084 2.268.252.72.168 1.326.39 1.818.666l.144 2.736h-.144c-.288-1.104-.783-1.881-1.485-2.331-.702-.45-1.533-.675-2.493-.675-.9 0-1.659.204-2.277.612-.618.408-1.086.984-1.404 1.728-.318.744-.477 1.614-.477 2.61 0 1.008.162 1.887.486 2.637.324.75.789 1.329 1.395 1.737.606.408 1.329.624 2.169.648.864 0 1.605-.138 2.223-.414.618-.276 1.11-.717 1.476-1.323.366-.606.609-1.395.729-2.367h.162ZM158.998 142.2V153h-2.106v-10.8h2.106Zm4.428 10.134.27.666h-4.734v-.666h4.464Zm-.702-5.04v.666h-3.762v-.666h3.762Zm.828-5.094v.666h-4.59v-.666h4.59Zm.972 7.74-.792 3.06h-2.988l.576-.666c.552 0 1.023-.099 1.413-.297.39-.198.717-.477.981-.837s.48-.78.648-1.26h.162Zm-1.8-2.016v1.404h-.18v-.162c0-.336-.102-.618-.306-.846-.204-.228-.492-.348-.864-.36v-.036h1.35Zm0-1.98v1.386h-1.35v-.036c.372 0 .66-.114.864-.342.204-.228.306-.51.306-.846v-.162h.18Zm.828-3.132v1.692h-.198v-.198c0-.432-.12-.78-.36-1.044s-.582-.396-1.026-.396v-.054h1.584Zm0-.9v.468l-1.944-.18c.348 0 .72-.033 1.116-.099.396-.066.672-.129.828-.189Zm-6.624 9.954.126 1.134h-1.404v-.18h.234c.276 0 .51-.093.702-.279.192-.186.294-.411.306-.675h.036Zm0-8.532h-.036c-.012-.276-.114-.504-.306-.684-.192-.18-.426-.27-.702-.27h-.234v-.18h1.404l-.126 1.134ZM190.38 147.744l.036 3.006c-.276.468-.642.891-1.098 1.269-.456.378-1.011.678-1.665.9-.654.222-1.419.333-2.295.333-1.392-.012-2.616-.282-3.672-.81s-1.875-1.281-2.457-2.259c-.582-.978-.873-2.145-.873-3.501 0-1.332.288-2.487.864-3.465.576-.978 1.392-1.734 2.448-2.268 1.056-.534 2.31-.801 3.762-.801.936 0 1.776.105 2.52.315.744.21 1.374.459 1.89.747l.144 2.898h-.162c-.3-1.14-.831-1.971-1.593-2.493-.762-.522-1.653-.783-2.673-.783-.984 0-1.833.237-2.547.711-.714.474-1.266 1.146-1.656 2.016-.39.87-.585 1.899-.585 3.087 0 1.188.189 2.223.567 3.105.378.882.912 1.566 1.602 2.052.69.486 1.497.741 2.421.765.9 0 1.683-.153 2.349-.459.666-.306 1.212-.813 1.638-1.521.426-.708.723-1.656.891-2.844h.144ZM202.354 141.966c.912 0 1.752.132 2.52.396s1.434.642 1.998 1.134c.564.492.999 1.083 1.305 1.773.306.69.459 1.467.459 2.331 0 .864-.153 1.641-.459 2.331-.306.69-.741 1.281-1.305 1.773s-1.23.87-1.998 1.134c-.768.264-1.608.396-2.52.396-.912 0-1.752-.132-2.52-.396s-1.431-.642-1.989-1.134c-.558-.492-.99-1.083-1.296-1.773-.306-.69-.459-1.467-.459-2.331 0-.864.153-1.641.459-2.331.306-.69.738-1.281 1.296-1.773s1.221-.87 1.989-1.134c.768-.264 1.608-.396 2.52-.396Zm0 10.62c.78 0 1.47-.204 2.07-.612.6-.408 1.071-.987 1.413-1.737.342-.75.513-1.629.513-2.637 0-1.02-.171-1.902-.513-2.646-.342-.744-.813-1.32-1.413-1.728-.6-.408-1.29-.612-2.07-.612-.78 0-1.47.204-2.07.612-.6.408-1.068.984-1.404 1.728-.336.744-.504 1.626-.504 2.646 0 1.008.168 1.887.504 2.637.336.75.804 1.329 1.404 1.737.6.408 1.29.612 2.07.612ZM217.064 142.2h2.052c.528 0 1.023.054 1.485.162.462.108.87.279 1.224.513.354.234.63.537.828.909.198.372.297.822.297 1.35 0 .444-.096.879-.288 1.305-.192.426-.48.786-.864 1.08-.384.294-.864.477-1.44.549.3.096.603.3.909.612.306.312.543.606.711.882.036.06.123.195.261.405.138.21.309.456.513.738.204.282.414.561.63.837.24.312.456.561.648.747.192.186.393.321.603.405.21.084.447.126.711.126v.18h-1.188c-.648 0-1.194-.06-1.638-.18-.444-.12-.819-.306-1.125-.558-.306-.252-.585-.564-.837-.936-.084-.132-.195-.312-.333-.54-.138-.228-.279-.465-.423-.711-.144-.246-.276-.48-.396-.702-.12-.222-.198-.393-.234-.513-.18-.36-.39-.636-.63-.828-.24-.192-.474-.294-.702-.306v-.162c.012 0 .078.003.198.009.12.006.27.003.45-.009.276-.012.555-.054.837-.126.282-.072.537-.228.765-.468.228-.24.402-.612.522-1.116.036-.096.063-.216.081-.36.018-.144.021-.306.009-.486-.012-.408-.084-.747-.216-1.017-.132-.27-.3-.483-.504-.639-.204-.156-.426-.27-.666-.342-.24-.072-.468-.114-.684-.126-.348-.012-.654-.015-.918-.009s-.426.009-.486.009c-.012-.012-.03-.072-.054-.18s-.048-.219-.072-.333l-.036-.171Zm.18 0V153h-2.124v-10.8h2.124Zm-2.07 9.666L215.3 153h-1.368v-.18H214.148c.276 0 .507-.093.693-.279.186-.186.285-.411.297-.675h.036Zm0-8.532h-.036c-.012-.276-.111-.504-.297-.684-.186-.18-.411-.27-.675-.27h-.234v-.18h1.368l-.126 1.134Zm2.034 8.532h.036c.012.276.12.504.324.684.204.18.432.27.684.27h.198l.018.18h-1.386l.126-1.134ZM232.638 142.2h1.836c.912 0 1.674.129 2.286.387.612.258 1.071.615 1.377 1.071.306.456.465.972.477 1.548.024.708-.117 1.317-.423 1.827s-.714.903-1.224 1.179-1.074.402-1.692.378c-.618-.024-1.221-.216-1.809-.576v-.162l.216.018c.144.012.333 0 .567-.036.234-.036.48-.111.738-.225s.501-.297.729-.549c.228-.252.408-.594.54-1.026.036-.156.063-.321.081-.495.018-.174.027-.333.027-.477-.012-.684-.228-1.224-.648-1.62-.42-.396-1.002-.594-1.746-.594h-1.152l-.045-.162-.09-.324-.045-.162Zm.216 0V153h-2.106v-10.8h2.106Zm-2.07 9.666.126 1.134h-1.386v-.18h.216c.276 0 .51-.093.702-.279.192-.186.294-.411.306-.675h.036Zm0-8.532h-.036c-.012-.276-.114-.504-.306-.684-.192-.18-.426-.27-.702-.27h-.234v-.18h1.404l-.126 1.134Zm2.016 8.532h.036c.012.264.111.489.297.675.186.186.423.279.711.279h.234l-.018.18h-1.386l.126-1.134ZM250.3 141.966c.912 0 1.752.132 2.52.396s1.434.642 1.998 1.134c.564.492.999 1.083 1.305 1.773.306.69.459 1.467.459 2.331 0 .864-.153 1.641-.459 2.331-.306.69-.741 1.281-1.305 1.773s-1.23.87-1.998 1.134c-.768.264-1.608.396-2.52.396-.912 0-1.752-.132-2.52-.396s-1.431-.642-1.989-1.134c-.558-.492-.99-1.083-1.296-1.773-.306-.69-.459-1.467-.459-2.331 0-.864.153-1.641.459-2.331.306-.69.738-1.281 1.296-1.773s1.221-.87 1.989-1.134c.768-.264 1.608-.396 2.52-.396Zm0 10.62c.78 0 1.47-.204 2.07-.612.6-.408 1.071-.987 1.413-1.737.342-.75.513-1.629.513-2.637 0-1.02-.171-1.902-.513-2.646-.342-.744-.813-1.32-1.413-1.728-.6-.408-1.29-.612-2.07-.612-.78 0-1.47.204-2.07.612-.6.408-1.068.984-1.404 1.728-.336.744-.504 1.626-.504 2.646 0 1.008.168 1.887.504 2.637.336.75.804 1.329 1.404 1.737.6.408 1.29.612 2.07.612ZM265.01 142.2h2.052c.528 0 1.023.054 1.485.162.462.108.87.279 1.224.513.354.234.63.537.828.909.198.372.297.822.297 1.35 0 .444-.096.879-.288 1.305-.192.426-.48.786-.864 1.08-.384.294-.864.477-1.44.549.3.096.603.3.909.612.306.312.543.606.711.882.036.06.123.195.261.405.138.21.309.456.513.738.204.282.414.561.63.837.24.312.456.561.648.747.192.186.393.321.603.405.21.084.447.126.711.126v.18h-1.188c-.648 0-1.194-.06-1.638-.18-.444-.12-.819-.306-1.125-.558-.306-.252-.585-.564-.837-.936-.084-.132-.195-.312-.333-.54-.138-.228-.279-.465-.423-.711-.144-.246-.276-.48-.396-.702-.12-.222-.198-.393-.234-.513-.18-.36-.39-.636-.63-.828-.24-.192-.474-.294-.702-.306v-.162c.012 0 .078.003.198.009.12.006.27.003.45-.009.276-.012.555-.054.837-.126.282-.072.537-.228.765-.468.228-.24.402-.612.522-1.116.036-.096.063-.216.081-.36.018-.144.021-.306.009-.486-.012-.408-.084-.747-.216-1.017-.132-.27-.3-.483-.504-.639-.204-.156-.426-.27-.666-.342-.24-.072-.468-.114-.684-.126-.348-.012-.654-.015-.918-.009s-.426.009-.486.009c-.012-.012-.03-.072-.054-.18s-.048-.219-.072-.333l-.036-.171Zm.18 0V153h-2.124v-10.8h2.124Zm-2.07 9.666.126 1.134h-1.368v-.18H262.094c.276 0 .507-.093.693-.279.186-.186.285-.411.297-.675h.036Zm0-8.532h-.036c-.012-.276-.111-.504-.297-.684-.186-.18-.411-.27-.675-.27h-.234v-.18h1.368l-.126 1.134Zm2.034 8.532h.036c.012.276.12.504.324.684.204.18.432.27.684.27h.198l.018.18h-1.386l.126-1.134ZM282.78 141.786l5.202 11.106h-2.502l-3.51-8.37.81-2.736Zm-3.42 9.99c-.132.336-.114.594.054.774.168.18.354.27.558.27h.144v.18h-3.546v-.18h.144c.252 0 .51-.081.774-.243.264-.162.48-.429.648-.801h1.224Zm3.42-9.99.054 1.854-3.978 9.306h-1.26l4.23-9.09c.012-.048.057-.156.135-.324.078-.168.165-.366.261-.594.096-.228.183-.447.261-.657.078-.21.123-.375.135-.495h.162Zm1.746 7.47v.648h-4.662v-.648h4.662Zm.486 2.52h2.448c.168.372.384.639.648.801.264.162.516.243.756.243h.144v.18h-4.752v-.18h.144c.204 0 .39-.09.558-.27.168-.18.186-.438.054-.774ZM297.922 142.254V153h-2.142v-10.746h2.142Zm4.05-.072v.666H291.73v-.666h10.242Zm0 .612v1.692h-.198v-.216c.012-.42-.105-.759-.351-1.017-.246-.258-.591-.393-1.035-.405v-.054h1.584Zm0-.9v.468l-1.944-.18c.24 0 .492-.015.756-.045s.507-.069.729-.117c.222-.048.375-.09.459-.126Zm-6.156 9.972V153h-1.242v-.18h.198c.276 0 .51-.093.702-.279.192-.186.294-.411.306-.675h.036Zm2.034 0h.072c0 .264.099.489.297.675.198.186.435.279.711.279h.18v.18h-1.26v-1.134Zm-4.536-9.072v.054c-.444.012-.789.147-1.035.405-.246.258-.369.597-.369 1.017v.216h-.18v-1.692h1.584Zm-1.584-.9c.096.036.252.078.468.126.216.048.456.087.72.117.264.03.51.045.738.045l-1.926.18v-.468ZM310.454 142.2V153h-2.106v-10.8h2.106Zm-2.052 9.666V153h-1.386v-.18h.234c.3 0 .558-.093.774-.279.216-.186.324-.411.324-.675h.054Zm1.998 0h.054c.012.264.123.489.333.675.21.186.471.279.783.279H311.786v.18H310.4v-1.134Zm0-8.532V142.2h1.386l-.018.18h-.198c-.312 0-.573.09-.783.27-.21.18-.321.408-.333.684h-.054Zm-1.998 0h-.054c0-.276-.108-.504-.324-.684-.216-.18-.474-.27-.774-.27H307.016v-.18h1.386v1.134ZM323.31 141.966c.912 0 1.752.132 2.52.396s1.434.642 1.998 1.134c.564.492.999 1.083 1.305 1.773.306.69.459 1.467.459 2.331 0 .864-.153 1.641-.459 2.331-.306.69-.741 1.281-1.305 1.773s-1.23.87-1.998 1.134c-.768.264-1.608.396-2.52.396-.912 0-1.752-.132-2.52-.396s-1.431-.642-1.989-1.134c-.558-.492-.99-1.083-1.296-1.773-.306-.69-.459-1.467-.459-2.331 0-.864.153-1.641.459-2.331.306-.69.738-1.281 1.296-1.773s1.221-.87 1.989-1.134c.768-.264 1.608-.396 2.52-.396Zm0 10.62c.78 0 1.47-.204 2.07-.612.6-.408 1.071-.987 1.413-1.737.342-.75.513-1.629.513-2.637 0-1.02-.171-1.902-.513-2.646-.342-.744-.813-1.32-1.413-1.728-.6-.408-1.29-.612-2.07-.612-.78 0-1.47.204-2.07.612-.6.408-1.068.984-1.404 1.728-.336.744-.504 1.626-.504 2.646 0 1.008.168 1.887.504 2.637.336.75.804 1.329 1.404 1.737.6.408 1.29.612 2.07.612ZM335.896 141.948l10.368 9.324.18 1.962-10.368-9.342-.18-1.944Zm.054 9.954V153h-1.332v-.18h.288c.276 0 .51-.087.702-.261.192-.174.288-.393.288-.657h.054Zm1.854 0c.012.264.117.483.315.657.198.174.423.261.675.261h.306v.18h-1.332v-1.098h.036Zm-1.908-9.954 1.908 2.142V153h-1.908v-8.946c0-.612-.03-1.116-.09-1.512l-.09-.594h.18Zm10.53.252v8.874c0 .408.015.774.045 1.098.03.324.06.582.09.774l.045.288h-.162l-1.926-2.232V142.2h1.908Zm-.054 1.098V142.2h1.35v.18h-.306c-.264 0-.495.087-.693.261-.198.174-.297.393-.297.657h-.054Zm-1.854 0c-.012-.264-.114-.483-.306-.657-.192-.174-.42-.261-.684-.261h-.306v-.18h1.332v1.098h-.036Z"/></g><g fill="#103243" fill-rule="nonzero"><path d="M9.256 100.012c.532 0 1.162.028 1.89.084.728.056 1.463.133 2.205.231s1.407.196 1.995.294c.588.098.994.203 1.218.315l-.336 5.334h-.42c0-1.428-.511-2.562-1.533-3.402-1.022-.84-2.345-1.26-3.969-1.26-1.624 0-2.919.42-3.885 1.26-.966.84-1.463 1.862-1.491 3.066-.056.7.147 1.379.609 2.037.462.658 1.085 1.267 1.869 1.827l8.106 6.006c1.148.756 1.988 1.673 2.52 2.751.532 1.078.77 2.289.714 3.633-.084 2.576-1.015 4.62-2.793 6.132-1.778 1.512-4.193 2.268-7.245 2.268-1.036 0-2.093-.091-3.171-.273-1.078-.182-2.065-.462-2.961-.84-.896-.378-1.61-.833-2.142-1.365-.168-.56-.238-1.239-.21-2.037.028-.798.14-1.624.336-2.478.196-.854.434-1.575.714-2.163h.378c-.112 1.428.126 2.723.714 3.885s1.449 2.072 2.583 2.73c1.134.658 2.471.973 4.011.945 1.736-.056 3.129-.546 4.179-1.47 1.05-.924 1.575-2.114 1.575-3.57 0-.84-.224-1.603-.672-2.289-.448-.686-1.148-1.309-2.1-1.869l-7.602-5.754c-1.288-.84-2.205-1.855-2.751-3.045-.546-1.19-.777-2.429-.693-3.717.084-1.344.462-2.569 1.134-3.675.672-1.106 1.617-1.981 2.835-2.625 1.218-.644 2.681-.966 4.389-.966Zm7.35.42-.042.882h-4.368v-.882h4.41ZM29.668 104.8v15.876c0 2.604.63 4.655 1.89 6.153 1.26 1.498 2.996 2.247 5.208 2.247 2.352 0 4.193-.707 5.523-2.121 1.33-1.414 1.995-3.353 1.995-5.817V104.8h2.478v16.128c0 2.996-.917 5.348-2.751 7.056-1.834 1.708-4.417 2.562-7.749 2.562-3.78 0-6.65-.847-8.61-2.541-1.96-1.694-2.94-4.025-2.94-6.993V104.8h4.956Zm-4.872 0v2.184h-.084c-.028-.504-.224-.931-.588-1.281-.364-.35-.812-.525-1.344-.525h-.63v-.378h2.646Zm7.392 0v.378h-.63c-.504 0-.945.175-1.323.525-.378.35-.567.777-.567 1.281h-.084V104.8h2.604Zm12.18 0v2.184h-.084c0-.504-.189-.931-.567-1.281-.378-.35-.833-.525-1.365-.525h-.63v-.378h2.646Zm4.956 0v.378h-.588c-.532 0-.987.175-1.365.525-.378.35-.581.777-.609 1.281h-.084V104.8h2.646ZM79.858 104.254l.378 3.78-10.794 18.438-.357.672c-.238.448-.476 1.001-.714 1.659-.238.658-.385 1.295-.441 1.911h-.378l-1.302-3.15 13.608-23.31Zm-25.41 23.016V130h-4.2v-.42h.588c.7 0 1.316-.203 1.848-.609.532-.406.854-.973.966-1.701h.798Zm1.638.63c-.028.336.07.7.294 1.092.224.392.63.602 1.218.63h.588V130h-2.478l.168-2.1h.21Zm.84-23.646h.336l1.26 3.528L55.876 130h-2.604l3.654-25.746Zm.336 0L69.4 123.952l-1.848 6.762-11.214-18.522.924-7.938Zm22.974 0L84.016 130H78.64l-2.31-17.262 3.528-8.484h.378Zm2.52 23.016h.84c.112.728.434 1.295.966 1.701.532.406 1.134.609 1.806.609h.63v.42h-4.242v-2.73Zm-4.41.63h.252l.168 2.1h-2.478v-.378h.588c.644-.028 1.064-.238 1.26-.63.196-.392.266-.756.21-1.092Z"/><path d="m116.314 104.254.378 3.78-10.794 18.438-.357.672c-.238.448-.476 1.001-.714 1.659-.238.658-.385 1.295-.441 1.911h-.378l-1.302-3.15 13.608-23.31Zm-25.41 23.016V130h-4.2v-.42h.588c.7 0 1.316-.203 1.848-.609.532-.406.854-.973.966-1.701h.798Zm1.638.63c-.028.336.07.7.294 1.092.224.392.63.602 1.218.63h.588V130h-2.478l.168-2.1h.21Zm.84-23.646h.336l1.26 3.528L92.332 130h-2.604l3.654-25.746Zm.336 0 12.138 19.698-1.848 6.762-11.214-18.522.924-7.938Zm22.974 0 3.78 25.746h-5.376l-2.31-17.262 3.528-8.484h.378Zm2.52 23.016h.84c.112.728.434 1.295.966 1.701.532.406 1.134.609 1.806.609h.63v.42h-4.242v-2.73Zm-4.41.63h.252l.168 2.1h-2.478v-.378h.588c.644-.028 1.064-.238 1.26-.63.196-.392.266-.756.21-1.092ZM133.03 104.8V130h-4.914v-25.2h4.914Zm-4.788 22.554V130h-3.234v-.42h.546c.7 0 1.302-.217 1.806-.651.504-.434.756-.959.756-1.575h.126Zm4.662 0h.126c.028.616.287 1.141.777 1.575.49.434 1.099.651 1.827.651h.504v.42h-3.234v-2.646Zm0-19.908V104.8h3.234l-.042.42h-.462c-.728 0-1.337.21-1.827.63-.49.42-.749.952-.777 1.596h-.126Zm-4.662 0h-.126c0-.644-.252-1.176-.756-1.596-.504-.42-1.106-.63-1.806-.63h-.546v-.42h3.234v2.646ZM152.812 104.926V130h-4.998v-25.074h4.998Zm9.45-.168v1.554h-23.898v-1.554h23.898Zm0 1.428v3.948h-.462v-.504c.028-.98-.245-1.771-.819-2.373-.574-.602-1.379-.917-2.415-.945v-.126h3.696Zm0-2.1v1.092l-4.536-.42c.56 0 1.148-.035 1.764-.105.616-.07 1.183-.161 1.701-.273.518-.112.875-.21 1.071-.294Zm-14.364 23.268V130H145v-.42h.462c.644 0 1.19-.217 1.638-.651.448-.434.686-.959.714-1.575h.084Zm4.746 0h.168c0 .616.231 1.141.693 1.575.462.434 1.015.651 1.659.651h.42v.42h-2.94v-2.646Zm-10.584-21.168v.126c-1.036.028-1.841.343-2.415.945-.574.602-.861 1.393-.861 2.373v.504h-.42v-3.948h3.696Zm-3.696-2.1c.224.084.588.182 1.092.294.504.112 1.064.203 1.68.273.616.07 1.19.105 1.722.105l-4.494.42v-1.092ZM188.176 99.844l13.272 29.904h-6.216l-9.03-23.184 1.974-6.72Zm-9.03 27.09c-.224.56-.266 1.036-.126 1.428.14.392.378.693.714.903.336.21.672.315 1.008.315h.378v.42h-8.82v-.42h.378c.644 0 1.309-.203 1.995-.609.686-.406 1.253-1.085 1.701-2.037h2.772Zm9.03-27.09.21 4.41-10.458 25.62h-2.856l10.836-24.906c.056-.112.175-.385.357-.819.182-.434.392-.931.63-1.491s.441-1.099.609-1.617c.168-.518.266-.917.294-1.197h.378Zm4.914 19.656v1.596h-12.642V119.5h12.642Zm1.05 7.434h6.048c.448.952 1.015 1.631 1.701 2.037.686.406 1.351.609 1.995.609h.336v.42h-12.054v-.42h.378c.532 0 1.008-.231 1.428-.693.42-.462.476-1.113.168-1.953ZM207.328 104.212l24.192 21.756.42 4.578-24.192-21.798-.42-4.536Zm.126 23.226V130h-3.108v-.42h.672c.644 0 1.19-.203 1.638-.609.448-.406.672-.917.672-1.533h.126Zm4.326 0c.028.616.273 1.127.735 1.533.462.406.987.609 1.575.609h.714v.42h-3.108v-2.562h.084Zm-4.452-23.226 4.452 4.998V130h-4.452v-20.874c0-1.428-.07-2.604-.21-3.528l-.21-1.386h.42Zm24.57.588v20.706c0 .952.035 1.806.105 2.562.07.756.14 1.358.21 1.806l.105.672h-.378l-4.494-5.208V104.8h4.452Zm-.126 2.562V104.8h3.15v.42h-.714c-.616 0-1.155.203-1.617.609-.462.406-.693.917-.693 1.533h-.126Zm-4.326 0c-.028-.616-.266-1.127-.714-1.533-.448-.406-.98-.609-1.596-.609h-.714v-.42h3.108v2.562h-.084ZM245.506 104.8V130h-4.914v-25.2h4.914Zm10.332 23.646.63 1.554h-11.046v-1.554h10.416Zm-1.638-11.76v1.554h-8.778v-1.554h8.778Zm1.932-11.886v1.554h-10.71V104.8h10.71Zm2.268 18.06-1.848 7.14h-6.972l1.344-1.554c1.288 0 2.387-.231 3.297-.693.91-.462 1.673-1.113 2.289-1.953.616-.84 1.12-1.82 1.512-2.94h.378Zm-4.2-4.704v3.276h-.42v-.378c0-.784-.238-1.442-.714-1.974s-1.148-.812-2.016-.84v-.084h3.15Zm0-4.62v3.234h-3.15v-.084c.868 0 1.54-.266 2.016-.798s.714-1.19.714-1.974v-.378h.42Zm1.932-7.308v3.948h-.462v-.462c0-1.008-.28-1.82-.84-2.436-.56-.616-1.358-.924-2.394-.924v-.126h3.696Zm0-2.1v1.092l-4.536-.42c.812 0 1.68-.077 2.604-.231.924-.154 1.568-.301 1.932-.441Zm-15.456 23.226.294 2.646h-3.276v-.42h.546c.644 0 1.19-.217 1.638-.651.448-.434.686-.959.714-1.575h.084Zm0-19.908h-.084c-.028-.644-.266-1.176-.714-1.596-.448-.42-.994-.63-1.638-.63h-.546v-.42h3.276l-.294 2.646ZM269.362 104.254c.644 0 1.323.021 2.037.063.714.042 1.407.105 2.079.189.672.084 1.267.175 1.785.273.518.098.875.189 1.071.273l-.336 4.788h-.378c0-1.232-.434-2.212-1.302-2.94-.868-.728-2.142-1.092-3.822-1.092-1.344 0-2.464.329-3.36.987-.896.658-1.358 1.491-1.386 2.499 0 .476.091.903.273 1.281.182.378.455.735.819 1.071.364.336.798.658 1.302.966l7.224 4.914c.952.56 1.694 1.337 2.226 2.331s.784 2.121.756 3.381c-.056 1.456-.469 2.737-1.239 3.843-.77 1.106-1.827 1.96-3.171 2.562-1.344.602-2.898.903-4.662.903-1.064 0-2.1-.084-3.108-.252-1.008-.168-1.89-.413-2.646-.735s-1.372-.707-1.848-1.155c-.168-.504-.238-1.12-.21-1.848.028-.728.133-1.47.315-2.226s.399-1.4.651-1.932h.42c-.084 1.26.133 2.394.651 3.402s1.288 1.799 2.31 2.373c1.022.574 2.233.861 3.633.861 1.652-.028 2.912-.427 3.78-1.197.868-.77 1.302-1.729 1.302-2.877 0-.728-.203-1.386-.609-1.974-.406-.588-1.071-1.148-1.995-1.68l-6.762-4.704c-1.204-.7-2.058-1.589-2.562-2.667-.504-1.078-.7-2.219-.588-3.423.084-1.26.448-2.359 1.092-3.297.644-.938 1.505-1.666 2.583-2.184 1.078-.518 2.303-.777 3.675-.777Zm7.014.378-.042.714h-3.99v-.714h4.032ZM295.234 104.926V130h-4.998v-25.074h4.998Zm9.45-.168v1.554h-23.898v-1.554h23.898Zm0 1.428v3.948h-.462v-.504c.028-.98-.245-1.771-.819-2.373-.574-.602-1.379-.917-2.415-.945v-.126h3.696Zm0-2.1v1.092l-4.536-.42c.56 0 1.148-.035 1.764-.105.616-.07 1.183-.161 1.701-.273.518-.112.875-.21 1.071-.294Zm-14.364 23.268V130h-2.898v-.42h.462c.644 0 1.19-.217 1.638-.651.448-.434.686-.959.714-1.575h.084Zm4.746 0h.168c0 .616.231 1.141.693 1.575.462.434 1.015.651 1.659.651h.42v.42h-2.94v-2.646Zm-10.584-21.168v.126c-1.036.028-1.841.343-2.415.945-.574.602-.861 1.393-.861 2.373v.504h-.42v-3.948h3.696Zm-3.696-2.1c.224.084.588.182 1.092.294.504.112 1.064.203 1.68.273.616.07 1.19.105 1.722.105l-4.494.42v-1.092ZM332.068 104.8V130h-4.914v-25.2h4.914Zm-17.43 0V130h-4.956v-25.2h4.956Zm12.894 11.928v1.512h-13.314v-1.512h13.314Zm-17.724 10.626V130h-2.94v-.42h.504c.644 0 1.19-.217 1.638-.651.448-.434.672-.959.672-1.575h.126Zm4.704 0h.126c0 .616.231 1.141.693 1.575.462.434 1.015.651 1.659.651h.462v.42h-2.94v-2.646Zm0-19.908V104.8h2.94v.42h-.462c-.644 0-1.197.21-1.659.63-.462.42-.693.952-.693 1.596h-.126Zm-4.704 0h-.126c0-.644-.224-1.176-.672-1.596-.448-.42-.994-.63-1.638-.63h-.504v-.42h2.94v2.646Zm17.472 19.908V130h-2.94v-.42h.462c.672 0 1.225-.217 1.659-.651.434-.434.665-.959.693-1.575h.126Zm4.662 0h.126c.028.616.266 1.141.714 1.575.448.434.994.651 1.638.651h.504v.42h-2.982v-2.646Zm.042-19.908V104.8h2.94v.42h-.504c-.644 0-1.19.21-1.638.63-.448.42-.672.952-.672 1.596h-.126Zm-4.704 0h-.126c-.028-.644-.259-1.176-.693-1.596-.434-.42-.987-.63-1.659-.63h-.462v-.42h2.94v2.646ZM346.138 104.8V130h-4.914v-25.2h4.914Zm10.332 23.646.63 1.554h-11.046v-1.554h10.416Zm-1.638-11.76v1.554h-8.778v-1.554h8.778Zm1.932-11.886v1.554h-10.71V104.8h10.71Zm2.268 18.06-1.848 7.14h-6.972l1.344-1.554c1.288 0 2.387-.231 3.297-.693.91-.462 1.673-1.113 2.289-1.953.616-.84 1.12-1.82 1.512-2.94h.378Zm-4.2-4.704v3.276h-.42v-.378c0-.784-.238-1.442-.714-1.974s-1.148-.812-2.016-.84v-.084h3.15Zm0-4.62v3.234h-3.15v-.084c.868 0 1.54-.266 2.016-.798s.714-1.19.714-1.974v-.378h.42Zm1.932-7.308v3.948h-.462v-.462c0-1.008-.28-1.82-.84-2.436-.56-.616-1.358-.924-2.394-.924v-.126h3.696Zm0-2.1v1.092l-4.536-.42c.812 0 1.68-.077 2.604-.231.924-.154 1.568-.301 1.932-.441Zm-15.456 23.226.294 2.646h-3.276v-.42h.546c.644 0 1.19-.217 1.638-.651.448-.434.686-.959.714-1.575h.084Zm0-19.908h-.084c-.028-.644-.266-1.176-.714-1.596-.448-.42-.994-.63-1.638-.63h-.546v-.42h3.276l-.294 2.646ZM369.994 104.254c.644 0 1.323.021 2.037.063.714.042 1.407.105 2.079.189.672.084 1.267.175 1.785.273.518.098.875.189 1.071.273l-.336 4.788h-.378c0-1.232-.434-2.212-1.302-2.94-.868-.728-2.142-1.092-3.822-1.092-1.344 0-2.464.329-3.36.987-.896.658-1.358 1.491-1.386 2.499 0 .476.091.903.273 1.281.182.378.455.735.819 1.071.364.336.798.658 1.302.966l7.224 4.914c.952.56 1.694 1.337 2.226 2.331s.784 2.121.756 3.381c-.056 1.456-.469 2.737-1.239 3.843-.77 1.106-1.827 1.96-3.171 2.562-1.344.602-2.898.903-4.662.903-1.064 0-2.1-.084-3.108-.252-1.008-.168-1.89-.413-2.646-.735s-1.372-.707-1.848-1.155c-.168-.504-.238-1.12-.21-1.848.028-.728.133-1.47.315-2.226s.399-1.4.651-1.932h.42c-.084 1.26.133 2.394.651 3.402s1.288 1.799 2.31 2.373c1.022.574 2.233.861 3.633.861 1.652-.028 2.912-.427 3.78-1.197.868-.77 1.302-1.729 1.302-2.877 0-.728-.203-1.386-.609-1.974-.406-.588-1.071-1.148-1.995-1.68l-6.762-4.704c-1.204-.7-2.058-1.589-2.562-2.667-.504-1.078-.7-2.219-.588-3.423.084-1.26.448-2.359 1.092-3.297.644-.938 1.505-1.666 2.583-2.184 1.078-.518 2.303-.777 3.675-.777Zm7.014.378-.042.714h-3.99v-.714h4.032ZM390.658 104.8V130h-4.914v-25.2h4.914Zm-4.788 22.554V130h-3.234v-.42h.546c.7 0 1.302-.217 1.806-.651.504-.434.756-.959.756-1.575h.126Zm4.662 0h.126c.028.616.287 1.141.777 1.575.49.434 1.099.651 1.827.651h.504v.42h-3.234v-2.646Zm0-19.908V104.8h3.234l-.042.42h-.462c-.728 0-1.337.21-1.827.63-.49.42-.749.952-.777 1.596h-.126Zm-4.662 0h-.126c0-.644-.252-1.176-.756-1.596-.504-.42-1.106-.63-1.806-.63h-.546v-.42h3.234v2.646ZM409.138 103.834l12.138 25.914h-5.838l-8.19-19.53 1.89-6.384Zm-7.98 23.31c-.308.784-.266 1.386.126 1.806.392.42.826.63 1.302.63h.336v.42h-8.274v-.42h.336c.588 0 1.19-.189 1.806-.567.616-.378 1.12-1.001 1.512-1.869h2.856Zm7.98-23.31.126 4.326-9.282 21.714h-2.94l9.87-21.21c.028-.112.133-.364.315-.756s.385-.854.609-1.386c.224-.532.427-1.043.609-1.533s.287-.875.315-1.155h.378Zm4.074 17.43v1.512h-10.878v-1.512h10.878Zm1.134 5.88h5.712c.392.868.896 1.491 1.512 1.869.616.378 1.204.567 1.764.567h.336v.42h-11.088v-.42h.336c.476 0 .91-.21 1.302-.63.392-.42.434-1.022.126-1.806Z"/></g><path fill="#103243" fill-rule="nonzero" d="M204.4805 0 239 33.1957l22.621-10.019 39.4193 36.1535L316 64.0978 335 79v4l-17-11 6 7.0505L319 79l8 8.0252-40-20.9337 10 1.9937-23-18.94h4l-16-15.9495 6 14.9526h-6l17 16.9464-6-.9969c1.4328 1.1392 16.41 12.078 18.0938 13.4068C297.5127 82.6254 303.2998 89.096 309 95c-12.5427-5.8534-19.5427-9.1762-21-9.9684L295 95l-27-14.9527 3 6.978-17-8.9716 6 12.959c-4.91-4.1385-11.5767-11.4487-20-21.9306l9-.9969-19-12.959-14-18.94 19 8.9716-26-22.9274 7 1.9937-10-12.959-9 7.9748 4-.9969-5 7.9748c.5225-.3427 2.8558-1.6718 7-3.9874l-5 10.9653-13 11.9621 4-9.9684-9 3.9873-13 12.959 9-1.9937-11 13.9558-21 17.9432 16-20.9337L112 95l18-25.918 21-13.9558c8.6653-10.7339 13.332-16.3827 14-16.9463l-5-5.981-11 10.9652 8-.9968-8 10.9653-15 10.9652-2-3.9873L94 95l10-17.9432L98 79l1-5-10 9-1-4 14-12 13-2.9022 43.5273-40.7888 9.0938 4.3573L204.4805 0Z"/><path stroke="#103243" stroke-width="4" d="M89 81H70l-8-20-7 29-5-9H1M335 81h19l8-20 7 29 5-9h49"/></g></svg>