<?xml version="1.0" encoding="UTF-8"?>
<svg width="424px" height="154px" viewBox="0 0 424 154" version="1.1" xmlns="http://www.w3.org/2000/svg" xmlns:xlink="http://www.w3.org/1999/xlink">
    <title>logo</title>
    <g id="Logo" stroke="none" stroke-width="1" fill="none" fill-rule="evenodd">
        <g id="logo" transform="translate(0.220000, 0.000000)">
            <g id="Service-Corporation" transform="translate(70.731429, 140.148000)" fill="#000000" fill-rule="nonzero">
                <path d="M3.87257143,0 C4.10057143,0 4.37057143,0.012 4.68257143,0.036 C4.99457143,0.06 5.30957143,0.093 5.62757143,0.135 C5.94557143,0.177 6.23057143,0.219 6.48257143,0.261 C6.73457143,0.303 6.90857143,0.348 7.00457143,0.396 L6.86057143,2.682 L6.68057143,2.682 C6.68057143,2.07 6.46157143,1.584 6.02357143,1.224 C5.58557143,0.864 5.01857143,0.684 4.32257143,0.684 C3.62657143,0.684 3.07157143,0.864 2.65757143,1.224 C2.24357143,1.584 2.03057143,2.022 2.01857143,2.538 C1.99457143,2.838 2.08157143,3.129 2.27957143,3.411 C2.47757143,3.693 2.74457143,3.954 3.08057143,4.194 L6.55457143,6.768 C7.04657143,7.092 7.40657143,7.485 7.63457143,7.947 C7.86257143,8.409 7.96457143,8.928 7.94057143,9.504 C7.90457143,10.608 7.50557143,11.484 6.74357143,12.132 C5.98157143,12.78 4.94657143,13.104 3.63857143,13.104 C3.19457143,13.104 2.74157143,13.065 2.27957143,12.987 C1.81757143,12.909 1.39457143,12.789 1.01057143,12.627 C0.626571429,12.465 0.320571429,12.27 0.0925714286,12.042 C0.0205714286,11.802 -0.00942857143,11.511 0.00257142857,11.169 C0.0145714286,10.827 0.0625714286,10.473 0.146571429,10.107 C0.230571429,9.741 0.332571429,9.432 0.452571429,9.18 L0.614571429,9.18 C0.566571429,9.792 0.668571429,10.347 0.920571429,10.845 C1.17257143,11.343 1.54157143,11.733 2.02757143,12.015 C2.51357143,12.297 3.08657143,12.432 3.74657143,12.42 C4.49057143,12.396 5.08757143,12.186 5.53757143,11.79 C5.98757143,11.394 6.21257143,10.884 6.21257143,10.26 C6.21257143,9.9 6.11657143,9.573 5.92457143,9.279 C5.73257143,8.985 5.43257143,8.718 5.02457143,8.478 L1.76657143,6.012 C1.21457143,5.652 0.821571429,5.217 0.587571429,4.707 C0.353571429,4.197 0.254571429,3.666 0.290571429,3.114 C0.326571429,2.538 0.488571429,2.013 0.776571429,1.539 C1.06457143,1.065 1.46957143,0.69 1.99157143,0.414 C2.51357143,0.138 3.14057143,0 3.87257143,0 Z M7.02257143,0.18 L7.00457143,0.558 L5.13257143,0.558 L5.13257143,0.18 L7.02257143,0.18 Z" id="Shape"></path>
                <path d="M16.8905714,2.052 L16.8905714,12.852 L14.7845714,12.852 L14.7845714,2.052 L16.8905714,2.052 Z M21.3185714,12.186 L21.5885714,12.852 L16.8545714,12.852 L16.8545714,12.186 L21.3185714,12.186 Z M20.6165714,7.146 L20.6165714,7.812 L16.8545714,7.812 L16.8545714,7.146 L20.6165714,7.146 Z M21.4445714,2.052 L21.4445714,2.718 L16.8545714,2.718 L16.8545714,2.052 L21.4445714,2.052 Z M22.4165714,9.792 L21.6245714,12.852 L18.6365714,12.852 L19.2125714,12.186 C19.7645714,12.186 20.2355714,12.087 20.6255714,11.889 C21.0155714,11.691 21.3425714,11.412 21.6065714,11.052 C21.8705714,10.692 22.0865714,10.272 22.2545714,9.792 L22.4165714,9.792 Z M20.6165714,7.776 L20.6165714,9.18 L20.4365714,9.18 L20.4365714,9.018 C20.4365714,8.682 20.3345714,8.4 20.1305714,8.172 C19.9265714,7.944 19.6385714,7.824 19.2665714,7.812 L19.2665714,7.776 L20.6165714,7.776 Z M20.6165714,5.796 L20.6165714,7.182 L19.2665714,7.182 L19.2665714,7.146 C19.6385714,7.146 19.9265714,7.032 20.1305714,6.804 C20.3345714,6.576 20.4365714,6.294 20.4365714,5.958 L20.4365714,5.796 L20.6165714,5.796 Z M21.4445714,2.664 L21.4445714,4.356 L21.2465714,4.356 L21.2465714,4.158 C21.2465714,3.726 21.1265714,3.378 20.8865714,3.114 C20.6465714,2.85 20.3045714,2.718 19.8605714,2.718 L19.8605714,2.664 L21.4445714,2.664 Z M21.4445714,1.764 L21.4445714,2.232 L19.5005714,2.052 C19.8485714,2.052 20.2205714,2.019 20.6165714,1.953 C21.0125714,1.887 21.2885714,1.824 21.4445714,1.764 Z M14.8205714,11.718 L14.9465714,12.852 L13.5425714,12.852 L13.5425714,12.672 C13.5425714,12.672 13.5815714,12.672 13.6595714,12.672 C13.7375714,12.672 13.7765714,12.672 13.7765714,12.672 C14.0525714,12.672 14.2865714,12.579 14.4785714,12.393 C14.6705714,12.207 14.7725714,11.982 14.7845714,11.718 L14.8205714,11.718 Z M14.8205714,3.186 L14.7845714,3.186 C14.7725714,2.91 14.6705714,2.682 14.4785714,2.502 C14.2865714,2.322 14.0525714,2.232 13.7765714,2.232 C13.7765714,2.232 13.7375714,2.232 13.6595714,2.232 C13.5815714,2.232 13.5425714,2.232 13.5425714,2.232 L13.5425714,2.052 L14.9465714,2.052 L14.8205714,3.186 Z" id="Shape"></path>
                <path d="M30.7005714,2.052 L32.7525714,2.052 C33.2805714,2.052 33.7755714,2.106 34.2375714,2.214 C34.6995714,2.322 35.1075714,2.493 35.4615714,2.727 C35.8155714,2.961 36.0915714,3.264 36.2895714,3.636 C36.4875714,4.008 36.5865714,4.458 36.5865714,4.986 C36.5865714,5.43 36.4905714,5.865 36.2985714,6.291 C36.1065714,6.717 35.8185714,7.077 35.4345714,7.371 C35.0505714,7.665 34.5705714,7.848 33.9945714,7.92 C34.2945714,8.016 34.5975714,8.22 34.9035714,8.532 C35.2095714,8.844 35.4465714,9.138 35.6145714,9.414 C35.6505714,9.474 35.7375714,9.609 35.8755714,9.819 C36.0135714,10.029 36.1845714,10.275 36.3885714,10.557 C36.5925714,10.839 36.8025714,11.118 37.0185714,11.394 C37.2585714,11.706 37.4745714,11.955 37.6665714,12.141 C37.8585714,12.327 38.0595714,12.462 38.2695714,12.546 C38.4795714,12.63 38.7165714,12.672 38.9805714,12.672 L38.9805714,12.852 L37.7925714,12.852 C37.1445714,12.852 36.5985714,12.792 36.1545714,12.672 C35.7105714,12.552 35.3355714,12.366 35.0295714,12.114 C34.7235714,11.862 34.4445714,11.55 34.1925714,11.178 C34.1085714,11.046 33.9975714,10.866 33.8595714,10.638 C33.7215714,10.41 33.5805714,10.173 33.4365714,9.927 C33.2925714,9.681 33.1605714,9.447 33.0405714,9.225 C32.9205714,9.003 32.8425714,8.832 32.8065714,8.712 C32.6265714,8.352 32.4165714,8.076 32.1765714,7.884 C31.9365714,7.692 31.7025714,7.59 31.4745714,7.578 L31.4745714,7.416 C31.4865714,7.416 31.5525714,7.419 31.6725714,7.425 C31.7925714,7.431 31.9425714,7.428 32.1225714,7.416 C32.3985714,7.404 32.6775714,7.362 32.9595714,7.29 C33.2415714,7.218 33.4965714,7.062 33.7245714,6.822 C33.9525714,6.582 34.1265714,6.21 34.2465714,5.706 C34.2825714,5.61 34.3095714,5.49 34.3275714,5.346 C34.3455714,5.202 34.3485714,5.04 34.3365714,4.86 C34.3245714,4.452 34.2525714,4.113 34.1205714,3.843 C33.9885714,3.573 33.8205714,3.36 33.6165714,3.204 C33.4125714,3.048 33.1905714,2.934 32.9505714,2.862 C32.7105714,2.79 32.4825714,2.748 32.2665714,2.736 C31.9185714,2.724 31.6125714,2.721 31.3485714,2.727 C31.0845714,2.733 30.9225714,2.736 30.8625714,2.736 C30.8505714,2.724 30.8325714,2.664 30.8085714,2.556 C30.7845714,2.448 30.7605714,2.337 30.7365714,2.223 C30.7125714,2.109 30.7005714,2.052 30.7005714,2.052 Z M30.8805714,2.052 L30.8805714,12.852 L28.7565714,12.852 L28.7565714,2.052 L30.8805714,2.052 Z M28.8105714,11.718 L28.9365714,12.852 L27.5685714,12.852 L27.5685714,12.672 C27.5685714,12.672 27.6015714,12.672 27.6675714,12.672 C27.7335714,12.672 27.7725714,12.672 27.7845714,12.672 C28.0605714,12.672 28.2915714,12.579 28.4775714,12.393 C28.6635714,12.207 28.7625714,11.982 28.7745714,11.718 L28.8105714,11.718 Z M28.8105714,3.186 L28.7745714,3.186 C28.7625714,2.91 28.6635714,2.682 28.4775714,2.502 C28.2915714,2.322 28.0665714,2.232 27.8025714,2.232 C27.7785714,2.232 27.7335714,2.232 27.6675714,2.232 C27.6015714,2.232 27.5685714,2.232 27.5685714,2.232 L27.5685714,2.052 L28.9365714,2.052 L28.8105714,3.186 Z M30.8445714,11.718 L30.8805714,11.718 C30.8925714,11.994 31.0005714,12.222 31.2045714,12.402 C31.4085714,12.582 31.6365714,12.672 31.8885714,12.672 C31.8885714,12.672 31.9185714,12.672 31.9785714,12.672 C32.0385714,12.672 32.0745714,12.672 32.0865714,12.672 L32.1045714,12.852 L30.7185714,12.852 L30.8445714,11.718 Z" id="Shape"></path>
                <path d="M47.6245714,13.086 L42.4405714,2.16 L44.9605714,2.16 L48.4165714,10.35 L47.6245714,13.086 Z M47.6245714,13.086 L47.5345714,11.286 L51.5125714,2.106 L52.7725714,2.106 L48.5785714,11.016 C48.5545714,11.052 48.5035714,11.157 48.4255714,11.331 C48.3475714,11.505 48.2605714,11.703 48.1645714,11.925 C48.0685714,12.147 47.9845714,12.363 47.9125714,12.573 C47.8405714,12.783 47.7925714,12.954 47.7685714,13.086 L47.6245714,13.086 Z M50.9905714,3.294 C51.1225714,2.946 51.1075714,2.682 50.9455714,2.502 C50.7835714,2.322 50.5945714,2.232 50.3785714,2.232 L50.2525714,2.232 L50.2525714,2.052 L53.7805714,2.052 L53.7805714,2.232 C53.7805714,2.232 53.7565714,2.232 53.7085714,2.232 C53.6605714,2.232 53.6365714,2.232 53.6365714,2.232 C53.3965714,2.232 53.1445714,2.313 52.8805714,2.475 C52.6165714,2.637 52.3945714,2.91 52.2145714,3.294 L50.9905714,3.294 Z M45.4285714,3.294 L42.9805714,3.294 C42.8005714,2.91 42.5815714,2.637 42.3235714,2.475 C42.0655714,2.313 41.8165714,2.232 41.5765714,2.232 C41.5765714,2.232 41.5525714,2.232 41.5045714,2.232 C41.4565714,2.232 41.4325714,2.232 41.4325714,2.232 L41.4325714,2.052 L46.1845714,2.052 L46.1845714,2.232 L46.0405714,2.232 C45.8485714,2.232 45.6685714,2.322 45.5005714,2.502 C45.3325714,2.682 45.3085714,2.946 45.4285714,3.294 Z" id="Shape"></path>
                <path d="M61.6685714,2.052 L61.6685714,12.852 L59.5625714,12.852 L59.5625714,2.052 L61.6685714,2.052 Z M59.6165714,11.718 L59.6165714,12.852 L58.2305714,12.852 L58.2305714,12.672 C58.2305714,12.672 58.2695714,12.672 58.3475714,12.672 C58.4255714,12.672 58.4645714,12.672 58.4645714,12.672 C58.7645714,12.672 59.0225714,12.579 59.2385714,12.393 C59.4545714,12.207 59.5625714,11.982 59.5625714,11.718 L59.6165714,11.718 Z M61.6145714,11.718 L61.6685714,11.718 C61.6805714,11.982 61.7915714,12.207 62.0015714,12.393 C62.2115714,12.579 62.4725714,12.672 62.7845714,12.672 C62.7845714,12.672 62.8175714,12.672 62.8835714,12.672 C62.9495714,12.672 62.9885714,12.672 63.0005714,12.672 L63.0005714,12.852 L61.6145714,12.852 L61.6145714,11.718 Z M61.6145714,3.186 L61.6145714,2.052 L63.0005714,2.052 L62.9825714,2.232 C62.9825714,2.232 62.9495714,2.232 62.8835714,2.232 C62.8175714,2.232 62.7845714,2.232 62.7845714,2.232 C62.4725714,2.232 62.2115714,2.322 62.0015714,2.502 C61.7915714,2.682 61.6805714,2.91 61.6685714,3.186 L61.6145714,3.186 Z M59.6165714,3.186 L59.5625714,3.186 C59.5625714,2.91 59.4545714,2.682 59.2385714,2.502 C59.0225714,2.322 58.7645714,2.232 58.4645714,2.232 C58.4525714,2.232 58.4105714,2.232 58.3385714,2.232 C58.2665714,2.232 58.2305714,2.232 58.2305714,2.232 L58.2305714,2.052 L59.6165714,2.052 L59.6165714,3.186 Z" id="Shape"></path>
                <path d="M79.1505714,8.334 L79.2225714,10.962 C78.9585714,11.382 78.6075714,11.751 78.1695714,12.069 C77.7315714,12.387 77.2095714,12.636 76.6035714,12.816 C75.9975714,12.996 75.3165714,13.086 74.5605714,13.086 C73.2645714,13.074 72.1425714,12.846 71.1945714,12.402 C70.2465714,11.958 69.5175714,11.316 69.0075714,10.476 C68.4975714,9.636 68.2425714,8.628 68.2425714,7.452 C68.2425714,6.276 68.4945714,5.268 68.9985714,4.428 C69.5025714,3.588 70.2285714,2.943 71.1765714,2.493 C72.1245714,2.043 73.2525714,1.818 74.5605714,1.818 C75.3525714,1.818 76.1085714,1.902 76.8285714,2.07 C77.5485714,2.238 78.1545714,2.46 78.6465714,2.736 L78.7905714,5.472 L78.6465714,5.472 C78.3585714,4.368 77.8635714,3.591 77.1615714,3.141 C76.4595714,2.691 75.6285714,2.466 74.6685714,2.466 C73.7685714,2.466 73.0095714,2.67 72.3915714,3.078 C71.7735714,3.486 71.3055714,4.062 70.9875714,4.806 C70.6695714,5.55 70.5105714,6.42 70.5105714,7.416 C70.5105714,8.424 70.6725714,9.303 70.9965714,10.053 C71.3205714,10.803 71.7855714,11.382 72.3915714,11.79 C72.9975714,12.198 73.7205714,12.414 74.5605714,12.438 C75.4245714,12.438 76.1655714,12.3 76.7835714,12.024 C77.4015714,11.748 77.8935714,11.307 78.2595714,10.701 C78.6255714,10.095 78.8685714,9.306 78.9885714,8.334 L79.1505714,8.334 Z" id="Path"></path>
                <path d="M88.0465714,2.052 L88.0465714,12.852 L85.9405714,12.852 L85.9405714,2.052 L88.0465714,2.052 Z M92.4745714,12.186 L92.7445714,12.852 L88.0105714,12.852 L88.0105714,12.186 L92.4745714,12.186 Z M91.7725714,7.146 L91.7725714,7.812 L88.0105714,7.812 L88.0105714,7.146 L91.7725714,7.146 Z M92.6005714,2.052 L92.6005714,2.718 L88.0105714,2.718 L88.0105714,2.052 L92.6005714,2.052 Z M93.5725714,9.792 L92.7805714,12.852 L89.7925714,12.852 L90.3685714,12.186 C90.9205714,12.186 91.3915714,12.087 91.7815714,11.889 C92.1715714,11.691 92.4985714,11.412 92.7625714,11.052 C93.0265714,10.692 93.2425714,10.272 93.4105714,9.792 L93.5725714,9.792 Z M91.7725714,7.776 L91.7725714,9.18 L91.5925714,9.18 L91.5925714,9.018 C91.5925714,8.682 91.4905714,8.4 91.2865714,8.172 C91.0825714,7.944 90.7945714,7.824 90.4225714,7.812 L90.4225714,7.776 L91.7725714,7.776 Z M91.7725714,5.796 L91.7725714,7.182 L90.4225714,7.182 L90.4225714,7.146 C90.7945714,7.146 91.0825714,7.032 91.2865714,6.804 C91.4905714,6.576 91.5925714,6.294 91.5925714,5.958 L91.5925714,5.796 L91.7725714,5.796 Z M92.6005714,2.664 L92.6005714,4.356 L92.4025714,4.356 L92.4025714,4.158 C92.4025714,3.726 92.2825714,3.378 92.0425714,3.114 C91.8025714,2.85 91.4605714,2.718 91.0165714,2.718 L91.0165714,2.664 L92.6005714,2.664 Z M92.6005714,1.764 L92.6005714,2.232 L90.6565714,2.052 C91.0045714,2.052 91.3765714,2.019 91.7725714,1.953 C92.1685714,1.887 92.4445714,1.824 92.6005714,1.764 Z M85.9765714,11.718 L86.1025714,12.852 L84.6985714,12.852 L84.6985714,12.672 C84.6985714,12.672 84.7375714,12.672 84.8155714,12.672 C84.8935714,12.672 84.9325714,12.672 84.9325714,12.672 C85.2085714,12.672 85.4425714,12.579 85.6345714,12.393 C85.8265714,12.207 85.9285714,11.982 85.9405714,11.718 L85.9765714,11.718 Z M85.9765714,3.186 L85.9405714,3.186 C85.9285714,2.91 85.8265714,2.682 85.6345714,2.502 C85.4425714,2.322 85.2085714,2.232 84.9325714,2.232 C84.9325714,2.232 84.8935714,2.232 84.8155714,2.232 C84.7375714,2.232 84.6985714,2.232 84.6985714,2.232 L84.6985714,2.052 L86.1025714,2.052 L85.9765714,3.186 Z" id="Shape"></path>
                <path d="M119.428571,7.596 L119.464571,10.602 C119.188571,11.07 118.822571,11.493 118.366571,11.871 C117.910571,12.249 117.355571,12.549 116.701571,12.771 C116.047571,12.993 115.282571,13.104 114.406571,13.104 C113.014571,13.092 111.790571,12.822 110.734571,12.294 C109.678571,11.766 108.859571,11.013 108.277571,10.035 C107.695571,9.057 107.404571,7.89 107.404571,6.534 C107.404571,5.202 107.692571,4.047 108.268571,3.069 C108.844571,2.091 109.660571,1.335 110.716571,0.801 C111.772571,0.267 113.026571,0 114.478571,0 C115.414571,0 116.254571,0.105 116.998571,0.315 C117.742571,0.525 118.372571,0.774 118.888571,1.062 L119.032571,3.96 L118.870571,3.96 C118.570571,2.82 118.039571,1.989 117.277571,1.467 C116.515571,0.945 115.624571,0.684 114.604571,0.684 C113.620571,0.684 112.771571,0.921 112.057571,1.395 C111.343571,1.869 110.791571,2.541 110.401571,3.411 C110.011571,4.281 109.816571,5.31 109.816571,6.498 C109.816571,7.686 110.005571,8.721 110.383571,9.603 C110.761571,10.485 111.295571,11.169 111.985571,11.655 C112.675571,12.141 113.482571,12.396 114.406571,12.42 C115.306571,12.42 116.089571,12.267 116.755571,11.961 C117.421571,11.655 117.967571,11.148 118.393571,10.44 C118.819571,9.732 119.116571,8.784 119.284571,7.596 L119.428571,7.596 Z" id="Path"></path>
                <path d="M131.402571,1.818 C132.314571,1.818 133.154571,1.95 133.922571,2.214 C134.690571,2.478 135.356571,2.856 135.920571,3.348 C136.484571,3.84 136.919571,4.431 137.225571,5.121 C137.531571,5.811 137.684571,6.588 137.684571,7.452 C137.684571,8.316 137.531571,9.093 137.225571,9.783 C136.919571,10.473 136.484571,11.064 135.920571,11.556 C135.356571,12.048 134.690571,12.426 133.922571,12.69 C133.154571,12.954 132.314571,13.086 131.402571,13.086 C130.490571,13.086 129.650571,12.954 128.882571,12.69 C128.114571,12.426 127.451571,12.048 126.893571,11.556 C126.335571,11.064 125.903571,10.473 125.597571,9.783 C125.291571,9.093 125.138571,8.316 125.138571,7.452 C125.138571,6.588 125.291571,5.811 125.597571,5.121 C125.903571,4.431 126.335571,3.84 126.893571,3.348 C127.451571,2.856 128.114571,2.478 128.882571,2.214 C129.650571,1.95 130.490571,1.818 131.402571,1.818 Z M131.402571,12.438 C132.182571,12.438 132.872571,12.234 133.472571,11.826 C134.072571,11.418 134.543571,10.839 134.885571,10.089 C135.227571,9.339 135.398571,8.46 135.398571,7.452 C135.398571,6.432 135.227571,5.55 134.885571,4.806 C134.543571,4.062 134.072571,3.486 133.472571,3.078 C132.872571,2.67 132.182571,2.466 131.402571,2.466 C130.622571,2.466 129.932571,2.67 129.332571,3.078 C128.732571,3.486 128.264571,4.062 127.928571,4.806 C127.592571,5.55 127.424571,6.432 127.424571,7.452 C127.424571,8.46 127.592571,9.339 127.928571,10.089 C128.264571,10.839 128.732571,11.418 129.332571,11.826 C129.932571,12.234 130.622571,12.438 131.402571,12.438 Z" id="Shape"></path>
                <path d="M146.112571,2.052 L148.164571,2.052 C148.692571,2.052 149.187571,2.106 149.649571,2.214 C150.111571,2.322 150.519571,2.493 150.873571,2.727 C151.227571,2.961 151.503571,3.264 151.701571,3.636 C151.899571,4.008 151.998571,4.458 151.998571,4.986 C151.998571,5.43 151.902571,5.865 151.710571,6.291 C151.518571,6.717 151.230571,7.077 150.846571,7.371 C150.462571,7.665 149.982571,7.848 149.406571,7.92 C149.706571,8.016 150.009571,8.22 150.315571,8.532 C150.621571,8.844 150.858571,9.138 151.026571,9.414 C151.062571,9.474 151.149571,9.609 151.287571,9.819 C151.425571,10.029 151.596571,10.275 151.800571,10.557 C152.004571,10.839 152.214571,11.118 152.430571,11.394 C152.670571,11.706 152.886571,11.955 153.078571,12.141 C153.270571,12.327 153.471571,12.462 153.681571,12.546 C153.891571,12.63 154.128571,12.672 154.392571,12.672 L154.392571,12.852 L153.204571,12.852 C152.556571,12.852 152.010571,12.792 151.566571,12.672 C151.122571,12.552 150.747571,12.366 150.441571,12.114 C150.135571,11.862 149.856571,11.55 149.604571,11.178 C149.520571,11.046 149.409571,10.866 149.271571,10.638 C149.133571,10.41 148.992571,10.173 148.848571,9.927 C148.704571,9.681 148.572571,9.447 148.452571,9.225 C148.332571,9.003 148.254571,8.832 148.218571,8.712 C148.038571,8.352 147.828571,8.076 147.588571,7.884 C147.348571,7.692 147.114571,7.59 146.886571,7.578 L146.886571,7.416 C146.898571,7.416 146.964571,7.419 147.084571,7.425 C147.204571,7.431 147.354571,7.428 147.534571,7.416 C147.810571,7.404 148.089571,7.362 148.371571,7.29 C148.653571,7.218 148.908571,7.062 149.136571,6.822 C149.364571,6.582 149.538571,6.21 149.658571,5.706 C149.694571,5.61 149.721571,5.49 149.739571,5.346 C149.757571,5.202 149.760571,5.04 149.748571,4.86 C149.736571,4.452 149.664571,4.113 149.532571,3.843 C149.400571,3.573 149.232571,3.36 149.028571,3.204 C148.824571,3.048 148.602571,2.934 148.362571,2.862 C148.122571,2.79 147.894571,2.748 147.678571,2.736 C147.330571,2.724 147.024571,2.721 146.760571,2.727 C146.496571,2.733 146.334571,2.736 146.274571,2.736 C146.262571,2.724 146.244571,2.664 146.220571,2.556 C146.196571,2.448 146.172571,2.337 146.148571,2.223 C146.124571,2.109 146.112571,2.052 146.112571,2.052 Z M146.292571,2.052 L146.292571,12.852 L144.168571,12.852 L144.168571,2.052 L146.292571,2.052 Z M144.222571,11.718 L144.348571,12.852 L142.980571,12.852 L142.980571,12.672 C142.980571,12.672 143.013571,12.672 143.079571,12.672 C143.145571,12.672 143.184571,12.672 143.196571,12.672 C143.472571,12.672 143.703571,12.579 143.889571,12.393 C144.075571,12.207 144.174571,11.982 144.186571,11.718 L144.222571,11.718 Z M144.222571,3.186 L144.186571,3.186 C144.174571,2.91 144.075571,2.682 143.889571,2.502 C143.703571,2.322 143.478571,2.232 143.214571,2.232 C143.190571,2.232 143.145571,2.232 143.079571,2.232 C143.013571,2.232 142.980571,2.232 142.980571,2.232 L142.980571,2.052 L144.348571,2.052 L144.222571,3.186 Z M146.256571,11.718 L146.292571,11.718 C146.304571,11.994 146.412571,12.222 146.616571,12.402 C146.820571,12.582 147.048571,12.672 147.300571,12.672 C147.300571,12.672 147.330571,12.672 147.390571,12.672 C147.450571,12.672 147.486571,12.672 147.498571,12.672 L147.516571,12.852 L146.130571,12.852 L146.256571,11.718 Z" id="Shape"></path>
                <path d="M161.686571,2.052 L163.522571,2.052 C164.434571,2.052 165.196571,2.181 165.808571,2.439 C166.420571,2.697 166.879571,3.054 167.185571,3.51 C167.491571,3.966 167.650571,4.482 167.662571,5.058 C167.686571,5.766 167.545571,6.375 167.239571,6.885 C166.933571,7.395 166.525571,7.788 166.015571,8.064 C165.505571,8.34 164.941571,8.466 164.323571,8.442 C163.705571,8.418 163.102571,8.226 162.514571,7.866 L162.514571,7.704 C162.514571,7.704 162.586571,7.71 162.730571,7.722 C162.874571,7.734 163.063571,7.722 163.297571,7.686 C163.531571,7.65 163.777571,7.575 164.035571,7.461 C164.293571,7.347 164.536571,7.164 164.764571,6.912 C164.992571,6.66 165.172571,6.318 165.304571,5.886 C165.340571,5.73 165.367571,5.565 165.385571,5.391 C165.403571,5.217 165.412571,5.058 165.412571,4.914 C165.400571,4.23 165.184571,3.69 164.764571,3.294 C164.344571,2.898 163.762571,2.7 163.018571,2.7 L161.866571,2.7 C161.866571,2.7 161.851571,2.646 161.821571,2.538 C161.791571,2.43 161.761571,2.322 161.731571,2.214 C161.701571,2.106 161.686571,2.052 161.686571,2.052 Z M161.902571,2.052 L161.902571,12.852 L159.796571,12.852 L159.796571,2.052 L161.902571,2.052 Z M159.832571,11.718 L159.958571,12.852 L158.572571,12.852 L158.572571,12.672 C158.572571,12.672 158.608571,12.672 158.680571,12.672 C158.752571,12.672 158.788571,12.672 158.788571,12.672 C159.064571,12.672 159.298571,12.579 159.490571,12.393 C159.682571,12.207 159.784571,11.982 159.796571,11.718 L159.832571,11.718 Z M159.832571,3.186 L159.796571,3.186 C159.784571,2.91 159.682571,2.682 159.490571,2.502 C159.298571,2.322 159.064571,2.232 158.788571,2.232 C158.776571,2.232 158.737571,2.232 158.671571,2.232 C158.605571,2.232 158.566571,2.232 158.554571,2.232 L158.554571,2.052 L159.958571,2.052 L159.832571,3.186 Z M161.848571,11.718 L161.884571,11.718 C161.896571,11.982 161.995571,12.207 162.181571,12.393 C162.367571,12.579 162.604571,12.672 162.892571,12.672 C162.904571,12.672 162.943571,12.672 163.009571,12.672 C163.075571,12.672 163.114571,12.672 163.126571,12.672 L163.108571,12.852 L161.722571,12.852 L161.848571,11.718 Z" id="Shape"></path>
                <path d="M179.348571,1.818 C180.260571,1.818 181.100571,1.95 181.868571,2.214 C182.636571,2.478 183.302571,2.856 183.866571,3.348 C184.430571,3.84 184.865571,4.431 185.171571,5.121 C185.477571,5.811 185.630571,6.588 185.630571,7.452 C185.630571,8.316 185.477571,9.093 185.171571,9.783 C184.865571,10.473 184.430571,11.064 183.866571,11.556 C183.302571,12.048 182.636571,12.426 181.868571,12.69 C181.100571,12.954 180.260571,13.086 179.348571,13.086 C178.436571,13.086 177.596571,12.954 176.828571,12.69 C176.060571,12.426 175.397571,12.048 174.839571,11.556 C174.281571,11.064 173.849571,10.473 173.543571,9.783 C173.237571,9.093 173.084571,8.316 173.084571,7.452 C173.084571,6.588 173.237571,5.811 173.543571,5.121 C173.849571,4.431 174.281571,3.84 174.839571,3.348 C175.397571,2.856 176.060571,2.478 176.828571,2.214 C177.596571,1.95 178.436571,1.818 179.348571,1.818 Z M179.348571,12.438 C180.128571,12.438 180.818571,12.234 181.418571,11.826 C182.018571,11.418 182.489571,10.839 182.831571,10.089 C183.173571,9.339 183.344571,8.46 183.344571,7.452 C183.344571,6.432 183.173571,5.55 182.831571,4.806 C182.489571,4.062 182.018571,3.486 181.418571,3.078 C180.818571,2.67 180.128571,2.466 179.348571,2.466 C178.568571,2.466 177.878571,2.67 177.278571,3.078 C176.678571,3.486 176.210571,4.062 175.874571,4.806 C175.538571,5.55 175.370571,6.432 175.370571,7.452 C175.370571,8.46 175.538571,9.339 175.874571,10.089 C176.210571,10.839 176.678571,11.418 177.278571,11.826 C177.878571,12.234 178.568571,12.438 179.348571,12.438 Z" id="Shape"></path>
                <path d="M194.058571,2.052 L196.110571,2.052 C196.638571,2.052 197.133571,2.106 197.595571,2.214 C198.057571,2.322 198.465571,2.493 198.819571,2.727 C199.173571,2.961 199.449571,3.264 199.647571,3.636 C199.845571,4.008 199.944571,4.458 199.944571,4.986 C199.944571,5.43 199.848571,5.865 199.656571,6.291 C199.464571,6.717 199.176571,7.077 198.792571,7.371 C198.408571,7.665 197.928571,7.848 197.352571,7.92 C197.652571,8.016 197.955571,8.22 198.261571,8.532 C198.567571,8.844 198.804571,9.138 198.972571,9.414 C199.008571,9.474 199.095571,9.609 199.233571,9.819 C199.371571,10.029 199.542571,10.275 199.746571,10.557 C199.950571,10.839 200.160571,11.118 200.376571,11.394 C200.616571,11.706 200.832571,11.955 201.024571,12.141 C201.216571,12.327 201.417571,12.462 201.627571,12.546 C201.837571,12.63 202.074571,12.672 202.338571,12.672 L202.338571,12.852 L201.150571,12.852 C200.502571,12.852 199.956571,12.792 199.512571,12.672 C199.068571,12.552 198.693571,12.366 198.387571,12.114 C198.081571,11.862 197.802571,11.55 197.550571,11.178 C197.466571,11.046 197.355571,10.866 197.217571,10.638 C197.079571,10.41 196.938571,10.173 196.794571,9.927 C196.650571,9.681 196.518571,9.447 196.398571,9.225 C196.278571,9.003 196.200571,8.832 196.164571,8.712 C195.984571,8.352 195.774571,8.076 195.534571,7.884 C195.294571,7.692 195.060571,7.59 194.832571,7.578 L194.832571,7.416 C194.844571,7.416 194.910571,7.419 195.030571,7.425 C195.150571,7.431 195.300571,7.428 195.480571,7.416 C195.756571,7.404 196.035571,7.362 196.317571,7.29 C196.599571,7.218 196.854571,7.062 197.082571,6.822 C197.310571,6.582 197.484571,6.21 197.604571,5.706 C197.640571,5.61 197.667571,5.49 197.685571,5.346 C197.703571,5.202 197.706571,5.04 197.694571,4.86 C197.682571,4.452 197.610571,4.113 197.478571,3.843 C197.346571,3.573 197.178571,3.36 196.974571,3.204 C196.770571,3.048 196.548571,2.934 196.308571,2.862 C196.068571,2.79 195.840571,2.748 195.624571,2.736 C195.276571,2.724 194.970571,2.721 194.706571,2.727 C194.442571,2.733 194.280571,2.736 194.220571,2.736 C194.208571,2.724 194.190571,2.664 194.166571,2.556 C194.142571,2.448 194.118571,2.337 194.094571,2.223 C194.070571,2.109 194.058571,2.052 194.058571,2.052 Z M194.238571,2.052 L194.238571,12.852 L192.114571,12.852 L192.114571,2.052 L194.238571,2.052 Z M192.168571,11.718 L192.294571,12.852 L190.926571,12.852 L190.926571,12.672 C190.926571,12.672 190.959571,12.672 191.025571,12.672 C191.091571,12.672 191.130571,12.672 191.142571,12.672 C191.418571,12.672 191.649571,12.579 191.835571,12.393 C192.021571,12.207 192.120571,11.982 192.132571,11.718 L192.168571,11.718 Z M192.168571,3.186 L192.132571,3.186 C192.120571,2.91 192.021571,2.682 191.835571,2.502 C191.649571,2.322 191.424571,2.232 191.160571,2.232 C191.136571,2.232 191.091571,2.232 191.025571,2.232 C190.959571,2.232 190.926571,2.232 190.926571,2.232 L190.926571,2.052 L192.294571,2.052 L192.168571,3.186 Z M194.202571,11.718 L194.238571,11.718 C194.250571,11.994 194.358571,12.222 194.562571,12.402 C194.766571,12.582 194.994571,12.672 195.246571,12.672 C195.246571,12.672 195.276571,12.672 195.336571,12.672 C195.396571,12.672 195.432571,12.672 195.444571,12.672 L195.462571,12.852 L194.076571,12.852 L194.202571,11.718 Z" id="Shape"></path>
                <path d="M211.828571,1.638 L217.030571,12.744 L214.528571,12.744 L211.018571,4.374 L211.828571,1.638 Z M208.408571,11.628 C208.276571,11.964 208.294571,12.222 208.462571,12.402 C208.630571,12.582 208.816571,12.672 209.020571,12.672 L209.164571,12.672 L209.164571,12.852 L205.618571,12.852 L205.618571,12.672 C205.618571,12.672 205.642571,12.672 205.690571,12.672 C205.738571,12.672 205.762571,12.672 205.762571,12.672 C206.014571,12.672 206.272571,12.591 206.536571,12.429 C206.800571,12.267 207.016571,12 207.184571,11.628 L208.408571,11.628 Z M211.828571,1.638 L211.882571,3.492 L207.904571,12.798 L206.644571,12.798 L210.874571,3.708 C210.886571,3.66 210.931571,3.552 211.009571,3.384 C211.087571,3.216 211.174571,3.018 211.270571,2.79 C211.366571,2.562 211.453571,2.343 211.531571,2.133 C211.609571,1.923 211.654571,1.758 211.666571,1.638 L211.828571,1.638 Z M213.574571,9.108 L213.574571,9.756 L208.912571,9.756 L208.912571,9.108 L213.574571,9.108 Z M214.060571,11.628 L216.508571,11.628 C216.676571,12 216.892571,12.267 217.156571,12.429 C217.420571,12.591 217.672571,12.672 217.912571,12.672 C217.912571,12.672 217.936571,12.672 217.984571,12.672 C218.032571,12.672 218.056571,12.672 218.056571,12.672 L218.056571,12.852 L213.304571,12.852 L213.304571,12.672 L213.448571,12.672 C213.652571,12.672 213.838571,12.582 214.006571,12.402 C214.174571,12.222 214.192571,11.964 214.060571,11.628 Z" id="Shape"></path>
                <path d="M226.970571,2.106 L226.970571,12.852 L224.828571,12.852 L224.828571,2.106 L226.970571,2.106 Z M231.020571,2.034 L231.020571,2.7 L220.778571,2.7 L220.778571,2.034 L231.020571,2.034 Z M231.020571,2.646 L231.020571,4.338 L230.822571,4.338 L230.822571,4.122 C230.834571,3.702 230.717571,3.363 230.471571,3.105 C230.225571,2.847 229.880571,2.712 229.436571,2.7 L229.436571,2.646 L231.020571,2.646 Z M231.020571,1.746 L231.020571,2.214 L229.076571,2.034 C229.316571,2.034 229.568571,2.019 229.832571,1.989 C230.096571,1.959 230.339571,1.92 230.561571,1.872 C230.783571,1.824 230.936571,1.782 231.020571,1.746 Z M224.864571,11.718 L224.864571,12.852 L223.622571,12.852 L223.622571,12.672 C223.622571,12.672 223.655571,12.672 223.721571,12.672 C223.787571,12.672 223.820571,12.672 223.820571,12.672 C224.096571,12.672 224.330571,12.579 224.522571,12.393 C224.714571,12.207 224.816571,11.982 224.828571,11.718 L224.864571,11.718 Z M226.898571,11.718 L226.970571,11.718 C226.970571,11.982 227.069571,12.207 227.267571,12.393 C227.465571,12.579 227.702571,12.672 227.978571,12.672 C227.978571,12.672 228.008571,12.672 228.068571,12.672 C228.128571,12.672 228.158571,12.672 228.158571,12.672 L228.158571,12.852 L226.898571,12.852 L226.898571,11.718 Z M222.362571,2.646 L222.362571,2.7 C221.918571,2.712 221.573571,2.847 221.327571,3.105 C221.081571,3.363 220.958571,3.702 220.958571,4.122 L220.958571,4.338 L220.778571,4.338 L220.778571,2.646 L222.362571,2.646 Z M220.778571,1.746 C220.874571,1.782 221.030571,1.824 221.246571,1.872 C221.462571,1.92 221.702571,1.959 221.966571,1.989 C222.230571,2.019 222.476571,2.034 222.704571,2.034 L220.778571,2.214 L220.778571,1.746 Z" id="Shape"></path>
                <path d="M239.502571,2.052 L239.502571,12.852 L237.396571,12.852 L237.396571,2.052 L239.502571,2.052 Z M237.450571,11.718 L237.450571,12.852 L236.064571,12.852 L236.064571,12.672 C236.064571,12.672 236.103571,12.672 236.181571,12.672 C236.259571,12.672 236.298571,12.672 236.298571,12.672 C236.598571,12.672 236.856571,12.579 237.072571,12.393 C237.288571,12.207 237.396571,11.982 237.396571,11.718 L237.450571,11.718 Z M239.448571,11.718 L239.502571,11.718 C239.514571,11.982 239.625571,12.207 239.835571,12.393 C240.045571,12.579 240.306571,12.672 240.618571,12.672 C240.618571,12.672 240.651571,12.672 240.717571,12.672 C240.783571,12.672 240.822571,12.672 240.834571,12.672 L240.834571,12.852 L239.448571,12.852 L239.448571,11.718 Z M239.448571,3.186 L239.448571,2.052 L240.834571,2.052 L240.816571,2.232 C240.816571,2.232 240.783571,2.232 240.717571,2.232 C240.651571,2.232 240.618571,2.232 240.618571,2.232 C240.306571,2.232 240.045571,2.322 239.835571,2.502 C239.625571,2.682 239.514571,2.91 239.502571,3.186 L239.448571,3.186 Z M237.450571,3.186 L237.396571,3.186 C237.396571,2.91 237.288571,2.682 237.072571,2.502 C236.856571,2.322 236.598571,2.232 236.298571,2.232 C236.286571,2.232 236.244571,2.232 236.172571,2.232 C236.100571,2.232 236.064571,2.232 236.064571,2.232 L236.064571,2.052 L237.450571,2.052 L237.450571,3.186 Z" id="Shape"></path>
                <path d="M252.358571,1.818 C253.270571,1.818 254.110571,1.95 254.878571,2.214 C255.646571,2.478 256.312571,2.856 256.876571,3.348 C257.440571,3.84 257.875571,4.431 258.181571,5.121 C258.487571,5.811 258.640571,6.588 258.640571,7.452 C258.640571,8.316 258.487571,9.093 258.181571,9.783 C257.875571,10.473 257.440571,11.064 256.876571,11.556 C256.312571,12.048 255.646571,12.426 254.878571,12.69 C254.110571,12.954 253.270571,13.086 252.358571,13.086 C251.446571,13.086 250.606571,12.954 249.838571,12.69 C249.070571,12.426 248.407571,12.048 247.849571,11.556 C247.291571,11.064 246.859571,10.473 246.553571,9.783 C246.247571,9.093 246.094571,8.316 246.094571,7.452 C246.094571,6.588 246.247571,5.811 246.553571,5.121 C246.859571,4.431 247.291571,3.84 247.849571,3.348 C248.407571,2.856 249.070571,2.478 249.838571,2.214 C250.606571,1.95 251.446571,1.818 252.358571,1.818 Z M252.358571,12.438 C253.138571,12.438 253.828571,12.234 254.428571,11.826 C255.028571,11.418 255.499571,10.839 255.841571,10.089 C256.183571,9.339 256.354571,8.46 256.354571,7.452 C256.354571,6.432 256.183571,5.55 255.841571,4.806 C255.499571,4.062 255.028571,3.486 254.428571,3.078 C253.828571,2.67 253.138571,2.466 252.358571,2.466 C251.578571,2.466 250.888571,2.67 250.288571,3.078 C249.688571,3.486 249.220571,4.062 248.884571,4.806 C248.548571,5.55 248.380571,6.432 248.380571,7.452 C248.380571,8.46 248.548571,9.339 248.884571,10.089 C249.220571,10.839 249.688571,11.418 250.288571,11.826 C250.888571,12.234 251.578571,12.438 252.358571,12.438 Z" id="Shape"></path>
                <path d="M264.944571,1.8 L275.312571,11.124 L275.492571,13.086 L265.124571,3.744 L264.944571,1.8 Z M264.998571,11.754 L264.998571,12.852 L263.666571,12.852 L263.666571,12.672 C263.666571,12.672 263.714571,12.672 263.810571,12.672 C263.906571,12.672 263.954571,12.672 263.954571,12.672 C264.230571,12.672 264.464571,12.585 264.656571,12.411 C264.848571,12.237 264.944571,12.018 264.944571,11.754 L264.998571,11.754 Z M266.852571,11.754 C266.864571,12.018 266.969571,12.237 267.167571,12.411 C267.365571,12.585 267.590571,12.672 267.842571,12.672 C267.842571,12.672 267.893571,12.672 267.995571,12.672 C268.097571,12.672 268.148571,12.672 268.148571,12.672 L268.148571,12.852 L266.816571,12.852 L266.816571,11.754 L266.852571,11.754 Z M264.944571,1.8 L266.852571,3.942 L266.852571,12.852 L264.944571,12.852 L264.944571,3.906 C264.944571,3.294 264.914571,2.79 264.854571,2.394 C264.794571,1.998 264.764571,1.8 264.764571,1.8 L264.944571,1.8 Z M275.474571,2.052 L275.474571,10.926 C275.474571,11.334 275.489571,11.7 275.519571,12.024 C275.549571,12.348 275.579571,12.606 275.609571,12.798 C275.639571,12.99 275.654571,13.086 275.654571,13.086 L275.492571,13.086 L273.566571,10.854 L273.566571,2.052 L275.474571,2.052 Z M275.420571,3.15 L275.420571,2.052 L276.770571,2.052 L276.770571,2.232 C276.770571,2.232 276.719571,2.232 276.617571,2.232 C276.515571,2.232 276.464571,2.232 276.464571,2.232 C276.200571,2.232 275.969571,2.319 275.771571,2.493 C275.573571,2.667 275.474571,2.886 275.474571,3.15 L275.420571,3.15 Z M273.566571,3.15 C273.554571,2.886 273.452571,2.667 273.260571,2.493 C273.068571,2.319 272.840571,2.232 272.576571,2.232 C272.576571,2.232 272.525571,2.232 272.423571,2.232 C272.321571,2.232 272.270571,2.232 272.270571,2.232 L272.270571,2.052 L273.602571,2.052 L273.602571,3.15 L273.566571,3.15 Z" id="Shape"></path>
            </g>
            <g id="Summit-Anesthesia" transform="translate(0.000000, 99.844000)" fill="#000000" fill-rule="nonzero">
                <path d="M9.036,0.168 C9.568,0.168 10.198,0.196 10.926,0.252 C11.654,0.308 12.389,0.385 13.131,0.483 C13.873,0.581 14.538,0.679 15.126,0.777 C15.714,0.875 16.12,0.98 16.344,1.092 L16.008,6.426 L15.588,6.426 C15.588,4.998 15.077,3.864 14.055,3.024 C13.033,2.184 11.71,1.764 10.086,1.764 C8.462,1.764 7.167,2.184 6.201,3.024 C5.235,3.864 4.738,4.886 4.71,6.09 C4.654,6.79 4.857,7.469 5.319,8.127 C5.781,8.785 6.404,9.394 7.188,9.954 L15.294,15.96 C16.442,16.716 17.282,17.633 17.814,18.711 C18.346,19.789 18.584,21 18.528,22.344 C18.444,24.92 17.513,26.964 15.735,28.476 C13.957,29.988 11.542,30.744 8.49,30.744 C7.454,30.744 6.397,30.653 5.319,30.471 C4.241,30.289 3.254,30.009 2.358,29.631 C1.462,29.253 0.748,28.798 0.216,28.266 C0.048,27.706 -0.022,27.027 0.006,26.229 C0.034,25.431 0.146,24.605 0.342,23.751 C0.538,22.897 0.776,22.176 1.056,21.588 L1.434,21.588 C1.322,23.016 1.56,24.311 2.148,25.473 C2.736,26.635 3.597,27.545 4.731,28.203 C5.865,28.861 7.202,29.176 8.742,29.148 C10.478,29.092 11.871,28.602 12.921,27.678 C13.971,26.754 14.496,25.564 14.496,24.108 C14.496,23.268 14.272,22.505 13.824,21.819 C13.376,21.133 12.676,20.51 11.724,19.95 L4.122,14.196 C2.834,13.356 1.917,12.341 1.371,11.151 C0.825,9.961 0.594,8.722 0.678,7.434 C0.762,6.09 1.14,4.865 1.812,3.759 C2.484,2.653 3.429,1.778 4.647,1.134 C5.865,0.49 7.328,0.168 9.036,0.168 Z M16.386,0.588 L16.344,1.47 L11.976,1.47 L11.976,0.588 L16.386,0.588 Z" id="Shape"></path>
                <path d="M29.448,4.956 L29.448,20.832 C29.448,23.436 30.078,25.487 31.338,26.985 C32.598,28.483 34.334,29.232 36.546,29.232 C38.898,29.232 40.739,28.525 42.069,27.111 C43.399,25.697 44.064,23.758 44.064,21.294 L44.064,4.956 L46.542,4.956 L46.542,21.084 C46.542,24.08 45.625,26.432 43.791,28.14 C41.957,29.848 39.374,30.702 36.042,30.702 C32.262,30.702 29.392,29.855 27.432,28.161 C25.472,26.467 24.492,24.136 24.492,21.168 L24.492,4.956 L29.448,4.956 Z M24.576,4.956 L24.576,7.14 L24.492,7.14 C24.464,6.636 24.268,6.209 23.904,5.859 C23.54,5.509 23.092,5.334 22.56,5.334 C22.56,5.334 22.455,5.334 22.245,5.334 C22.035,5.334 21.93,5.334 21.93,5.334 L21.93,4.956 L24.576,4.956 Z M31.968,4.956 L31.968,5.334 C31.968,5.334 31.863,5.334 31.653,5.334 C31.443,5.334 31.338,5.334 31.338,5.334 C30.834,5.334 30.393,5.509 30.015,5.859 C29.637,6.209 29.448,6.636 29.448,7.14 L29.364,7.14 L29.364,4.956 L31.968,4.956 Z M44.148,4.956 L44.148,7.14 L44.064,7.14 C44.064,6.636 43.875,6.209 43.497,5.859 C43.119,5.509 42.664,5.334 42.132,5.334 C42.132,5.334 42.027,5.334 41.817,5.334 C41.607,5.334 41.502,5.334 41.502,5.334 L41.502,4.956 L44.148,4.956 Z M49.104,4.956 L49.104,5.334 C49.104,5.334 49.006,5.334 48.81,5.334 C48.614,5.334 48.516,5.334 48.516,5.334 C47.984,5.334 47.529,5.509 47.151,5.859 C46.773,6.209 46.57,6.636 46.542,7.14 L46.458,7.14 L46.458,4.956 L49.104,4.956 Z" id="Shape"></path>
                <path d="M79.638,4.41 L80.016,8.19 L69.222,26.628 C69.222,26.628 69.103,26.852 68.865,27.3 C68.627,27.748 68.389,28.301 68.151,28.959 C67.913,29.617 67.766,30.254 67.71,30.87 L67.332,30.87 L66.03,27.72 L79.638,4.41 Z M54.228,27.426 L54.228,30.156 L50.028,30.156 L50.028,29.736 C50.028,29.736 50.126,29.736 50.322,29.736 C50.518,29.736 50.616,29.736 50.616,29.736 C51.316,29.736 51.932,29.533 52.464,29.127 C52.996,28.721 53.318,28.154 53.43,27.426 L54.228,27.426 Z M55.866,28.056 C55.838,28.392 55.936,28.756 56.16,29.148 C56.384,29.54 56.79,29.75 57.378,29.778 L57.966,29.778 L57.966,30.156 L55.488,30.156 L55.656,28.056 L55.866,28.056 Z M56.706,4.41 L57.042,4.41 L58.302,7.938 L55.656,30.156 L53.052,30.156 L56.706,4.41 Z M57.042,4.41 L69.18,24.108 L67.332,30.87 L56.118,12.348 L57.042,4.41 Z M80.016,4.41 L83.796,30.156 L78.42,30.156 L76.11,12.894 L79.638,4.41 L80.016,4.41 Z M82.536,27.426 L83.376,27.426 C83.488,28.154 83.81,28.721 84.342,29.127 C84.874,29.533 85.476,29.736 86.148,29.736 C86.148,29.736 86.253,29.736 86.463,29.736 C86.673,29.736 86.778,29.736 86.778,29.736 L86.778,30.156 L82.536,30.156 L82.536,27.426 Z M78.126,28.056 L78.378,28.056 L78.546,30.156 L76.068,30.156 L76.068,29.778 L76.656,29.778 C77.3,29.75 77.72,29.54 77.916,29.148 C78.112,28.756 78.182,28.392 78.126,28.056 Z" id="Shape"></path>
                <path d="M116.094,4.41 L116.472,8.19 L105.678,26.628 C105.678,26.628 105.559,26.852 105.321,27.3 C105.083,27.748 104.845,28.301 104.607,28.959 C104.369,29.617 104.222,30.254 104.166,30.87 L103.788,30.87 L102.486,27.72 L116.094,4.41 Z M90.684,27.426 L90.684,30.156 L86.484,30.156 L86.484,29.736 C86.484,29.736 86.582,29.736 86.778,29.736 C86.974,29.736 87.072,29.736 87.072,29.736 C87.772,29.736 88.388,29.533 88.92,29.127 C89.452,28.721 89.774,28.154 89.886,27.426 L90.684,27.426 Z M92.322,28.056 C92.294,28.392 92.392,28.756 92.616,29.148 C92.84,29.54 93.246,29.75 93.834,29.778 L94.422,29.778 L94.422,30.156 L91.944,30.156 L92.112,28.056 L92.322,28.056 Z M93.162,4.41 L93.498,4.41 L94.758,7.938 L92.112,30.156 L89.508,30.156 L93.162,4.41 Z M93.498,4.41 L105.636,24.108 L103.788,30.87 L92.574,12.348 L93.498,4.41 Z M116.472,4.41 L120.252,30.156 L114.876,30.156 L112.566,12.894 L116.094,4.41 L116.472,4.41 Z M118.992,27.426 L119.832,27.426 C119.944,28.154 120.266,28.721 120.798,29.127 C121.33,29.533 121.932,29.736 122.604,29.736 C122.604,29.736 122.709,29.736 122.919,29.736 C123.129,29.736 123.234,29.736 123.234,29.736 L123.234,30.156 L118.992,30.156 L118.992,27.426 Z M114.582,28.056 L114.834,28.056 L115.002,30.156 L112.524,30.156 L112.524,29.778 L113.112,29.778 C113.756,29.75 114.176,29.54 114.372,29.148 C114.568,28.756 114.638,28.392 114.582,28.056 Z" id="Shape"></path>
                <path d="M132.81,4.956 L132.81,30.156 L127.896,30.156 L127.896,4.956 L132.81,4.956 Z M128.022,27.51 L128.022,30.156 L124.788,30.156 L124.788,29.736 C124.788,29.736 124.879,29.736 125.061,29.736 C125.243,29.736 125.334,29.736 125.334,29.736 C126.034,29.736 126.636,29.519 127.14,29.085 C127.644,28.651 127.896,28.126 127.896,27.51 L128.022,27.51 Z M132.684,27.51 L132.81,27.51 C132.838,28.126 133.097,28.651 133.587,29.085 C134.077,29.519 134.686,29.736 135.414,29.736 C135.414,29.736 135.491,29.736 135.645,29.736 C135.799,29.736 135.89,29.736 135.918,29.736 L135.918,30.156 L132.684,30.156 L132.684,27.51 Z M132.684,7.602 L132.684,4.956 L135.918,4.956 L135.876,5.376 C135.876,5.376 135.799,5.376 135.645,5.376 C135.491,5.376 135.414,5.376 135.414,5.376 C134.686,5.376 134.077,5.586 133.587,6.006 C133.097,6.426 132.838,6.958 132.81,7.602 L132.684,7.602 Z M128.022,7.602 L127.896,7.602 C127.896,6.958 127.644,6.426 127.14,6.006 C126.636,5.586 126.034,5.376 125.334,5.376 C125.306,5.376 125.208,5.376 125.04,5.376 C124.872,5.376 124.788,5.376 124.788,5.376 L124.788,4.956 L128.022,4.956 L128.022,7.602 Z" id="Shape"></path>
                <path d="M152.592,5.082 L152.592,30.156 L147.594,30.156 L147.594,5.082 L152.592,5.082 Z M162.042,4.914 L162.042,6.468 L138.144,6.468 L138.144,4.914 L162.042,4.914 Z M162.042,6.342 L162.042,10.29 L161.58,10.29 L161.58,9.786 C161.608,8.806 161.335,8.015 160.761,7.413 C160.187,6.811 159.382,6.496 158.346,6.468 L158.346,6.342 L162.042,6.342 Z M162.042,4.242 L162.042,5.334 L157.506,4.914 C158.066,4.914 158.654,4.879 159.27,4.809 C159.886,4.739 160.453,4.648 160.971,4.536 C161.489,4.424 161.846,4.326 162.042,4.242 Z M147.678,27.51 L147.678,30.156 L144.78,30.156 L144.78,29.736 C144.78,29.736 144.857,29.736 145.011,29.736 C145.165,29.736 145.242,29.736 145.242,29.736 C145.886,29.736 146.432,29.519 146.88,29.085 C147.328,28.651 147.566,28.126 147.594,27.51 L147.678,27.51 Z M152.424,27.51 L152.592,27.51 C152.592,28.126 152.823,28.651 153.285,29.085 C153.747,29.519 154.3,29.736 154.944,29.736 C154.944,29.736 155.014,29.736 155.154,29.736 C155.294,29.736 155.364,29.736 155.364,29.736 L155.364,30.156 L152.424,30.156 L152.424,27.51 Z M141.84,6.342 L141.84,6.468 C140.804,6.496 139.999,6.811 139.425,7.413 C138.851,8.015 138.564,8.806 138.564,9.786 L138.564,10.29 L138.144,10.29 L138.144,6.342 L141.84,6.342 Z M138.144,4.242 C138.368,4.326 138.732,4.424 139.236,4.536 C139.74,4.648 140.3,4.739 140.916,4.809 C141.532,4.879 142.106,4.914 142.638,4.914 L138.144,5.334 L138.144,4.242 Z" id="Shape"></path>
                <path d="M187.956,0 L201.228,29.904 L195.012,29.904 L185.982,6.72 L187.956,0 Z M178.926,27.09 C178.702,27.65 178.66,28.126 178.8,28.518 C178.94,28.91 179.178,29.211 179.514,29.421 C179.85,29.631 180.186,29.736 180.522,29.736 L180.9,29.736 L180.9,30.156 L172.08,30.156 L172.08,29.736 C172.08,29.736 172.143,29.736 172.269,29.736 C172.395,29.736 172.458,29.736 172.458,29.736 C173.102,29.736 173.767,29.533 174.453,29.127 C175.139,28.721 175.706,28.042 176.154,27.09 L178.926,27.09 Z M187.956,0 L188.166,4.41 L177.708,30.03 L174.852,30.03 L185.688,5.124 C185.744,5.012 185.863,4.739 186.045,4.305 C186.227,3.871 186.437,3.374 186.675,2.814 C186.913,2.254 187.116,1.715 187.284,1.197 C187.452,0.679 187.55,0.28 187.578,0 L187.956,0 Z M192.87,19.656 L192.87,21.252 L180.228,21.252 L180.228,19.656 L192.87,19.656 Z M193.92,27.09 L199.968,27.09 C200.416,28.042 200.983,28.721 201.669,29.127 C202.355,29.533 203.02,29.736 203.664,29.736 C203.664,29.736 203.72,29.736 203.832,29.736 C203.944,29.736 204,29.736 204,29.736 L204,30.156 L191.946,30.156 L191.946,29.736 L192.324,29.736 C192.856,29.736 193.332,29.505 193.752,29.043 C194.172,28.581 194.228,27.93 193.92,27.09 Z" id="Shape"></path>
                <path d="M207.108,4.368 L231.3,26.124 L231.72,30.702 L207.528,8.904 L207.108,4.368 Z M207.234,27.594 L207.234,30.156 L204.126,30.156 L204.126,29.736 C204.126,29.736 204.238,29.736 204.462,29.736 C204.686,29.736 204.798,29.736 204.798,29.736 C205.442,29.736 205.988,29.533 206.436,29.127 C206.884,28.721 207.108,28.21 207.108,27.594 L207.234,27.594 Z M211.56,27.594 C211.588,28.21 211.833,28.721 212.295,29.127 C212.757,29.533 213.282,29.736 213.87,29.736 C213.87,29.736 213.989,29.736 214.227,29.736 C214.465,29.736 214.584,29.736 214.584,29.736 L214.584,30.156 L211.476,30.156 L211.476,27.594 L211.56,27.594 Z M207.108,4.368 L211.56,9.366 L211.56,30.156 L207.108,30.156 L207.108,9.282 C207.108,7.854 207.038,6.678 206.898,5.754 C206.758,4.83 206.688,4.368 206.688,4.368 L207.108,4.368 Z M231.678,4.956 L231.678,25.662 C231.678,26.614 231.713,27.468 231.783,28.224 C231.853,28.98 231.923,29.582 231.993,30.03 C232.063,30.478 232.098,30.702 232.098,30.702 L231.72,30.702 L227.226,25.494 L227.226,4.956 L231.678,4.956 Z M231.552,7.518 L231.552,4.956 L234.702,4.956 L234.702,5.376 C234.702,5.376 234.583,5.376 234.345,5.376 C234.107,5.376 233.988,5.376 233.988,5.376 C233.372,5.376 232.833,5.579 232.371,5.985 C231.909,6.391 231.678,6.902 231.678,7.518 L231.552,7.518 Z M227.226,7.518 C227.198,6.902 226.96,6.391 226.512,5.985 C226.064,5.579 225.532,5.376 224.916,5.376 C224.916,5.376 224.797,5.376 224.559,5.376 C224.321,5.376 224.202,5.376 224.202,5.376 L224.202,4.956 L227.31,4.956 L227.31,7.518 L227.226,7.518 Z" id="Shape"></path>
                <path d="M245.286,4.956 L245.286,30.156 L240.372,30.156 L240.372,4.956 L245.286,4.956 Z M255.618,28.602 L256.248,30.156 L245.202,30.156 L245.202,28.602 L255.618,28.602 Z M253.98,16.842 L253.98,18.396 L245.202,18.396 L245.202,16.842 L253.98,16.842 Z M255.912,4.956 L255.912,6.51 L245.202,6.51 L245.202,4.956 L255.912,4.956 Z M258.18,23.016 L256.332,30.156 L249.36,30.156 L250.704,28.602 C251.992,28.602 253.091,28.371 254.001,27.909 C254.911,27.447 255.674,26.796 256.29,25.956 C256.906,25.116 257.41,24.136 257.802,23.016 L258.18,23.016 Z M253.98,18.312 L253.98,21.588 L253.56,21.588 L253.56,21.21 C253.56,20.426 253.322,19.768 252.846,19.236 C252.37,18.704 251.698,18.424 250.83,18.396 L250.83,18.312 L253.98,18.312 Z M253.98,13.692 L253.98,16.926 L250.83,16.926 L250.83,16.842 C251.698,16.842 252.37,16.576 252.846,16.044 C253.322,15.512 253.56,14.854 253.56,14.07 L253.56,13.692 L253.98,13.692 Z M255.912,6.384 L255.912,10.332 L255.45,10.332 L255.45,9.87 C255.45,8.862 255.17,8.05 254.61,7.434 C254.05,6.818 253.252,6.51 252.216,6.51 L252.216,6.384 L255.912,6.384 Z M255.912,4.284 L255.912,5.376 L251.376,4.956 C252.188,4.956 253.056,4.879 253.98,4.725 C254.904,4.571 255.548,4.424 255.912,4.284 Z M240.456,27.51 L240.75,30.156 L237.474,30.156 L237.474,29.736 C237.474,29.736 237.565,29.736 237.747,29.736 C237.929,29.736 238.02,29.736 238.02,29.736 C238.664,29.736 239.21,29.519 239.658,29.085 C240.106,28.651 240.344,28.126 240.372,27.51 L240.456,27.51 Z M240.456,7.602 L240.372,7.602 C240.344,6.958 240.106,6.426 239.658,6.006 C239.21,5.586 238.664,5.376 238.02,5.376 C238.02,5.376 237.929,5.376 237.747,5.376 C237.565,5.376 237.474,5.376 237.474,5.376 L237.474,4.956 L240.75,4.956 L240.456,7.602 Z" id="Shape"></path>
                <path d="M269.142,4.41 C269.786,4.41 270.465,4.431 271.179,4.473 C271.893,4.515 272.586,4.578 273.258,4.662 C273.93,4.746 274.525,4.837 275.043,4.935 C275.561,5.033 275.918,5.124 276.114,5.208 L275.778,9.996 L275.4,9.996 C275.4,8.764 274.966,7.784 274.098,7.056 C273.23,6.328 271.956,5.964 270.276,5.964 C268.932,5.964 267.812,6.293 266.916,6.951 C266.02,7.609 265.558,8.442 265.53,9.45 C265.53,9.926 265.621,10.353 265.803,10.731 C265.985,11.109 266.258,11.466 266.622,11.802 C266.986,12.138 267.42,12.46 267.924,12.768 L275.148,17.682 C276.1,18.242 276.842,19.019 277.374,20.013 C277.906,21.007 278.158,22.134 278.13,23.394 C278.074,24.85 277.661,26.131 276.891,27.237 C276.121,28.343 275.064,29.197 273.72,29.799 C272.376,30.401 270.822,30.702 269.058,30.702 C267.994,30.702 266.958,30.618 265.95,30.45 C264.942,30.282 264.06,30.037 263.304,29.715 C262.548,29.393 261.932,29.008 261.456,28.56 C261.288,28.056 261.218,27.44 261.246,26.712 C261.274,25.984 261.379,25.242 261.561,24.486 C261.743,23.73 261.96,23.086 262.212,22.554 L262.632,22.554 C262.548,23.814 262.765,24.948 263.283,25.956 C263.801,26.964 264.571,27.755 265.593,28.329 C266.615,28.903 267.826,29.19 269.226,29.19 C270.878,29.162 272.138,28.763 273.006,27.993 C273.874,27.223 274.308,26.264 274.308,25.116 C274.308,24.388 274.105,23.73 273.699,23.142 C273.293,22.554 272.628,21.994 271.704,21.462 L264.942,16.758 C263.738,16.058 262.884,15.169 262.38,14.091 C261.876,13.013 261.68,11.872 261.792,10.668 C261.876,9.408 262.24,8.309 262.884,7.371 C263.528,6.433 264.389,5.705 265.467,5.187 C266.545,4.669 267.77,4.41 269.142,4.41 Z M276.156,4.788 L276.114,5.502 L272.124,5.502 L272.124,4.788 L276.156,4.788 Z" id="Shape"></path>
                <path d="M295.014,5.082 L295.014,30.156 L290.016,30.156 L290.016,5.082 L295.014,5.082 Z M304.464,4.914 L304.464,6.468 L280.566,6.468 L280.566,4.914 L304.464,4.914 Z M304.464,6.342 L304.464,10.29 L304.002,10.29 L304.002,9.786 C304.03,8.806 303.757,8.015 303.183,7.413 C302.609,6.811 301.804,6.496 300.768,6.468 L300.768,6.342 L304.464,6.342 Z M304.464,4.242 L304.464,5.334 L299.928,4.914 C300.488,4.914 301.076,4.879 301.692,4.809 C302.308,4.739 302.875,4.648 303.393,4.536 C303.911,4.424 304.268,4.326 304.464,4.242 Z M290.1,27.51 L290.1,30.156 L287.202,30.156 L287.202,29.736 C287.202,29.736 287.279,29.736 287.433,29.736 C287.587,29.736 287.664,29.736 287.664,29.736 C288.308,29.736 288.854,29.519 289.302,29.085 C289.75,28.651 289.988,28.126 290.016,27.51 L290.1,27.51 Z M294.846,27.51 L295.014,27.51 C295.014,28.126 295.245,28.651 295.707,29.085 C296.169,29.519 296.722,29.736 297.366,29.736 C297.366,29.736 297.436,29.736 297.576,29.736 C297.716,29.736 297.786,29.736 297.786,29.736 L297.786,30.156 L294.846,30.156 L294.846,27.51 Z M284.262,6.342 L284.262,6.468 C283.226,6.496 282.421,6.811 281.847,7.413 C281.273,8.015 280.986,8.806 280.986,9.786 L280.986,10.29 L280.566,10.29 L280.566,6.342 L284.262,6.342 Z M280.566,4.242 C280.79,4.326 281.154,4.424 281.658,4.536 C282.162,4.648 282.722,4.739 283.338,4.809 C283.954,4.879 284.528,4.914 285.06,4.914 L280.566,5.334 L280.566,4.242 Z" id="Shape"></path>
                <path d="M331.848,4.956 L331.848,30.156 L326.934,30.156 L326.934,4.956 L331.848,4.956 Z M314.418,4.956 L314.418,30.156 L309.462,30.156 L309.462,4.956 L314.418,4.956 Z M327.312,16.884 L327.312,18.396 L313.998,18.396 L313.998,16.884 L327.312,16.884 Z M309.588,27.51 L309.588,30.156 L306.648,30.156 L306.648,29.736 C306.648,29.736 306.725,29.736 306.879,29.736 C307.033,29.736 307.124,29.736 307.152,29.736 C307.796,29.736 308.342,29.519 308.79,29.085 C309.238,28.651 309.462,28.126 309.462,27.51 L309.588,27.51 Z M314.292,27.51 L314.418,27.51 C314.418,28.126 314.649,28.651 315.111,29.085 C315.573,29.519 316.126,29.736 316.77,29.736 C316.77,29.736 316.847,29.736 317.001,29.736 C317.155,29.736 317.232,29.736 317.232,29.736 L317.232,30.156 L314.292,30.156 L314.292,27.51 Z M314.292,7.602 L314.292,4.956 L317.232,4.956 L317.232,5.376 C317.232,5.376 317.155,5.376 317.001,5.376 C316.847,5.376 316.77,5.376 316.77,5.376 C316.126,5.376 315.573,5.586 315.111,6.006 C314.649,6.426 314.418,6.958 314.418,7.602 L314.292,7.602 Z M309.588,7.602 L309.462,7.602 C309.462,6.958 309.238,6.426 308.79,6.006 C308.342,5.586 307.796,5.376 307.152,5.376 C307.124,5.376 307.033,5.376 306.879,5.376 C306.725,5.376 306.648,5.376 306.648,5.376 L306.648,4.956 L309.588,4.956 L309.588,7.602 Z M327.06,27.51 L327.06,30.156 L324.12,30.156 L324.12,29.736 C324.12,29.736 324.197,29.736 324.351,29.736 C324.505,29.736 324.582,29.736 324.582,29.736 C325.254,29.736 325.807,29.519 326.241,29.085 C326.675,28.651 326.906,28.126 326.934,27.51 L327.06,27.51 Z M331.722,27.51 L331.848,27.51 C331.876,28.126 332.114,28.651 332.562,29.085 C333.01,29.519 333.556,29.736 334.2,29.736 C334.2,29.736 334.284,29.736 334.452,29.736 C334.62,29.736 334.704,29.736 334.704,29.736 L334.704,30.156 L331.722,30.156 L331.722,27.51 Z M331.764,7.602 L331.764,4.956 L334.704,4.956 L334.704,5.376 C334.704,5.376 334.62,5.376 334.452,5.376 C334.284,5.376 334.2,5.376 334.2,5.376 C333.556,5.376 333.01,5.586 332.562,6.006 C332.114,6.426 331.89,6.958 331.89,7.602 L331.764,7.602 Z M327.06,7.602 L326.934,7.602 C326.906,6.958 326.675,6.426 326.241,6.006 C325.807,5.586 325.254,5.376 324.582,5.376 C324.582,5.376 324.505,5.376 324.351,5.376 C324.197,5.376 324.12,5.376 324.12,5.376 L324.12,4.956 L327.06,4.956 L327.06,7.602 Z" id="Shape"></path>
                <path d="M345.918,4.956 L345.918,30.156 L341.004,30.156 L341.004,4.956 L345.918,4.956 Z M356.25,28.602 L356.88,30.156 L345.834,30.156 L345.834,28.602 L356.25,28.602 Z M354.612,16.842 L354.612,18.396 L345.834,18.396 L345.834,16.842 L354.612,16.842 Z M356.544,4.956 L356.544,6.51 L345.834,6.51 L345.834,4.956 L356.544,4.956 Z M358.812,23.016 L356.964,30.156 L349.992,30.156 L351.336,28.602 C352.624,28.602 353.723,28.371 354.633,27.909 C355.543,27.447 356.306,26.796 356.922,25.956 C357.538,25.116 358.042,24.136 358.434,23.016 L358.812,23.016 Z M354.612,18.312 L354.612,21.588 L354.192,21.588 L354.192,21.21 C354.192,20.426 353.954,19.768 353.478,19.236 C353.002,18.704 352.33,18.424 351.462,18.396 L351.462,18.312 L354.612,18.312 Z M354.612,13.692 L354.612,16.926 L351.462,16.926 L351.462,16.842 C352.33,16.842 353.002,16.576 353.478,16.044 C353.954,15.512 354.192,14.854 354.192,14.07 L354.192,13.692 L354.612,13.692 Z M356.544,6.384 L356.544,10.332 L356.082,10.332 L356.082,9.87 C356.082,8.862 355.802,8.05 355.242,7.434 C354.682,6.818 353.884,6.51 352.848,6.51 L352.848,6.384 L356.544,6.384 Z M356.544,4.284 L356.544,5.376 L352.008,4.956 C352.82,4.956 353.688,4.879 354.612,4.725 C355.536,4.571 356.18,4.424 356.544,4.284 Z M341.088,27.51 L341.382,30.156 L338.106,30.156 L338.106,29.736 C338.106,29.736 338.197,29.736 338.379,29.736 C338.561,29.736 338.652,29.736 338.652,29.736 C339.296,29.736 339.842,29.519 340.29,29.085 C340.738,28.651 340.976,28.126 341.004,27.51 L341.088,27.51 Z M341.088,7.602 L341.004,7.602 C340.976,6.958 340.738,6.426 340.29,6.006 C339.842,5.586 339.296,5.376 338.652,5.376 C338.652,5.376 338.561,5.376 338.379,5.376 C338.197,5.376 338.106,5.376 338.106,5.376 L338.106,4.956 L341.382,4.956 L341.088,7.602 Z" id="Shape"></path>
                <path d="M369.774,4.41 C370.418,4.41 371.097,4.431 371.811,4.473 C372.525,4.515 373.218,4.578 373.89,4.662 C374.562,4.746 375.157,4.837 375.675,4.935 C376.193,5.033 376.55,5.124 376.746,5.208 L376.41,9.996 L376.032,9.996 C376.032,8.764 375.598,7.784 374.73,7.056 C373.862,6.328 372.588,5.964 370.908,5.964 C369.564,5.964 368.444,6.293 367.548,6.951 C366.652,7.609 366.19,8.442 366.162,9.45 C366.162,9.926 366.253,10.353 366.435,10.731 C366.617,11.109 366.89,11.466 367.254,11.802 C367.618,12.138 368.052,12.46 368.556,12.768 L375.78,17.682 C376.732,18.242 377.474,19.019 378.006,20.013 C378.538,21.007 378.79,22.134 378.762,23.394 C378.706,24.85 378.293,26.131 377.523,27.237 C376.753,28.343 375.696,29.197 374.352,29.799 C373.008,30.401 371.454,30.702 369.69,30.702 C368.626,30.702 367.59,30.618 366.582,30.45 C365.574,30.282 364.692,30.037 363.936,29.715 C363.18,29.393 362.564,29.008 362.088,28.56 C361.92,28.056 361.85,27.44 361.878,26.712 C361.906,25.984 362.011,25.242 362.193,24.486 C362.375,23.73 362.592,23.086 362.844,22.554 L363.264,22.554 C363.18,23.814 363.397,24.948 363.915,25.956 C364.433,26.964 365.203,27.755 366.225,28.329 C367.247,28.903 368.458,29.19 369.858,29.19 C371.51,29.162 372.77,28.763 373.638,27.993 C374.506,27.223 374.94,26.264 374.94,25.116 C374.94,24.388 374.737,23.73 374.331,23.142 C373.925,22.554 373.26,21.994 372.336,21.462 L365.574,16.758 C364.37,16.058 363.516,15.169 363.012,14.091 C362.508,13.013 362.312,11.872 362.424,10.668 C362.508,9.408 362.872,8.309 363.516,7.371 C364.16,6.433 365.021,5.705 366.099,5.187 C367.177,4.669 368.402,4.41 369.774,4.41 Z M376.788,4.788 L376.746,5.502 L372.756,5.502 L372.756,4.788 L376.788,4.788 Z" id="Shape"></path>
                <path d="M390.438,4.956 L390.438,30.156 L385.524,30.156 L385.524,4.956 L390.438,4.956 Z M385.65,27.51 L385.65,30.156 L382.416,30.156 L382.416,29.736 C382.416,29.736 382.507,29.736 382.689,29.736 C382.871,29.736 382.962,29.736 382.962,29.736 C383.662,29.736 384.264,29.519 384.768,29.085 C385.272,28.651 385.524,28.126 385.524,27.51 L385.65,27.51 Z M390.312,27.51 L390.438,27.51 C390.466,28.126 390.725,28.651 391.215,29.085 C391.705,29.519 392.314,29.736 393.042,29.736 C393.042,29.736 393.119,29.736 393.273,29.736 C393.427,29.736 393.518,29.736 393.546,29.736 L393.546,30.156 L390.312,30.156 L390.312,27.51 Z M390.312,7.602 L390.312,4.956 L393.546,4.956 L393.504,5.376 C393.504,5.376 393.427,5.376 393.273,5.376 C393.119,5.376 393.042,5.376 393.042,5.376 C392.314,5.376 391.705,5.586 391.215,6.006 C390.725,6.426 390.466,6.958 390.438,7.602 L390.312,7.602 Z M385.65,7.602 L385.524,7.602 C385.524,6.958 385.272,6.426 384.768,6.006 C384.264,5.586 383.662,5.376 382.962,5.376 C382.934,5.376 382.836,5.376 382.668,5.376 C382.5,5.376 382.416,5.376 382.416,5.376 L382.416,4.956 L385.65,4.956 L385.65,7.602 Z" id="Shape"></path>
                <path d="M408.918,3.99 L421.056,29.904 L415.218,29.904 L407.028,10.374 L408.918,3.99 Z M400.938,27.3 C400.63,28.084 400.672,28.686 401.064,29.106 C401.456,29.526 401.89,29.736 402.366,29.736 L402.702,29.736 L402.702,30.156 L394.428,30.156 L394.428,29.736 C394.428,29.736 394.484,29.736 394.596,29.736 C394.708,29.736 394.764,29.736 394.764,29.736 C395.352,29.736 395.954,29.547 396.57,29.169 C397.186,28.791 397.69,28.168 398.082,27.3 L400.938,27.3 Z M408.918,3.99 L409.044,8.316 L399.762,30.03 L396.822,30.03 L406.692,8.82 C406.72,8.708 406.825,8.456 407.007,8.064 C407.189,7.672 407.392,7.21 407.616,6.678 C407.84,6.146 408.043,5.635 408.225,5.145 C408.407,4.655 408.512,4.27 408.54,3.99 L408.918,3.99 Z M412.992,21.42 L412.992,22.932 L402.114,22.932 L402.114,21.42 L412.992,21.42 Z M414.126,27.3 L419.838,27.3 C420.23,28.168 420.734,28.791 421.35,29.169 C421.966,29.547 422.554,29.736 423.114,29.736 C423.114,29.736 423.17,29.736 423.282,29.736 C423.394,29.736 423.45,29.736 423.45,29.736 L423.45,30.156 L412.362,30.156 L412.362,29.736 L412.698,29.736 C413.174,29.736 413.608,29.526 414,29.106 C414.392,28.686 414.434,28.084 414.126,27.3 Z" id="Shape"></path>
            </g>
            <path d="M204.260469,0 L238.78,33.1956798 L261.401094,23.1766201 L300.820283,59.3302199 L315.78,64.0978399 L334.78,79 L334.78,83 L317.78,72 L323.78,79.050498 L318.78,79 L326.78,87.025249 L286.78,66.0915276 L296.78,68.0852154 L273.78,49.1451818 L277.78,49.1451818 L261.78,33.1956798 L267.78,48.1483379 L261.78,48.1483379 L278.78,65.0946838 L272.78,64.0978399 C274.212793,65.2369871 289.190011,76.1758581 290.87375,77.5046112 C297.292745,82.6254388 303.079893,89.0960216 308.78,95 C296.237329,89.1466027 289.237329,85.8237898 287.78,85.0315613 C292.446667,91.6771871 294.78,95 294.78,95 L267.78,80.0473419 C269.78,84.69928 270.78,87.025249 270.78,87.025249 L253.78,78.0536541 L259.78,91.0126245 C254.869928,86.8742047 248.203261,79.5640163 239.78,69.0820593 L248.78,68.0852154 L229.78,55.126245 L215.78,36.1862114 L234.78,45.1578063 L208.78,22.2303972 L215.78,24.2240849 L205.78,11.2651146 C199.78,16.5816152 196.78,19.2398656 196.78,19.2398656 L200.78,18.2430217 C199.13,20.8746895 197.48,23.5063573 195.78,26.2177727 C196.3025,25.8751076 198.635833,24.5459824 202.78,22.2303972 L197.78,33.1956798 L184.78,45.1578063 L188.78,35.1893675 L179.78,39.176743 L166.78,52.1357134 L175.78,50.1420257 L164.78,64.0978399 L143.78,82.0410296 L159.78,61.1073083 L111.78,95 L129.78,69.0820593 L150.78,55.126245 C159.445256,44.3923143 164.111923,38.7435323 164.78,38.1798992 L159.78,32.1988359 L148.78,43.1641185 L156.78,42.1672747 L148.78,53.1325573 L133.78,64.0978399 L131.78,60.1104644 L93.78,95 L103.78,77.0568103 L97.78,79 L98.78,74 L88.78,83 L87.78,79 L101.78,67 L114.78,64.0978399 L158.307344,23.3090134 L167.401094,27.6663114 L204.260469,0 Z" id="Mountain" fill="#000000" fill-rule="nonzero"></path>
            <polyline id="EKG-left" stroke="#000000" stroke-width="4" transform="translate(44.390000, 75.500000) scale(-1, 1) translate(-44.390000, -75.500000) " points="1.38414184e-14 81 19 81 27 61 34 90 39 81 88.78 81"></polyline>
            <polyline id="EKG-right" stroke="#000000" stroke-width="4" points="334.78 81 353.78 81 361.78 61 368.78 90 373.78 81 423.698335 81"></polyline>
        </g>
    </g>
</svg>