<?xml version="1.0" encoding="UTF-8"?>
<svg width="70px" height="96px" viewBox="0 0 70 96" version="1.1" xmlns="http://www.w3.org/2000/svg" xmlns:xlink="http://www.w3.org/1999/xlink">
    <title>equipment</title>
    <g id="Page-1" stroke="none" stroke-width="1" fill="none" fill-rule="evenodd">
        <g id="equipment" transform="translate(0.100000, 0.500000)" fill="#000000" fill-rule="nonzero">
            <path d="M62.3,10.4 L47.7,10.4 L47.7,5.8 C47.7,2.6 45.1,0 41.9,0 L27.9,0 C24.7,0 22.1,2.6 22.1,5.8 L22.1,10.4 L7.5,10.4 C3.4,10.4 0,13.8 0,17.9 L0,53.4 C0,57.5 3.4,60.9 7.5,60.9 L15.5,60.9 L17.8,64 L17.6,64.4 L13.1,65.1 C12,65.3 11.3,66.2 11.3,67.2 L11.3,75.4 C11.3,76.5 12.1,77.4 13.1,77.5 L17.6,78.2 L17.8,78.6 L15.1,82.3 C14.5,83.2 14.5,84.4 15.3,85.1 L21.1,90.9 C21.9,91.7 23.1,91.7 23.9,91.1 L27.6,88.4 L28,88.6 L28.7,93.1 C28.9,94.2 29.8,94.9 30.8,94.9 L39,94.9 C40.1,94.9 41,94.1 41.1,93.1 L41.8,88.6 L42.2,88.4 L45.9,91.1 C46.8,91.7 48,91.7 48.7,90.9 L54.5,85.1 C55.3,84.3 55.3,83.1 54.7,82.3 L51.9,78.6 L52.1,78.2 L56.6,77.5 C57.7,77.3 58.4,76.4 58.4,75.4 L58.4,67.2 C58.4,66.1 57.6,65.2 56.6,65.1 L52.1,64.4 L51.9,64 L54.2,60.9 L62.2,60.9 C66.3,60.9 69.7,57.5 69.7,53.4 L69.7,17.9 C69.8,13.8 66.4,10.4 62.3,10.4 Z M26.4,5.8 C26.4,5 27.1,4.3 27.9,4.3 L41.9,4.3 C42.7,4.3 43.4,5 43.4,5.8 L43.4,10.4 L26.4,10.4 L26.4,5.8 Z M7.5,14.7 L24.2,14.7 C24.2,14.7 24.2,14.7 24.2,14.7 C24.2,14.7 24.2,14.7 24.2,14.7 L45.6,14.7 C45.6,14.7 45.6,14.7 45.6,14.7 C45.6,14.7 45.6,14.7 45.6,14.7 L62.3,14.7 C64.1,14.7 65.5,16.1 65.5,17.9 L65.5,29.4 L44.2,29.4 L44.2,26 C44.2,24.8 43.2,23.8 42,23.8 L27.7,23.8 C26.5,23.8 25.5,24.8 25.5,26 L25.5,29.4 L4.3,29.4 L4.3,17.9 C4.3,16.2 5.8,14.7 7.5,14.7 Z M39.9,28.2 L39.9,34.9 L29.9,34.9 L29.9,28.2 L39.9,28.2 Z M54.3,69.1 L54.3,73.6 L50.4,74.2 C49.6,74.3 49,74.8 48.7,75.5 L47.6,78.2 C47.3,78.9 47.4,79.7 47.9,80.3 L50.3,83.5 L47.1,86.7 L43.9,84.3 C43.3,83.8 42.5,83.7 41.8,84 L39.1,85.1 C38.4,85.4 37.9,86 37.8,86.8 L37.2,90.7 L32.7,90.7 L32.1,86.8 C32,86 31.5,85.4 30.8,85.1 L28.1,84 C27.4,83.7 26.6,83.8 26,84.3 L22.8,86.7 L19.6,83.5 L22,80.3 C22.5,79.7 22.6,78.9 22.3,78.2 L21.2,75.5 C20.9,74.8 20.3,74.3 19.5,74.2 L15.6,73.6 L15.6,69.1 L19.5,68.5 C20.3,68.4 20.9,67.9 21.2,67.2 L22.3,64.5 C22.6,63.8 22.5,63 22,62.4 L19.6,59.2 L22.8,56 L26,58.4 C26.6,58.9 27.4,59 28.1,58.7 L30.8,57.6 C31.5,57.3 32,56.7 32.1,55.9 L32.7,52 L37.2,52 L37.8,55.9 C37.9,56.7 38.4,57.3 39.1,57.6 L41.8,58.7 C42.5,59 43.3,58.9 43.9,58.4 L47.1,56 L50.3,59.2 L47.9,62.4 C47.4,63 47.3,63.8 47.6,64.5 L48.7,67.2 C49,67.9 49.6,68.4 50.4,68.5 L54.3,69.1 Z M62.3,56.6 L53.7,56.6 L48.8,51.7 C48,50.9 46.8,50.9 46,51.5 L42.3,54.2 L41.9,54 L41.2,49.5 C41,48.4 40.1,47.7 39.1,47.7 L30.9,47.7 C29.8,47.7 28.9,48.5 28.8,49.5 L28.1,54 L27.7,54.2 L23.9,51.4 C23,50.8 21.8,50.8 21.1,51.6 L16.2,56.5 L7.6,56.5 C5.8,56.5 4.4,55.1 4.4,53.3 L4.4,33.7 L25.7,33.7 L25.7,37.1 C25.7,38.3 26.7,39.3 27.9,39.3 L42.2,39.3 C43.4,39.3 44.4,38.3 44.4,37.1 L44.4,33.7 L65.7,33.7 L65.7,53.4 C65.5,55.2 64,56.6 62.3,56.6 Z" id="Shape"></path>
            <path d="M34.9,61.1 C29.3,61.1 24.7,65.7 24.7,71.3 C24.7,76.9 29.3,81.5 34.9,81.5 C40.5,81.5 45.1,76.9 45.1,71.3 C45.1,65.7 40.5,61.1 34.9,61.1 Z M34.9,77.2 C31.7,77.2 29,74.6 29,71.3 C29,68.1 31.6,65.4 34.9,65.4 C38.2,65.4 40.8,68 40.8,71.3 C40.8,74.6 38.1,77.2 34.9,77.2 Z" id="Shape"></path>
        </g>
    </g>
</svg>