<?xml version="1.0" encoding="UTF-8"?>
<svg width="62px" height="46px" viewBox="0 0 62 46" version="1.1" xmlns="http://www.w3.org/2000/svg" xmlns:xlink="http://www.w3.org/1999/xlink">
    <title>repair-equipment</title>
    <g id="Page-1" stroke="none" stroke-width="1" fill="none" fill-rule="evenodd">
        <g id="repair-equipment" fill="#000000" fill-rule="nonzero">
            <path d="M56.351,18 L55,18 L55,9 C55,4.038 50.962,0 46,0 L16,0 C11.038,0 7,4.038 7,9 L7,18 L5.649,18 L0,22.52 L0,46 L19,46 L20,46 L62,46 L62,22.52 L56.351,18 Z M58.149,22 L45.851,22 L48.351,20 L49,20 L55.649,20 L58.149,22 Z M14,18 L13,18 L13,9 C13,7.346 14.346,6 16,6 L46,6 C47.654,6 49,7.346 49,9 L49,18 L47.649,18 L41.077,18 L41.882,15.988 C41.922,15.99 41.96,16 42,16 C43.654,16 45,14.654 45,13 C45,11.346 43.654,10 42,10 C40.346,10 39,11.346 39,13 C39,13.895 39.402,14.691 40.026,15.241 L38.923,18 L34.4,18 L35.965,12.263 L34.035,11.737 L32.327,18 L28.276,18 L24.592,7.686 L17.752,10.422 L20.279,18 L14.351,18 L14,18 Z M41,13 C41,12.449 41.449,12 42,12 C42.551,12 43,12.449 43,13 C43,13.551 42.551,14 42,14 C41.449,14 41,13.551 41,13 Z M23.721,22 L20.247,11.578 L23.407,10.314 L27.581,22 L23.721,22 Z M29.705,22 L28.991,20 L31.782,20 L31.237,22 L29.705,22 Z M33.855,20 L38.123,20 L37.323,22 L33.31,22 L33.855,20 Z M40.277,20 L45.149,20 L42.649,22 L39.477,22 L40.277,20 Z M9,9 C9,5.14 12.14,2 16,2 L46,2 C49.86,2 53,5.14 53,9 L53,18 L51,18 L51,9 C51,6.243 48.757,4 46,4 L16,4 C13.243,4 11,6.243 11,9 L11,18 L9,18 L9,9 Z M18,44 L2,44 L2,23.48 L6.351,20 L13.65,20 L18,23.48 L18,44 Z M16.851,20 L20.946,20 L21.613,22 L19.351,22 L16.851,20 Z M20,44 L20,24 L60,24 L60,44 L20,44 Z" id="Shape"></path>
            <rect id="Rectangle" x="22" y="26" width="2" height="2"></rect>
            <rect id="Rectangle" x="26" y="26" width="9" height="2"></rect>
        </g>
    </g>
</svg>