<svg xmlns="http://www.w3.org/2000/svg" width="94" height="92"><g fill="none" fill-rule="evenodd" transform="translate(.5 .5)"><path fill="#0BC1BB" fill-rule="nonzero" d="m1.2834 74.4108 89.3281-17.3636 2.1705 11.166L28.6044 80.688l-17.123 3.3283-8.0275 1.5604z"/><circle cx="20.9999" cy="80.0001" r="10.5" fill="#FFF"/><circle cx="70.4999" cy="79.5001" r="10" fill="#FFF"/><path fill="#222" fill-rule="nonzero" d="M88.1095 24.7384c-.3398-1.0547-.7578-2.0781-1.2578-3.0664L88.922 18.5c.3867-.5937.3047-1.3827-.2031-1.8788l-6.3984-6.4102c-.504-.5078-1.297-.586-1.8906-.1914l-3.1016 2a22.144 22.144 0 0 0-3.1094-1.3008L73.5 7.129c-.1445-.6954-.7578-1.1953-1.4688-1.1992h-9.0898c-.703.0117-1.3047.5117-1.4414 1.1992l-.75 3.6289a22.1388 22.1388 0 0 0-3.1094 1.3008l-3.1094-2c-.5937-.3946-1.3828-.3164-1.8828.1914l-6.4102 6.4102a1.4898 1.4898 0 0 0-.2187 1.8398l2.0586 3.1406c-.5.9883-.918 2.0156-1.2578 3.0703l-3.6914.789c-.6992.1446-1.1992.7578-1.1992 1.4688V36c-.0156.707.461 1.332 1.1484 1.5h-9a22.0162 22.0162 0 0 0-11.914 3.5547c-3.547 2.3047-6.3516 5.586-8.086 9.4453l-3 6.6914-8.6366 5.7891A4.2687 4.2687 0 0 0 0 66.8595v14.879c.004 2.375 1.926 4.2968 4.301 4.3007h7.8594c2.2148 3.2227 5.875 5.1445 9.7852 5.1445a11.8759 11.8759 0 0 0 9.7852-5.1445h28.77c2.207 3.3008 5.918 5.2812 9.8906 5.2812 3.9726 0 7.6797-1.9805 9.8906-5.2812h7.2188a5.5123 5.5123 0 0 0 3.8984-1.6289c1.0312-1.039 1.6055-2.4453 1.6016-3.9102v-35.102c-.0156-3.1016-1.8242-5.914-4.6406-7.2188l3.4414-.6797c.6953-.1445 1.1953-.7578 1.1992-1.4688V26.941c-.0156-.703-.5117-1.3008-1.1992-1.4414l-3.692-.7612ZM85.4415 36.5a18.1966 18.1966 0 0 1-1.6914 4c-.2695.4922-.25 1.0898.0586 1.5586L85.7384 45l-4.6797 4.6797-3-2a1.5098 1.5098 0 0 0-1.5586.0508 18.2214 18.2214 0 0 1-4 1.6406 1.5403 1.5403 0 0 0-1 1.1289l-.711 3.4883h-6.6288L63.4415 50.5c-.1172-.547-.5273-.9844-1.0625-1.1406a18.3808 18.3808 0 0 1-4-1.6406c-.4844-.2696-1.0859-.2461-1.5508.0625l-3 2-4.6797-4.6797 1.9414-2.9414c.293-.4805.293-1.082 0-1.5586A18.2444 18.2444 0 0 1 49.5001 36.5c-.1758-.5118-.6094-.8946-1.1406-1l-3.4297-.711v-6.6289l3.379-.6992A1.4797 1.4797 0 0 0 49.5 26.3907a18.303 18.303 0 0 1 1.6797-4.1016c.2695-.4883.25-1.0859-.0508-1.5586l-1.8906-2.8594 4.6797-4.6797 2.8281 1.8711.004-.0039a1.4964 1.4964 0 0 0 1.5702.0508 18.875 18.875 0 0 1 4.1406-1.7305c.5274-.1602.9258-.5977 1.0391-1.1406l.6797-3.3086h6.6211l.6992 3.3086c.1016.5351.4844.9726 1 1.1406a18.9321 18.9321 0 0 1 4.1484 1.7305 1.4827 1.4827 0 0 0 1.5625-.0508l2.8281-1.8711 4.6797 4.6797-1.8789 2.8594v.004c-.3085.4687-.332 1.0702-.0585 1.5585.7382 1.293 1.3125 2.668 1.7188 4.1016.1328.5547.5703.9883 1.1289 1.1094l3.371.6992v6.6094l-3.4218.6914c-.5313.1016-.9688.4844-1.1367 1Zm4.5587 44c.0038.668-.254 1.3125-.7228 1.789a2.5152 2.5152 0 0 1-1.7773.7502H81.719c.375-1.172.5665-2.3985.5704-3.629-.1875-6.4453-5.4648-11.574-11.914-11.574-6.4492 0-11.727 5.1289-11.914 11.574 0 1.2305.1914 2.457.5703 3.629h-25.793a12.0746 12.0746 0 0 0 .621-3.7774 11.91 11.91 0 0 0-4.1718-9.1328c-2.6641-2.2812-6.1992-3.2695-9.6641-2.707-3.4648.5664-6.504 2.625-8.3047 5.6367-1.8047 3.0078-2.1914 6.6602-1.0586 9.9805H4.301c-.7188 0-1.301-.582-1.301-1.3008v-14.879a1.2723 1.2723 0 0 1 .7697-1.1875 1.5753 1.5753 0 0 0 .25-.1719l9.0898-6.1719a1.437 1.437 0 0 0 .5312-.6289l3.1484-7.0781c1.504-3.3203 3.9375-6.1367 7-8.1094 3.0664-1.9727 6.6367-3.0156 10.281-3.0117h13.699c.1211.25.2305.5195.3594.7695l-2.1094 3.211c-.3945.5937-.3164 1.3866.1914 1.8905l6.4102 6.3984c.4961.5078 1.2852.5899 1.879.1992l3.25-2.1406c.9452.4805 1.9218.8868 2.9296 1.211l.8203 3.7616c.1407.6993.754 1.2031 1.4688 1.1992h9.0312c.7227.0118 1.3516-.4921 1.5-1.1992l.7813-3.8086v-.0039c1.0078-.328 1.9922-.7304 2.9375-1.207l3.2383 2.1406h.0039c.5977.3907 1.3867.3047 1.8906-.203l6.3984-6.3985c.5078-.5039.5937-1.293.1992-1.8906l-2.1484-3.2109c.0703-.121.1211-.25.1797-.3789 1.8125.793 2.9922 2.582 3 4.5586l.02 35.1016Zm-19.629 7.8008c-3.6056-.004-6.8517-2.1797-8.2267-5.5078-1.375-3.3281-.6094-7.1602 1.9375-9.707 2.5508-2.547 6.3828-3.3047 9.711-1.9258 3.328 1.3789 5.496 4.6289 5.496 8.2305a8.9025 8.9025 0 0 1-2.6094 6.3125 8.9106 8.9106 0 0 1-6.3086 2.6172l.0001-.0196Zm-48.422-.1406c-3.6095.0039-6.8634-2.168-8.2462-5.5-1.3867-3.332-.625-7.172 1.9258-9.7227 2.5508-2.5547 6.3867-3.3203 9.7227-1.9414 3.336 1.3828 5.5078 4.6367 5.5078 8.2422.0078 4.9297-3.9805 8.9297-8.9102 8.9414v-.0195Z"/><path fill="#0BC1BB" fill-rule="nonzero" d="M79.09 31.379c0-4.707-2.836-8.9491-7.1876-10.746-4.3516-1.8007-9.3555-.7968-12.68 2.5392-3.3242 3.332-4.3086 8.3438-2.496 12.688 1.8124 4.3442 6.0663 7.168 10.773 7.1524 6.4061-.0236 11.59-5.2228 11.59-11.6331l.0005-.0004ZM67.5 40.012c-3.4923.0039-6.6407-2.0977-7.9806-5.3203-1.3398-3.2266-.6016-6.9414 1.8633-9.4102 2.4688-2.4688 6.1797-3.211 9.4062-1.875 3.2266 1.3359 5.332 4.4805 5.332 7.9727-.0078 4.7617-3.8594 8.621-8.621 8.6328Z"/><path fill="#222" fill-rule="nonzero" d="M6.5 13.711c-.6954.1446-1.1954.7579-1.1996 1.4689v6.3203c-.0153.7265.4886 1.3594 1.1995 1.5117l2.379.4883c.1991.5703.4335 1.1289.6991 1.6719l-1.3398 2c-.3867.5898-.3086 1.375.1914 1.8789l4.5 4.5c.504.5 1.2891.578 1.879.1875l2.0585-1.3594h.004a16.3848 16.3848 0 0 0 1.6288.7226l.5 2.422v-.004c.1485.707.7774 1.211 1.5 1.1994h6.3594c.7032-.0236 1.297-.5275 1.4297-1.219l.5-2.4219a15.4205 15.4205 0 0 0 1.6406-.6797L32.5 33.7813c.5977.3907 1.3828.3086 1.8906-.1914l4.4883-4.5c.5-.5039.5782-1.2852.1915-1.8789l-1.3398-2c.2695-.543.5-1.1016.6992-1.6719l2.3789-.4883A1.5132 1.5132 0 0 0 42 21.5v-6.3203c-.004-.7109-.504-1.3242-1.1992-1.4688L38.5 13.2305a15.4237 15.4237 0 0 0-.75-1.7305l1.3086-2a1.512 1.512 0 0 0-.1875-1.8906l-4.4922-4.4805c-.504-.4961-1.2852-.5742-1.879-.1875l-2 1.289c-.5663-.2773-1.1444-.5234-1.7382-.7304l-.4727-2.3008C28.1445.5039 27.5312.0039 26.8202 0H20.5c-.711.004-1.3242.504-1.4688 1.1992L18.5 3.5a17.9763 17.9763 0 0 0-1.7695.7383l-2-1.2891c-.5938-.3867-1.379-.3086-1.879.1914l-4.5 4.4883c-.4726.5195-.5273 1.293-.1327 1.8711l1.2812 2c-.2735.5625-.5079 1.1406-.711 1.7305L6.5 13.711Zm9.3593-6.4882v-.004a1.4956 1.4956 0 0 0 1.5703 0 12.847 12.847 0 0 1 2.7891-1.1171 1.5042 1.5042 0 0 0 1.0625-1.1406l.3984-2h3.922l.3984 2a1.5138 1.5138 0 0 0 1.0703 1.1406c.9765.2773 1.918.668 2.8008 1.168.4805.2969 1.0859.2969 1.5703 0L33.121 6.168l2.7617 2.7617-1.1094 1.6992h-.004a1.5083 1.5083 0 0 0-.0585 1.5625c.4883.875.871 1.8086 1.1406 2.7773.1484.543.5898.9531 1.1367 1.0703l2 .4101v3.9102l-2 .4297a1.4907 1.4907 0 0 0-1.1367 1.0508c-.289.9297-.6836 1.8203-1.172 2.6602a1.4918 1.4918 0 0 0 0 1.5586l1.1485 1.7617-2.707 2.7812-1.7812-1.1719a1.5126 1.5126 0 0 0-1.5508 0A12.8697 12.8697 0 0 1 27.0898 30.5c-.539.1524-.9492.5899-1.0586 1.1406l-.4297 2.0898h-3.9219l-.4297-2.0898c-.1094-.5507-.5195-.9882-1.0586-1.1406-.9375-.2695-1.8398-.6484-2.6914-1.121a1.5126 1.5126 0 0 0-1.5508 0l-1.789 1.2226-2.7618-2.7617 1.1484-1.7617h.004a1.502 1.502 0 0 0 .0585-1.578 12.8021 12.8021 0 0 1-1.1094-2.711 1.4932 1.4932 0 0 0-1.1289-1.0508l-2.0508-.4297v-3.9102l2-.4101c.5508-.1133.9883-.5274 1.1406-1.0664a12.2577 12.2577 0 0 1 1.1406-2.7812 1.519 1.519 0 0 0-.1016-1.5625l-1.121-1.6992 2.7616-2.7617 1.719 1.1054Z"/><path fill="#0BC1BB" fill-rule="nonzero" d="M23.641 26.898c3.4765 0 6.6132-2.0937 7.9452-5.3085 1.332-3.211.5938-6.9102-1.8633-9.3711-2.4609-2.461-6.1602-3.1953-9.375-1.8633-3.2109 1.332-5.3086 4.4648-5.3086 7.9453.0078 4.746 3.8555 8.5938 8.6016 8.5977Zm0-14.199c2.2655 0 4.3046 1.3634 5.1718 3.457.8672 2.0938.3906 4.504-1.2109 6.1056-1.6016 1.6016-4.0117 2.078-6.1055 1.2109-2.0898-.8672-3.457-2.9062-3.457-5.172 0-3.0937 2.5078-5.6015 5.6016-5.6015Z"/><path fill="#000" fill-rule="nonzero" d="M27 79.262c0-2.0507-1.2345-3.8944-3.125-4.6757-1.8946-.7852-4.0704-.3477-5.5157 1.1016-1.4453 1.4492-1.8789 3.625-1.0898 5.5156a5.0568 5.0568 0 0 0 4.6797 3.1172C24.7422 84.3167 27 82.0512 27 79.2621Zm-5.0509-2.0624c.832 0 1.586.5039 1.9023 1.2734.3203.7695.1445 1.6562-.4453 2.2422a2.0663 2.0663 0 0 1-2.2461.4492 2.0599 2.0599 0 0 1-1.2695-1.9023c0-1.1406.9219-2.0625 2.0586-2.0625ZM41.41 43.43h-8.3595c-4.832 0-9.1797 2.9259-11 7.3985l-3.2109 7.8398v.0039c-.1914.461-.1367.9883.1406 1.4062.2813.414.75.664 1.25.6602h21.199c.8281 0 1.5-.668 1.5-1.5v-14.309a1.495 1.495 0 0 0-.4453-1.0664 1.5091 1.5091 0 0 0-1.0742-.4337l.0002.0006Zm-1.5 14.309H22.441l2.371-5.7811-.0039.0039c1.3633-3.3516 4.625-5.5391 8.2422-5.5312h6.8594l.0002 11.3085ZM75.43 79.41c-.0118-2.043-1.254-3.8788-3.1446-4.6522-1.8906-.7735-4.0625-.336-5.5039 1.1133-1.4414 1.4492-1.8672 3.625-1.082 5.5117.7852 1.8867 2.625 3.1172 4.672 3.1172 1.3437-.004 2.6366-.539 3.5858-1.4961.9492-.9531 1.4766-2.2461 1.4727-3.5938Zm-5.0587-2.0585c.832 0 1.582.5 1.9023 1.2695.3203.7695.1406 1.6562-.4453 2.246a2.0579 2.0579 0 0 1-2.2461.4454c-.7695-.3164-1.2734-1.0703-1.2734-1.9023a2.061 2.061 0 0 1 .6055-1.457 2.0573 2.0573 0 0 1 1.457-.6016Z"/></g></svg>