<?xml version="1.0" encoding="UTF-8"?>
<svg width="93px" height="94px" viewBox="0 0 93 94" version="1.1" xmlns="http://www.w3.org/2000/svg" xmlns:xlink="http://www.w3.org/1999/xlink">
    <title>travel</title>
    <g id="Page-1" stroke="none" stroke-width="1" fill="none" fill-rule="evenodd">
        <g id="travel" transform="translate(0.355194, 0.499846)" fill-rule="nonzero">
            <path d="M68.1838065,36.000154 C73.0119065,36.000154 77.3635065,33.093954 79.2068065,28.632954 C81.0545065,24.175954 80.0310265,19.043154 76.6170065,15.628954 C73.2029065,12.218754 68.0701065,11.203154 63.6130065,13.050854 C59.1560065,14.902454 56.2497065,19.253954 56.2536025,24.077854 C56.2653255,30.663754 61.6013065,35.995854 68.1836065,35.999854 L68.1838065,36.000154 Z M77.1057065,24.078154 C77.1057065,27.691454 74.9260065,30.949254 71.5901065,32.332054 C68.2503065,33.710954 64.4104065,32.945334 61.8557065,30.390654 C59.3049065,27.835954 58.5432065,23.992254 59.9260065,20.656254 C61.3127065,17.320354 64.5705065,15.144554 68.1838065,15.1484488 C73.1135065,15.156266 77.1057065,19.152354 77.1057065,24.078154 L77.1057065,24.078154 Z" id="Shape" fill="#0BC1BB"></path>
            <path d="M20.6448065,78.070154 C13.5745065,79.070154 7.86380646,81.492054 7.86380646,85.288954 C7.86380646,90.347554 17.9848065,92.999854 27.9728065,92.999854 C33.5626065,92.999854 39.1918065,92.171734 43.0748065,90.550654 C43.9537165,92.062354 45.5670065,92.995954 47.3170065,92.999854 L86.0050065,92.999854 C88.7355065,92.999854 90.9464065,90.788954 90.9464065,88.058454 L90.9464065,63.058454 C90.9464065,60.331854 88.7355065,58.120954 86.0050065,58.120954 L77.2667065,58.120954 L77.2667065,52.499854 C77.2667065,50.542854 75.6808065,48.956854 73.7237065,48.949054 L59.5677065,48.949054 C57.6107065,48.956866 56.0247065,50.542854 56.0247065,52.499854 L56.0247065,58.077954 L52.4466065,58.077954 C54.9114065,53.827954 56.2161065,48.995954 56.2239065,44.077954 L58.9544065,42.277154 C59.8645665,42.75372 60.8060065,43.16387 61.7747065,43.49986 L62.4739265,46.83966 C62.6145465,47.53497 63.2239265,48.03886 63.9348265,48.03886 L72.4270265,48.03886 C73.1379665,48.034954 73.7512265,47.53495 73.8958265,46.83966 L74.5872365,43.49986 C75.5520765,43.17564 76.4974365,42.78111 77.4075365,42.32016 L80.2669365,44.19906 C80.8606865,44.58968 81.6497365,44.51156 82.1575365,44.01156 L88.1575365,38.01156 C88.6614465,37.51156 88.7473765,36.72246 88.3567565,36.12876 L86.4465565,33.23036 C86.8957765,32.33192 87.2824965,31.40226 87.5949565,30.44916 L90.9933565,29.74994 L90.9972625,29.74994 C91.6925725,29.60541 92.1964625,28.99213 92.1964625,28.28114 L92.1964625,19.76164 C92.1964625,19.0468 91.6925525,18.43354 90.9972625,18.28894 L87.5363625,17.578 C87.2238625,16.65222 86.8449525,15.746 86.4074625,14.871 L88.4074625,11.871 C88.7941825,11.27725 88.7121525,10.4882 88.2043425,9.9882 L82.2043425,3.9882 C81.7004325,3.4882 80.9113425,3.41008 80.3176425,3.8007 L77.3176425,5.8007 C76.4543625,5.37101 75.5598425,5.00773 74.6457425,4.7109 L73.8957425,1.1992 C73.7512125,0.50389 73.1379325,0.0039 72.4269425,0 L63.9347425,0 C63.2238025,0 62.6144425,0.50391 62.4738425,1.1992 L61.7472825,4.7109 C60.8332225,5.01168 59.9464825,5.37887 59.0870825,5.8086 L56.0870825,3.8086 C55.4894225,3.41798 54.7003825,3.50001 54.1964825,4 L48.1964825,10 C47.6886725,10.5 47.6066425,11.28521 47.9972625,11.87891 L49.9972625,14.87891 C49.5558525,15.75391 49.1769525,16.66011 48.8644625,17.58981 L45.4035625,18.30075 L45.4074695,18.30075 C44.7121595,18.44528 44.2160695,19.05856 44.2160695,19.76955 L44.2160695,21.05075 C36.6496695,15.67575 26.9110695,14.39845 18.2160695,17.64455 C9.52076946,20.88675 2.99706946,28.22655 0.798069458,37.24255 C-1.40113054,46.25815 1.00900946,55.77755 7.23556946,62.66055 L20.6448065,78.070154 Z M28.2151065,19.011154 C34.3049065,19.011154 40.1841065,21.233854 44.7501065,25.265054 C49.3165065,29.292354 52.2540065,34.850954 53.0157065,40.894054 C53.7735165,46.933154 52.3008665,53.046054 48.8751065,58.078054 L47.2853065,58.078054 C44.5548065,58.078054 42.3439065,60.292854 42.3439065,63.019454 L42.3439065,65.898354 L28.1839065,82.199354 L9.48490646,60.672354 C5.16850646,55.840354 2.89510646,49.527354 3.14110646,43.055354 C3.39110646,36.586554 6.13720646,30.461354 10.8091065,25.977354 C15.4810065,21.492954 21.7071065,18.996854 28.1841065,19.012554 L28.2151065,19.011154 Z M50.3361065,20.339254 C50.8829865,20.225974 51.3204865,19.815814 51.4728065,19.280654 C51.8360865,17.964254 52.3556165,16.694754 53.0158065,15.499454 C53.3087765,15.022894 53.3087765,14.417454 53.0158065,13.940854 L51.2463065,11.261154 L55.5158065,6.991654 L58.2267065,8.772854 C58.6915505,9.077537 59.2931005,9.100977 59.7853005,8.827541 C60.9572005,8.171291 62.1994005,7.659541 63.4962005,7.300241 C64.0313605,7.143991 64.4376105,6.706491 64.5548005,6.159641 L65.2149605,2.968241 L71.2149605,2.968241 L71.8751205,6.159641 C71.9923105,6.702611 72.3985605,7.140111 72.9337205,7.300241 C74.2306205,7.667431 75.4767205,8.190861 76.6446205,8.858841 C77.1368105,9.132281 77.7344205,9.108841 78.2032205,8.800247 L80.9141205,7.019047 L85.1836205,11.288547 L83.4141205,13.968241 C83.1211505,14.448717 83.1211505,15.050247 83.4141205,15.530747 C84.0860005,16.710447 84.6133205,17.972147 84.9844205,19.280747 C85.1367605,19.815907 85.5781705,20.226057 86.1250205,20.339347 L89.2539205,20.979967 L89.2539205,26.979967 L86.1641205,27.608877 C85.6133405,27.726067 85.1758405,28.140127 85.0235205,28.679177 C84.6602405,30.015077 84.1329005,31.300277 83.4532205,32.511177 C83.1836905,32.995557 83.2071305,33.593177 83.5157205,34.058077 L85.2345205,36.667477 L80.9650205,40.936977 L78.3752205,39.237777 C77.9064705,38.929187 77.3010205,38.909657 76.8166205,39.190902 C75.5978205,39.882312 74.3010205,40.421402 72.9533205,40.800302 C72.4142605,40.948742 72.0041005,41.390142 71.8947205,41.940902 L71.2658105,44.940902 L65.2658105,44.940902 L64.6369005,41.940902 C64.5236135,41.390122 64.1134635,40.948712 63.5743935,40.800302 C62.2071935,40.437022 60.8868935,39.909682 59.6446935,39.230002 C59.1564135,38.952662 58.5548935,38.968282 58.0860935,39.280783 L56.0860935,40.632383 C55.2423435,34.046477 52.0899935,27.972477 47.1837935,23.499477 L47.1837935,20.979977 L50.3361065,20.339254 Z M59.0235465,52.499254 C59.0235465,52.198474 59.2657965,51.956284 59.5665765,51.948474 L73.7225765,51.948474 C74.0233565,51.956286 74.2655465,52.198474 74.2655465,52.499254 L74.2655465,58.077354 L59.0235465,58.077354 L59.0235465,52.499254 Z M87.9456065,63.019254 L87.9456065,88.019254 C87.9456065,89.089554 87.0745165,89.960654 86.0042065,89.960654 L82.9456065,89.960654 L82.9456065,61.077654 L86.0042065,61.077654 C87.0745065,61.077654 87.9456065,61.948744 87.9456065,63.019054 L87.9456065,63.019254 Z M79.9456065,90.019254 L77.2659065,90.019254 L77.2659065,61.078254 L79.9456065,61.078254 L79.9456065,90.019254 Z M53.3436065,90.019254 L53.3436065,61.078254 L56.0233065,61.078254 L56.0233065,90.000254 L53.3436065,90.019254 Z M59.0233065,61.097254 L74.2653065,61.10116 L74.2653065,89.99916 L59.0233065,89.99916 L59.0233065,61.097254 Z M50.3436065,89.999254 L47.2850065,89.999254 C46.2147065,89.999254 45.3436065,89.132064 45.3436065,88.057854 L45.3436065,63.057854 C45.3436065,61.987554 46.2146965,61.120354 47.2850065,61.120354 L50.3436065,61.120354 L50.3436065,89.999254 Z M27.9456065,89.999254 C16.8756065,89.999254 10.8366065,86.889854 10.8366065,85.288354 C10.8366065,83.948554 15.0983065,81.550054 22.9966065,80.807854 L26.9966065,85.479754 C27.2856665,85.803974 27.6997365,85.987564 28.1333065,85.987564 C28.5825265,86.007095 29.0122165,85.827404 29.3169065,85.499284 L33.3169065,80.870384 C36.4107065,81.112574 39.4458065,81.839134 42.3169065,83.018784 L42.3169065,87.596884 C39.5552065,88.839084 34.6958065,89.999254 27.9459065,89.999254 L27.9456065,89.999254 Z M35.6956065,78.128254 L42.3440065,70.499354 L42.3440065,79.780554 C40.1917065,78.999304 37.9612065,78.444654 35.6956065,78.128254 Z" id="Shape" fill="#222222"></path>
            <path d="M27.9458065,56.6601574 C33.4692065,56.66406 38.4538065,53.339858 40.5708065,48.234354 C42.6880065,43.128854 41.5239265,37.254354 37.6177065,33.343354 C33.7115065,29.437154 27.8365065,28.265254 22.7307065,30.378554 C17.6252065,32.491854 14.2932065,37.472354 14.2932065,42.999554 C14.3049245,50.534754 20.4104065,56.644554 27.9452065,56.659554 L27.9458065,56.6601574 Z M27.9458065,32.3401496 C32.2583065,32.336248 36.1489065,34.929954 37.8013065,38.914354 C39.4536065,42.898754 38.5434965,47.484654 35.4966065,50.535354 C32.4497065,53.586154 27.8638065,54.500154 23.8796065,52.847854 C19.8952065,51.199454 17.2937065,47.312654 17.2937065,43.000154 C17.3054245,37.121254 22.0671065,32.355154 27.9457065,32.3401496 L27.9458065,32.3401496 Z" id="Shape" fill="#0BC1BB"></path>
        </g>
    </g>
</svg>