<?xml version="1.0" encoding="UTF-8"?>
<svg width="94px" height="94px" viewBox="0 0 94 94" version="1.1" xmlns="http://www.w3.org/2000/svg" xmlns:xlink="http://www.w3.org/1999/xlink">
    <title>veterinary</title>
    <g id="Page-1" stroke="none" stroke-width="1" fill="none" fill-rule="evenodd">
        <g id="veterinary" fill-rule="nonzero">
            <path d="M78.4920635,34.6088889 L59.7352381,34.6088889 C59.7339683,34.6088889 59.7339683,34.6088889 59.7339683,34.6088889 L59.3911111,34.6088889 L59.3911111,15.5079365 C59.3911111,15.2273016 59.1638095,15 58.8831746,15 L35.1168254,15 C34.8361905,15 34.6088889,15.2273016 34.6088889,15.5079365 L34.6088889,34.6088889 L15.5079365,34.6088889 C15.2273016,34.6088889 15,34.8361905 15,35.1168254 L15,58.8831746 C15,59.1638095 15.2273016,59.3911111 15.5079365,59.3911111 L34.6088889,59.3911111 L34.6088889,78.4920635 C34.6088889,78.7726984 34.8361905,79 35.1168254,79 L58.8831746,79 C59.1638095,79 59.3911111,78.7726984 59.3911111,78.4920635 L59.3911111,59.3911111 L78.4920635,59.3911111 C78.7726984,59.3911111 79,59.1638095 79,58.8831746 L79,35.1168254 C79,34.8361905 78.7726984,34.6088889 78.4920635,34.6088889 Z M59.0722946,58.2754027 C58.7795336,58.2754027 58.5400019,58.4996302 58.5400019,58.773686 L58.5400019,77.5116279 L56.3203416,77.5116279 L54.4959086,73.2425861 C54.1406033,72.410453 53.527136,71.7041365 52.7233742,71.198379 C51.9848181,70.7349756 51.3274367,70.1756526 50.7671987,69.5341129 C50.2668437,68.9598415 49.8476632,68.3232846 49.5229647,67.643128 C48.9920028,66.5282192 47.9926234,65.6574692 46.7843191,65.2538597 L41.9431176,63.6356849 C40.9610377,63.3068179 40.3023256,62.4310851 40.3023256,61.4544499 L40.3023256,59.9396688 C40.3023256,59.3217976 40.5591568,58.7400519 41.0262436,58.3028083 L41.6224113,57.744731 C41.9085186,57.4769038 42.1400659,57.1741967 42.3090688,56.8453298 C42.8320463,55.8238491 43.8380794,54.3925304 45.6478743,53.3722955 C46.7177825,52.7706184 47.9008029,52.4006431 49.1663287,52.2748266 C49.4364672,52.2486667 49.6427306,52.0344049 49.6427306,51.7790347 L49.6427306,47.744186 C50.7299383,48.0294532 52.4545664,48.713347 53.656217,50.3165734 C54.0008765,50.7774854 54.2803301,51.2844886 54.4852628,51.8226345 C54.8272608,52.7207901 55.4726656,53.4918834 56.3030421,53.9926581 C57.2452001,54.5594553 58.0276703,55.2807203 58.6291609,56.1340304 C59.0922555,56.7917643 59.4329228,57.5105379 59.6511628,58.2754027 L59.0722946,58.2754027 L59.0722946,58.2754027 Z M60.0106812,58.2688599 C59.7754507,57.3020352 59.4788857,56.2510925 58.9135528,55.4279175 C58.2468499,54.4548472 57.3268989,53.7887148 56.2846069,53.144165 C56.0767395,53.0155205 55.7075896,52.3708479 55.1771571,51.2101473 C54.9445259,50.5843345 54.2554854,50.0595899 53.8656006,49.5249634 C52.2046915,47.2503023 49.5927077,46.6645725 48.5842058,46.4821999 C48.4321507,46.4547191 48.2748972,46.4934421 48.1553325,46.5883758 C48.0370675,46.6833095 47.9681878,46.8244609 47.9681878,46.973107 L47.9681878,51.2101473 C46.7543466,51.3912708 45.6132839,51.7872442 44.5709919,52.3905728 C44.560595,52.3955693 44.5501981,52.403064 44.5398011,52.4093097 L43.4689177,51.3800287 C42.5448908,50.491899 41.3219522,49.9260443 40.023636,49.7873912 L34.613335,49.2102943 C32.7652812,49.0129321 31.372093,47.5164775 31.372093,45.7302252 C31.372093,43.9889415 32.6704093,42.5337081 34.46128,42.2688931 L37.1514849,41.8716705 C38.3640265,41.6917962 39.4635015,41.1559205 40.3316449,40.3215034 L43.4091353,37.3635696 C45.1337256,35.7059774 47.3885592,34.7453984 49.8058447,34.6267313 C49.4094619,35.3474779 49.1846283,36.1669055 49.1846283,37.0362982 C49.1846283,37.3123553 49.4172595,37.5359492 49.7044747,37.5359492 C49.9903902,37.5359492 50.224321,37.3123553 50.224321,37.0362982 C50.224321,34.7341563 52.1724452,32.8604651 54.5689369,32.8604651 C55.7476885,32.8604651 56.8809536,33.3263897 57.6971123,34.1408208 L57.6971123,35.2837724 C57.6971123,35.5585804 57.9310432,35.7834233 58.2169587,35.7834233 L58.713412,35.7834233 C58.8459728,36.1868915 58.9135528,36.6065983 58.9135528,37.0362982 L58.9135528,42.297623 C58.9135528,44.27749 57.2370483,45.8888644 55.1771571,45.8888644 C53.1159663,45.8888644 51.4394619,44.27749 51.4394619,42.297623 C51.4394619,42.0215658 51.2068306,41.797972 50.9196155,41.797972 C50.6324004,41.797972 50.3997692,42.0215658 50.3997692,42.297623 C50.3997692,44.8283552 52.5428357,46.8881664 55.1771571,46.8881664 C57.0161136,46.8881664 58.6146411,45.8838679 59.4126053,44.414894 C59.8817666,45.9125978 60.5614657,47.2579081 61.4452045,48.4345861 C62.4134184,49.7236857 63.412823,50.5481098 64.3784376,51.3450531 C65.5298973,52.2943899 66.6163761,53.1912635 67.4858192,54.8013887 C68.0407551,55.8281715 68.451828,57.0634519 68.6259766,58.2688599" id="Shape" fill="#0BC1BB"></path>
            <path d="M47.0140467,0.00111112036 C34.5457781,-0.00508893123 22.5917631,4.94289827 13.7764409,13.7599557 C4.96000756,22.5708227 0.00619008944,34.5252079 0,46.9888036 C0,59.457955 4.94762739,71.4128163 13.7640607,80.2287627 C22.5743039,89.0458202 34.5278427,94 46.996905,94 C59.4589835,94.0061884 71.4128398,89.0520107 80.2297492,80.2349532 C89.0461825,71.4240863 94,59.4697011 94,46.9997561 C93.9876008,34.5429858 89.0338023,22.5947912 80.2235591,13.7836067 C71.419506,4.97273978 59.4724747,0.0185715831 47.0161101,-7.10542736e-15 L47.0140467,0.00111112036 Z M4.79128795,46.9999148 C4.79128795,35.8018852 9.24291458,25.0632244 17.1603564,17.1441109 C25.0777982,9.2261085 35.8163337,4.78035723 47.0140467,4.78035723 C58.2117598,4.78035723 68.9491842,9.2261085 76.8677371,17.1441109 C84.7851789,25.0621133 89.2368055,35.801409 89.2368055,46.9999148 C89.2368055,58.1979445 84.7851789,68.9366053 76.8677371,76.8557188 C68.9502952,84.7737212 58.2117598,89.225663 47.0140467,89.225663 C35.8229999,89.2070612 25.0916069,84.7551496 17.1794028,76.8371472 C9.26196101,68.9253353 4.81033438,58.1925476 4.79128795,47.000391 L4.79128795,46.9999148 Z" id="Shape" fill="#222222"></path>
        </g>
    </g>
</svg>