<?xml version="1.0" encoding="UTF-8"?>
<svg width="94px" height="94px" viewBox="0 0 94 94" version="1.1" xmlns="http://www.w3.org/2000/svg" xmlns:xlink="http://www.w3.org/1999/xlink">
    <title>veterinary</title>
    <g id="Page-1" stroke="none" stroke-width="1" fill="none" fill-rule="evenodd">
        <g id="veterinary" transform="translate(0.500080, 0.172155)" fill-rule="nonzero">
            <path d="M91.80092,36.5468448 L84.12902,34.9687448 C83.40636,32.5664448 82.45322,30.2382448 81.28132,28.0195448 L85.57042,21.5078448 C85.96105,20.9140948 85.88292,20.1250448 85.37901,19.6172448 L73.37901,7.61724484 C72.87901,7.11333484 72.09381,7.03521484 71.50011,7.42974484 L65.03921,11.6797448 C62.80481,10.4805448 60.46111,9.50004484 58.03921,8.75004484 L56.50011,1.19924484 C56.35558,0.500022292 55.7423,-0.00385515674 55.03131,2.22922516e-05 L38.03131,2.22922516e-05 C37.31647,-0.00386115674 36.70321,0.500044843 36.55861,1.19924484 L35.00001,8.75004484 C32.57811,9.50004484 30.23441,10.4805448 28.00001,11.6797448 L21.50001,7.42974484 C20.90626,7.03912484 20.11721,7.12115484 19.62111,7.62896484 L7.62111,19.6289648 C7.1172,20.1328748 7.03908,20.9219648 7.4297,21.5195648 L11.7188,28.0312648 L11.7188,28.0273588 C10.5469,30.2617588 9.5899,32.6093588 8.8711,35.0273588 L1.1992,36.5468588 C0.50389,36.6952988 0.0039,37.3046688 0,38.0195588 L0,55.0195588 C0,55.7304988 0.50391,56.3398588 1.1992,56.4765588 L8.9687,58.0859588 L8.9687,58.0898658 C9.70308,60.4179658 10.6562,62.6757658 11.8085,64.8281658 L7.4296,71.4765658 C7.03897,72.0742258 7.1171,72.8632658 7.62101,73.3671658 L19.62101,85.3671658 C20.1171,85.8788858 20.91011,85.9609158 21.49991,85.5585758 L28.21871,81.1483758 C30.36321,82.2733758 32.60541,83.1991758 34.92181,83.9061758 L36.55071,91.8280758 C36.69524,92.5233858 37.30852,93.0194987 38.01951,93.0194987 L55.01951,93.0194987 C55.73435,93.0233818 56.35151,92.5272858 56.50001,91.8280758 L58.12891,83.9374758 C60.44531,83.2304458 62.68751,82.3046758 64.82811,81.1796758 L71.5,85.5663758 C72.09376,85.9569958 72.87891,85.8788758 73.37891,85.3788758 L85.37891,73.3788758 C85.88282,72.8710658 85.96094,72.0858758 85.57032,71.4882758 L81.19142,64.8280758 C82.34762,62.6600758 83.29692,60.3866758 84.03122,58.0389758 L91.80072,56.4295758 C92.49603,56.2889558 92.99992,55.6795758 92.99992,54.9686758 L92.99992,37.9686758 C92.972576,37.2772658 92.47648,36.6913758 91.80072,36.5467758 L91.80092,36.5468448 Z M90.000515,53.7578448 L82.55092,55.2969448 C82.00014,55.4102248 81.56264,55.8203848 81.41032,56.3594448 C80.62907,59.0821448 79.53142,61.7071448 78.14082,64.1797448 C77.84785,64.6563048 77.84785,65.2578448 78.14082,65.7383448 L82.34002,72.1289448 L72.12902,82.3989448 L65.67982,78.1606448 L65.67982,78.1567388 C65.21498,77.8481488 64.61732,77.8286188 64.12902,78.0981448 C61.67982,79.4614448 59.07822,80.5317448 56.37902,81.2895448 C55.84777,81.4497048 55.44152,81.8872048 55.32042,82.4301448 L53.76182,90.0004448 L39.23882,90.0004448 L37.68022,82.4301448 C37.55913,81.8871748 37.15288,81.4496748 36.62162,81.2895448 C33.92242,80.5317348 31.32082,79.4614448 28.87162,78.0981448 C28.38334,77.8286148 27.78572,77.8481448 27.32082,78.1567388 L20.87162,82.3950388 L10.60962,72.1290388 L14.80882,65.7384388 C15.12132,65.2696888 15.14085,64.6642388 14.859601,64.1798388 C13.469001,61.7071388 12.371301,59.0821388 11.590101,56.3595388 C11.449481,55.8321988 11.031511,55.4259488 10.500301,55.2970388 L3.000301,53.7579388 L3.000301,39.2379388 L10.359701,37.7262388 C10.910481,37.6090488 11.347981,37.1988988 11.500301,36.6559388 C12.265921,33.8707388 13.363601,31.1832388 14.769801,28.6559388 C15.043241,28.1676588 15.019801,27.5661388 14.711208,27.0973388 L10.609608,20.8590388 L20.871608,10.6090388 L27.070808,14.6793388 C27.539558,14.9840288 28.141108,15.0074688 28.629408,14.7379328 C31.152808,13.3004328 33.836408,12.1754328 36.629408,11.3863328 C37.172378,11.2300828 37.582528,10.7886728 37.699708,10.2379328 L39.188008,2.99963284 L53.762008,2.99963284 L55.250308,10.2379328 C55.371398,10.7887128 55.781558,11.2301228 56.320608,11.3863328 C59.129208,12.1714928 61.832308,13.2965328 64.371408,14.7379328 C64.859688,15.0074628 65.461208,14.9840228 65.930008,14.6793388 L72.129208,10.6090388 L82.391208,20.8790388 L78.289608,27.1173388 C77.981018,27.5860888 77.957578,28.1876388 78.231015,28.6798388 C79.637215,31.2032388 80.734915,33.8907388 81.500515,36.6798388 C81.652855,37.2188988 82.090355,37.6329688 82.641115,37.7501388 L90.000515,39.2618388 L90.000515,53.7578448 Z" id="Shape" fill="#222222"></path>
            <path d="M46.49992,16.7378448 C38.64442,16.7339388 31.11292,19.8511448 25.55892,25.4058448 C20.00422,30.9566448 16.88312,38.4878448 16.87922,46.3398448 C16.87922,54.1953448 19.99642,61.7268448 25.55112,67.2808448 C31.10192,72.8355448 38.63312,75.9566485 46.48912,75.9566485 C54.34072,75.9605508 61.87212,72.8394448 67.42712,67.2847448 C72.98182,61.7339448 76.10292,54.2027448 76.10292,46.3467448 C76.095108,38.4990448 72.97402,30.9717448 67.42322,25.4207448 C61.87632,19.8699448 54.34922,16.7488448 46.50122,16.7371448 L46.49992,16.7378448 Z M19.89792,46.3468448 C19.89792,39.2921448 22.70262,32.5268448 27.69092,27.5378448 C32.67922,22.5495448 39.44492,19.7487448 46.49992,19.7487448 C53.55492,19.7487448 60.31992,22.5495448 65.30892,27.5378448 C70.29722,32.5261448 73.10192,39.2918448 73.10192,46.3468448 C73.10192,53.4015448 70.29722,60.1668448 65.30892,65.1558448 C60.32062,70.1441448 53.55492,72.9488448 46.49992,72.9488448 C39.44912,72.9371258 32.68792,70.1324448 27.70292,65.1441448 C22.71462,60.1597448 19.90992,53.3981448 19.89792,46.3471448 L19.89792,46.3468448 Z" id="Shape" fill="#0BC1BB"></path>
            <path d="M68.69139,46.3673448 C68.46483,44.5900448 67.27339,43.0861448 65.59369,42.4571448 C63.91789,41.8282348 62.02729,42.1798048 60.69139,43.3673048 C57.78519,45.6720048 56.31639,49.3439048 56.82809,53.0196048 C55.62109,50.4649048 53.70309,48.3165048 51.30079,46.8282048 C52.11329,47.2578948 53.01959,47.4883648 53.94139,47.5000848 L54.36327,47.5000848 C56.601564,47.2188348 58.542964,45.8047848 59.499964,43.7578848 C60.667964,41.5351848 61.164064,39.0195848 60.929664,36.5195848 C60.808574,34.0156848 59.960914,31.6015848 58.499964,29.5664848 C57.296864,27.6367848 55.124964,26.5312848 52.855464,26.7031848 C50.585964,26.8711548 48.601564,28.2890848 47.699264,30.3789848 C47.121144,31.4258848 46.714884,32.5625848 46.488364,33.7383848 C46.257894,32.5625848 45.847744,31.4297848 45.269564,30.3789848 C44.296904,28.3516848 42.351564,26.9687848 40.121164,26.7070848 C37.871164,26.6289598 35.738364,27.7070848 34.468864,29.5664848 C32.980564,31.5937848 32.113364,34.0078848 31.968864,36.5195848 C31.742304,39.0195848 32.242304,41.5351848 33.410264,43.7578848 C34.371204,45.7656848 36.289164,47.1484848 38.500064,47.4297848 L38.921944,47.4297848 C39.750064,47.4180668 40.570344,47.2305648 41.320344,46.8790048 C39.039144,48.3478048 37.210944,50.4259048 36.050844,52.8790048 C36.164124,51.3634048 35.941464,49.8438048 35.398504,48.4298048 C34.761784,46.6407048 33.617304,45.0782048 32.109404,43.9298048 C30.734404,42.8165048 28.890604,42.4806048 27.211004,43.0274648 C25.589904,43.7188748 24.425804,45.1836648 24.121204,46.9180648 C23.402454,50.7188648 24.859484,54.6055648 27.898504,57.0000648 C28.863344,57.7266248 30.031304,58.1367648 31.238304,58.1680648 C32.636704,58.1680648 33.949204,57.5079048 34.781304,56.3868648 C34.601614,57.1056148 34.441464,57.8477648 34.320364,58.6485648 C33.789114,62.3204648 34.320364,64.7266648 35.859464,66.0196648 C36.707124,66.7032548 37.773564,67.0587648 38.859464,67.0196648 C40.632864,66.8946648 42.375064,66.4845048 44.019664,65.8087648 C44.800914,65.4962648 45.613464,65.2618848 46.441564,65.1095448 C47.269684,65.2618848 48.078264,65.4962648 48.859564,65.8087648 C51.488464,66.7306448 54.769764,67.8673648 56.980664,66.0470448 C58.500164,64.7072448 59.019764,62.2970448 58.500164,58.6290448 C58.355634,57.5860448 58.125164,56.5548448 57.820474,55.5470448 C58.351724,56.3595448 59.125174,56.9845448 60.031374,57.3282448 C60.531374,57.5157448 61.062574,57.6094948 61.601674,57.6094948 C64.199374,57.6094948 66.910274,55.3867948 68.211074,51.9297948 C68.90233,50.1603448 69.06639,48.2306448 68.69139,46.3673448 Z M32.96892,53.2970448 C32.86736,54.0470448 32.41423,54.6993448 31.75012,55.0587448 C31.01184,55.2228048 30.24232,55.0314008 29.67202,54.5392148 C27.59392,52.8517148 26.59392,50.1720148 27.05092,47.5392148 C27.16811,46.8048348 27.62514,46.1720148 28.28142,45.8283148 C28.44548,45.7697208 28.61736,45.7384708 28.78923,45.7384708 C29.36345,45.7814398 29.91033,45.9962808 30.35953,46.3478508 C32.42593,48.0431508 33.42203,50.7150508 32.96893,53.3478508 L32.96892,53.2970448 Z M55.03892,63.6880448 C54.14048,64.4263248 51.53892,63.5278848 49.82012,62.9263248 L49.82012,62.9302308 C48.74202,62.4771108 47.60132,62.1841408 46.44122,62.0591408 L46.37872,62.0591408 C45.21852,62.1841408 44.07792,62.4771108 42.99982,62.9302308 C41.28102,63.5317908 38.67952,64.4302308 37.78102,63.6919508 C37.47243,63.4302308 36.78102,62.4731508 37.30055,59.0630508 C38.30055,51.8833508 42.55055,49.0630508 45.89035,48.0630508 L45.89035,48.0591448 C46.21457,47.9575848 46.56223,47.9575848 46.89035,48.0591448 C50.23015,49.1177448 54.44115,51.8989448 55.48015,59.0591448 C56.01921,62.4693448 55.35124,63.4302448 55.03874,63.6880448 L55.03892,63.6880448 Z M53.03892,29.6880448 C54.25372,29.7544508 55.36702,30.3872648 56.03892,31.3989448 C57.16392,32.9614448 57.81232,34.8091448 57.92172,36.7270448 C58.10922,38.6411448 57.73813,40.5708448 56.85922,42.2778448 C56.33578,43.3989448 55.30452,44.1997448 54.08972,44.4301448 C52.85922,44.3754578 51.72642,43.7426448 51.03892,42.7192448 C48.83582,39.4965448 48.53892,35.3325448 50.26158,31.8282448 C50.78892,30.7149448 51.82018,29.9259448 53.03108,29.6993448 L53.03892,29.6880448 Z M35.96892,42.2900448 C34.26192,38.7783448 34.57832,34.6220448 36.78923,31.4070448 C37.44939,30.4422048 38.49623,29.8172448 39.66033,29.6882448 L39.84002,29.6882448 C41.05482,29.9187148 42.08222,30.7116448 42.60952,31.8288448 C44.31652,35.3366448 44.00402,39.4929448 41.78921,42.7078448 C41.11734,43.7234448 40.00401,44.3562448 38.78921,44.4187448 C37.55871,44.2078048 36.50801,43.4148448 35.96891,42.2898448 L35.96892,42.2900448 Z M44.16032,44.5712448 L44.16032,44.5673378 C45.32052,43.0087378 46.10172,41.2001378 46.44152,39.2900378 C46.77355,41.2041378 47.55092,43.0127378 48.71102,44.5673378 C49.24618,45.2704578 49.89072,45.8798378 50.62122,46.3798378 C49.7345,45.8915578 48.80092,45.4892178 47.84002,45.1806378 C46.91033,44.8876678 45.91032,44.8876678 44.98062,45.1806378 C44.09781,45.4618878 43.24622,45.8251678 42.42982,46.2587378 C43.08216,45.7782678 43.66422,45.2118378 44.16032,44.5673378 L44.16032,44.5712448 Z M61.07032,54.5204448 C59.85152,54.0595048 59.19922,51.6493448 60.21876,48.9306448 C60.66798,47.7001448 61.45706,46.6220448 62.49996,45.8290448 C62.95308,45.4735748 63.49605,45.2626348 64.07026,45.2196648 C64.24214,45.2196648 64.41792,45.2509148 64.57807,45.3095088 C65.24604,45.6649788 65.70307,46.3212088 65.80857,47.0673088 C66.02732,48.3368088 65.882788,49.6376088 65.39841,50.8290088 C64.37891,53.5985088 62.30071,54.9774088 61.07031,54.5204088 L61.07032,54.5204448 Z" id="Shape" fill="#222222"></path>
        </g>
    </g>
</svg>