<svg xmlns="http://www.w3.org/2000/svg" version="1.1" xmlns:xlink="http://www.w3.org/1999/xlink" xmlns:svgjs="http://svgjs.com/svgjs" width="247px" height="95px"><svg width="247px" height="95px" viewBox="0 0 247 95" version="1.1" xmlns="http://www.w3.org/2000/svg" xmlns:xlink="http://www.w3.org/1999/xlink">
    <title>Mountain</title>
    <g id="SvgjsG1002" stroke="none" stroke-width="1" fill="none" fill-rule="evenodd">
        <g id="SvgjsG1001" transform="translate(-87.780000, 0.000000)" fill="#000000" fill-rule="nonzero">
            <path d="M204.260469,0 L238.78,33.1956798 L261.401094,23.1766201 L300.820283,59.3302199 L315.78,64.0978399 L334.78,79 L334.78,83 L317.78,72 L323.78,79.050498 L318.78,79 L326.78,87.025249 L286.78,66.0915276 L296.78,68.0852154 L273.78,49.1451818 L277.78,49.1451818 L261.78,33.1956798 L267.78,48.1483379 L261.78,48.1483379 L278.78,65.0946838 L272.78,64.0978399 C274.212793,65.2369871 289.190011,76.1758581 290.87375,77.5046112 C297.292745,82.6254388 303.079893,89.0960216 308.78,95 C296.237329,89.1466027 289.237329,85.8237898 287.78,85.0315613 C292.446667,91.6771871 294.78,95 294.78,95 L267.78,80.0473419 C269.78,84.69928 270.78,87.025249 270.78,87.025249 L253.78,78.0536541 L259.78,91.0126245 C254.869928,86.8742047 248.203261,79.5640163 239.78,69.0820593 L248.78,68.0852154 L229.78,55.126245 L215.78,36.1862114 L234.78,45.1578063 L208.78,22.2303972 L215.78,24.2240849 L205.78,11.2651146 C199.78,16.5816152 196.78,19.2398656 196.78,19.2398656 L200.78,18.2430217 C199.13,20.8746895 197.48,23.5063573 195.78,26.2177727 C196.3025,25.8751076 198.635833,24.5459824 202.78,22.2303972 L197.78,33.1956798 L184.78,45.1578063 L188.78,35.1893675 L179.78,39.176743 L166.78,52.1357134 L175.78,50.1420257 L164.78,64.0978399 L143.78,82.0410296 L159.78,61.1073083 L111.78,95 L129.78,69.0820593 L150.78,55.126245 C159.445256,44.3923143 164.111923,38.7435323 164.78,38.1798992 L159.78,32.1988359 L148.78,43.1641185 L156.78,42.1672747 L148.78,53.1325573 L133.78,64.0978399 L131.78,60.1104644 L93.78,95 L103.78,77.0568103 L97.78,79 L98.78,74 L88.78,83 L87.78,79 L101.78,67 L114.78,64.0978399 L158.307344,23.3090134 L167.401094,27.6663114 L204.260469,0 Z" id="SvgjsPath1000"></path>
        </g>
    </g>
</svg><style>@media (prefers-color-scheme: light) { :root { filter: none; } }
@media (prefers-color-scheme: dark) { :root { filter: invert(100%); } }
</style></svg>