<?xml version="1.0" standalone="no"?>
<!DOCTYPE svg PUBLIC "-//W3C//DTD SVG 20010904//EN"
 "http://www.w3.org/TR/2001/REC-SVG-20010904/DTD/svg10.dtd">
<svg version="1.0" xmlns="http://www.w3.org/2000/svg"
 width="710.000000pt" height="710.000000pt" viewBox="0 0 710.000000 710.000000"
 preserveAspectRatio="xMidYMid meet">
<metadata>
Created by potrace 1.14, written by Peter Selinger 2001-2017
</metadata>
<g transform="translate(0.000000,710.000000) scale(0.100000,-0.100000)"
fill="#000000" stroke="none">
<path d="M3297 6804 c-3 -3 -29 -7 -58 -9 -103 -9 -172 -17 -244 -31 -11 -2
-47 -9 -80 -15 -75 -14 -90 -17 -90 -19 0 -2 -15 -5 -55 -13 -138 -27 -572
-182 -592 -211 -4 -6 -8 -8 -8 -4 0 7 -174 -81 -258 -131 -29 -17 -57 -31 -62
-31 -6 0 -10 -4 -10 -10 0 -5 -6 -10 -14 -10 -8 0 -16 -3 -18 -8 -2 -4 -34
-27 -73 -52 -38 -24 -72 -47 -75 -50 -3 -3 -30 -23 -60 -45 -30 -22 -60 -44
-67 -50 -7 -5 -18 -15 -25 -21 -210 -172 -397 -365 -561 -577 -12 -15 -27 -33
-33 -40 -42 -49 -244 -379 -273 -447 -6 -14 -15 -32 -21 -40 -27 -41 -133
-298 -128 -311 2 -4 46 20 99 53 l95 61 73 145 c61 120 182 329 213 367 5 6
26 35 48 65 47 65 43 60 100 130 25 30 54 66 65 80 42 53 259 268 338 335 208
179 430 324 671 440 123 59 157 74 181 81 6 2 51 19 101 38 136 53 336 108
514 142 35 6 44 8 135 19 27 4 61 8 75 10 152 24 513 23 703 -1 18 -2 55 -6
82 -9 28 -4 69 -10 93 -16 23 -5 59 -12 80 -15 20 -3 45 -7 54 -10 9 -3 25 -6
35 -8 207 -41 514 -157 763 -288 101 -53 378 -229 413 -261 6 -7 32 -28 57
-47 25 -19 60 -48 78 -64 18 -17 42 -37 53 -46 50 -38 227 -219 319 -326 50
-58 160 -205 160 -213 0 -5 4 -11 8 -13 10 -4 92 -124 92 -134 0 -4 6 -15 14
-23 20 -23 89 -149 147 -268 27 -57 60 -110 72 -118 52 -37 179 -116 182 -113
6 6 -79 208 -133 318 -58 118 -96 185 -147 266 -19 30 -35 57 -35 60 0 3 -6
12 -12 19 -26 29 -36 42 -48 66 -12 22 -67 97 -80 109 -3 3 -17 21 -30 40 -13
19 -29 40 -35 46 -5 6 -35 41 -65 77 -74 89 -296 308 -395 389 -44 36 -125 97
-180 137 -55 39 -104 74 -110 79 -20 15 -70 46 -75 47 -3 0 -16 8 -30 17 -96
63 -272 151 -465 233 -133 56 -455 153 -565 170 -14 3 -65 11 -115 20 -49 8
-112 18 -140 20 -27 3 -63 8 -80 11 -38 7 -562 14 -568 8z"/>
<path d="M3526 6528 c-21 -12 -45 -14 -191 -22 -55 -3 -116 -8 -135 -11 -19
-2 -55 -7 -80 -10 -25 -3 -101 -17 -170 -31 -432 -87 -853 -279 -1205 -548
-306 -235 -576 -540 -764 -864 -24 -41 -41 -76 -38 -78 3 -3 20 5 39 17 31 20
47 41 98 128 29 50 190 270 220 301 8 9 30 34 48 55 101 120 290 297 431 402
53 40 101 76 106 81 17 13 167 107 220 137 71 41 249 128 325 160 69 28 319
114 352 120 11 2 28 7 38 10 10 3 27 8 38 10 11 2 62 12 113 23 52 11 119 23
149 27 30 3 68 8 84 11 16 3 62 7 103 9 41 3 79 7 83 10 5 3 11 2 14 -3 4 -7
-404 -274 -431 -280 -7 -2 -13 -7 -13 -12 0 -4 -8 -10 -17 -14 -18 -5 -54 -26
-63 -36 -3 -3 -86 -57 -185 -119 -99 -63 -202 -129 -230 -146 -284 -183 -472
-301 -484 -308 -9 -4 -67 -40 -128 -80 -62 -39 -213 -136 -335 -213 -123 -78
-243 -155 -267 -170 -24 -16 -51 -33 -60 -39 -8 -5 -47 -30 -86 -55 -39 -25
-78 -49 -88 -55 -71 -42 -253 -161 -255 -167 -2 -4 -8 -8 -12 -8 -8 0 -216
-130 -477 -299 -40 -25 -111 -70 -158 -100 -77 -49 -111 -75 -68 -53 10 5 43
21 73 35 30 14 95 44 145 67 137 64 155 70 147 45 -2 -5 -5 -17 -7 -25 -2 -8
-15 -60 -28 -115 -14 -55 -27 -116 -31 -135 -3 -19 -8 -44 -10 -55 -2 -11 -7
-40 -10 -65 -3 -25 -8 -55 -10 -68 -4 -20 -8 -51 -22 -207 -6 -62 -5 -413 1
-480 5 -64 14 -144 20 -185 2 -14 7 -45 10 -70 3 -25 10 -67 15 -95 6 -27 12
-59 14 -70 82 -426 291 -894 565 -1265 164 -222 439 -506 621 -640 18 -14 45
-34 59 -46 40 -33 260 -177 322 -212 162 -89 368 -189 434 -208 6 -2 42 -15
80 -30 66 -25 276 -90 320 -99 11 -2 65 -13 120 -25 55 -12 114 -23 130 -25
17 -2 46 -7 65 -10 144 -24 241 -29 480 -29 297 0 442 14 678 65 217 46 497
138 651 213 30 14 58 26 62 26 15 0 289 155 384 217 90 59 261 186 340 253 42
35 323 317 365 366 80 93 233 303 297 409 97 159 224 418 269 550 69 198 120
369 140 470 4 22 8 42 9 45 0 3 4 27 9 53 4 27 9 59 12 70 2 12 6 42 9 67 3
25 8 61 11 80 11 82 17 206 17 365 0 153 -10 372 -18 385 -2 3 -6 34 -10 70
-8 82 -48 278 -78 393 -13 48 -23 87 -21 87 1 0 44 -20 96 -43 202 -95 278
-128 278 -123 0 4 -126 87 -146 96 -6 3 -138 86 -293 185 -155 99 -289 185
-298 190 -9 6 -57 36 -106 68 -49 31 -90 57 -93 57 -2 0 -27 16 -54 35 -27 19
-52 35 -56 35 -3 0 -20 10 -37 23 -18 12 -41 27 -52 34 -33 20 -164 103 -265
168 -52 34 -162 104 -245 157 -495 313 -880 558 -950 603 -44 28 -98 62 -120
75 -22 13 -41 28 -43 32 -2 4 -7 8 -11 8 -5 0 -113 67 -242 150 -129 82 -262
166 -296 187 -40 23 -58 40 -51 44 7 4 16 5 20 3 4 -3 41 -7 81 -10 39 -2 88
-7 107 -9 19 -3 53 -8 75 -11 112 -14 203 -33 319 -66 38 -11 76 -21 85 -23
76 -16 298 -103 439 -171 164 -80 386 -215 491 -300 52 -41 150 -122 175 -144
100 -87 288 -288 356 -379 14 -19 33 -43 43 -54 26 -30 187 -274 187 -284 1
-8 90 -66 90 -58 0 10 -134 230 -142 233 -4 2 -8 8 -8 12 0 14 -140 197 -217
287 -111 127 -211 224 -383 371 -14 12 -89 69 -151 115 -22 16 -148 98 -209
135 -14 9 -26 14 -26 11 -1 -2 -10 3 -20 12 -25 20 -155 87 -273 139 -253 111
-508 180 -832 224 -56 8 -199 18 -254 18 -27 0 -59 7 -70 14 -23 17 -25 17
-49 2z m52 -628 c20 -11 86 -42 477 -220 160 -73 328 -150 373 -171 46 -22 86
-39 88 -39 1 0 45 -20 96 -44 51 -24 120 -56 153 -71 160 -73 409 -187 424
-195 9 -4 39 -18 66 -30 77 -34 152 -69 243 -111 46 -22 85 -39 86 -39 2 0 53
-23 112 -51 173 -81 203 -94 309 -142 232 -105 230 -103 247 -144 49 -116 87
-232 123 -373 23 -88 23 -90 45 -210 35 -198 44 -292 44 -495 0 -159 -9 -332
-19 -379 -2 -12 -7 -41 -10 -66 -22 -185 -91 -444 -172 -650 -104 -262 -233
-488 -412 -720 -90 -117 -110 -139 -241 -270 -135 -134 -179 -174 -285 -252
-5 -4 -23 -18 -40 -31 -135 -107 -485 -304 -625 -352 -3 -1 -14 -5 -25 -10
-49 -20 -121 -47 -130 -49 -44 -9 -56 -18 -49 -39 3 -12 7 -23 9 -24 3 -5 167
57 265 100 88 38 196 92 295 147 42 23 257 163 278 180 7 6 37 29 67 53 30 23
69 54 85 68 144 126 225 205 315 308 30 35 60 69 65 75 6 6 24 29 40 51 17 22
40 51 53 65 12 14 22 28 22 32 0 3 6 13 13 20 15 16 122 182 169 263 155 265
305 690 343 970 3 22 8 58 11 80 3 22 7 51 10 65 23 129 22 525 -2 705 -3 22
-7 54 -9 70 -2 17 -6 41 -9 55 -3 14 -10 54 -16 89 -10 53 -30 140 -55 231
-17 65 -47 156 -69 214 -14 37 -26 72 -26 77 0 5 15 1 33 -9 17 -10 57 -28 89
-41 41 -16 59 -30 67 -49 13 -35 50 -151 56 -180 7 -30 11 -47 30 -127 9 -38
19 -81 21 -95 2 -14 10 -68 19 -120 25 -155 29 -223 30 -465 0 -204 -6 -325
-19 -405 -3 -14 -7 -47 -11 -75 -3 -27 -10 -68 -15 -90 -5 -22 -11 -51 -13
-65 -50 -277 -181 -623 -348 -916 -304 -533 -774 -975 -1323 -1246 -106 -53
-290 -131 -336 -143 -3 -1 -12 -4 -20 -8 -125 -48 -440 -125 -585 -141 -27 -4
-66 -8 -86 -11 -178 -23 -640 -23 -719 0 -8 3 -32 7 -54 10 -59 7 -109 15
-136 21 -14 3 -37 7 -51 9 -14 2 -64 13 -110 25 -46 11 -95 23 -108 26 -56 12
-248 78 -362 125 -135 55 -338 158 -427 216 -31 21 -68 43 -81 50 -25 14 -228
160 -247 178 -6 5 -31 26 -55 45 -60 48 -324 312 -386 385 -27 33 -69 87 -94
120 -24 33 -46 62 -50 65 -41 35 -319 518 -319 554 0 3 -11 29 -24 58 -24 53
-70 169 -71 178 -1 3 -13 43 -28 90 -42 136 -77 271 -92 363 -3 18 -10 58 -16
90 -10 60 -12 72 -26 212 -14 140 -8 523 11 655 5 39 28 184 31 195 1 6 5 28
9 50 15 74 47 200 77 295 28 90 32 96 67 111 20 9 63 28 94 42 l57 26 -26 -67
c-32 -86 -62 -179 -89 -277 -5 -19 -14 -55 -19 -77 -3 -13 -10 -48 -17 -78 -6
-30 -13 -64 -14 -75 -1 -11 -7 -47 -12 -80 -10 -57 -20 -144 -28 -245 -11
-129 -4 -464 11 -542 3 -13 7 -43 10 -68 18 -151 60 -335 122 -525 36 -112
129 -338 168 -410 12 -22 37 -67 55 -100 52 -96 197 -318 212 -323 4 -2 8 -10
8 -17 0 -7 3 -15 8 -17 4 -2 36 -39 71 -83 131 -163 437 -450 566 -531 17 -10
32 -21 35 -24 16 -17 146 -99 245 -155 98 -55 242 -123 350 -165 61 -23 119
-46 130 -51 41 -17 60 -15 63 8 2 15 -3 23 -20 28 -84 26 -341 136 -438 188
-167 91 -377 227 -438 285 -8 7 -30 25 -50 40 -77 57 -298 272 -366 356 -17
21 -36 43 -41 50 -25 28 -115 146 -115 151 0 3 -8 14 -17 25 -52 55 -230 373
-286 510 -11 25 -25 59 -32 75 -7 17 -20 53 -30 80 -9 28 -21 59 -26 70 -22
50 -95 334 -104 405 -2 14 -8 52 -14 85 -38 233 -46 597 -17 775 3 14 7 52 11
85 8 71 49 279 63 315 5 14 10 27 10 30 1 27 87 295 102 315 4 6 10 21 13 35
4 17 20 32 44 44 36 17 558 256 668 306 28 13 92 42 143 66 52 24 95 44 97 44
1 0 45 20 96 44 52 24 119 55 149 69 30 13 84 38 120 55 36 16 115 52 175 80
61 27 154 71 208 96 55 25 100 46 102 46 2 0 47 21 102 46 54 25 114 52 133
61 19 8 42 19 50 24 8 5 22 12 30 15 40 16 163 71 270 121 41 20 111 52 155
72 44 20 96 44 115 53 42 20 55 21 78 8z"/>
<path d="M3258 5547 c-31 -23 -55 -47 -53 -53 4 -14 -11 -39 -25 -40 -5 -1
-14 -2 -18 -3 -5 0 -21 -12 -36 -25 -32 -26 -28 -42 18 -85 l26 -25 28 21 c15
11 29 31 31 44 3 24 17 39 37 39 15 0 233 -226 234 -242 0 -6 -89 -95 -272
-270 -78 -74 -88 -87 -88 -119 0 -34 1 -35 34 -31 30 3 61 30 207 178 l173
174 74 -78 c243 -255 284 -293 301 -280 25 20 61 62 61 72 0 13 -263 265 -348
333 l-23 18 130 133 c125 128 142 139 191 132 16 -2 -73 94 -103 111 -16 9
-17 6 -14 -27 4 -34 0 -41 -57 -98 -142 -139 -206 -198 -216 -194 -22 7 -193
185 -216 224 -21 36 -23 45 -13 68 7 15 27 31 46 38 45 16 42 28 -9 27 -34 0
-55 -9 -100 -42z"/>
<path d="M2075 4563 c-15 -10 -19 -28 -20 -88 -1 -77 1 -84 24 -62 10 9 15 9
18 0 2 -7 10 -10 17 -7 9 3 11 -5 9 -28 -2 -18 -4 -38 -5 -45 -1 -7 -5 -10
-10 -7 -5 3 -6 9 -3 14 3 4 -3 14 -12 21 -9 8 -14 9 -10 3 4 -7 -3 -15 -16
-19 -17 -5 -18 -8 -7 -12 27 -10 29 -26 8 -49 -24 -24 -29 -42 -28 -99 1 -22
1 -47 1 -55 -2 -163 7 -557 15 -635 4 -38 6 -74 6 -78 -1 -4 -4 -20 -5 -35 -2
-15 -6 -32 -9 -38 -4 -5 -4 -48 -1 -94 7 -97 7 -169 1 -293 -4 -83 -6 -89 -38
-122 -65 -67 -167 -71 -227 -10 -18 19 -34 44 -34 57 -1 13 -3 55 -5 93 -6 96
-6 112 -4 175 4 167 -6 219 -44 221 -11 0 -40 3 -63 5 -34 3 -43 1 -43 -11 0
-8 -4 -15 -10 -15 -5 0 -7 6 -4 14 4 12 -7 14 -60 12 -101 -4 -104 -10 -105
-187 0 -79 -2 -153 -4 -164 -2 -11 0 -38 5 -60 10 -42 11 -49 23 -130 13 -98
147 -259 253 -305 26 -12 56 -25 67 -31 11 -5 49 -12 85 -15 36 -3 81 -7 101
-9 20 -1 56 5 80 15 50 21 70 27 83 28 5 0 12 6 17 14 5 7 13 14 19 14 21 3
22 4 9 20 -10 13 -10 17 2 25 8 5 21 9 30 9 9 0 19 7 23 15 3 8 12 12 20 9 24
-9 81 61 90 109 6 34 15 49 26 42 10 -6 16 15 24 80 2 22 9 63 13 90 9 45 9
1478 1 1567 -2 21 -9 43 -16 50 -18 18 -263 20 -287 1z m151 -107 c-7 -38 -22
-54 -37 -39 -7 7 -2 23 12 47 25 43 34 41 25 -8z m-141 -206 c-3 -5 -10 -10
-16 -10 -5 0 -9 5 -9 10 0 6 7 10 16 10 8 0 12 -4 9 -10z m-430 -980 c3 -5 2
-10 -4 -10 -5 0 -13 5 -16 10 -3 6 -2 10 4 10 5 0 13 -4 16 -10z m-30 -50 c-3
-5 -11 -10 -16 -10 -6 0 -7 5 -4 10 3 6 11 10 16 10 6 0 7 -4 4 -10z m600
-147 c-4 -10 -7 -27 -6 -38 1 -11 -5 -29 -14 -40 -16 -20 -16 -19 -9 4 4 14 1
26 -6 31 -9 6 -6 16 11 39 24 32 37 35 24 4z m-60 -144 c-8 -12 -35 -12 -35 0
0 11 22 20 33 14 4 -2 5 -9 2 -14z m-452 -29 c-7 -8 -22 24 -16 34 4 5 10 1
13 -10 4 -10 6 -21 3 -24z m427 -40 c0 -28 -14 -48 -23 -33 -8 14 5 73 14 67
5 -3 9 -18 9 -34z m-496 -1 c-3 -5 -10 -7 -15 -3 -5 3 -7 10 -3 15 3 5 10 7
15 3 5 -3 7 -10 3 -15z m600 9 c-3 -4 -9 -8 -15 -8 -5 0 -9 4 -9 8 0 5 7 9 15
9 8 0 12 -4 9 -9z m-14 -33 c12 7 13 -6 2 -20 -7 -10 -82 -17 -82 -7 0 3 7 14
16 23 13 14 21 16 35 8 11 -5 24 -7 29 -4z m-125 -35 c3 -5 1 -10 -4 -10 -6 0
-11 5 -11 10 0 6 2 10 4 10 3 0 8 -4 11 -10z m-475 -75 c-11 -13 -50 -9 -50 5
0 5 9 6 20 3 12 -3 20 0 20 6 0 7 5 9 10 6 8 -5 8 -11 0 -20z m130 -20 c0 -17
-36 -75 -47 -75 -20 0 -16 25 10 54 20 23 37 33 37 21z m246 -20 c4 -8 12 -15
19 -15 15 0 29 -30 18 -40 -11 -10 -73 -30 -92 -30 -13 0 -13 2 -2 9 9 6 12
19 8 40 -5 23 -3 31 8 31 8 0 15 5 15 10 0 16 20 12 26 -5z m-103 -100 c-5
-13 -23 -22 -23 -11 0 15 14 35 21 31 4 -3 6 -12 2 -20z m-33 -69 c0 -3 -4 -8
-10 -11 -5 -3 -10 -1 -10 4 0 6 5 11 10 11 6 0 10 -2 10 -4z"/>
<path d="M4445 4571 c-3 -2 -68 -3 -147 -3 -78 0 -149 -3 -158 -8 -25 -13 -44
-114 -41 -215 2 -94 3 -188 3 -315 0 -92 -1 -436 -1 -785 0 -258 4 -709 7
-732 3 -17 83 -31 159 -27 99 5 125 15 135 50 9 33 4 555 -6 594 -8 35 -8 319
1 350 4 14 8 75 9 136 1 121 9 180 25 189 16 10 41 -65 44 -130 1 -34 12 -84
25 -115 20 -50 24 -66 33 -125 1 -11 5 -24 8 -30 3 -5 6 -25 7 -43 2 -19 8
-48 15 -65 8 -18 13 -52 12 -77 -1 -25 2 -51 8 -57 5 -7 7 -26 5 -43 -2 -16
-1 -31 3 -32 5 -2 10 -26 12 -54 2 -28 8 -57 13 -65 5 -8 9 -41 10 -74 2 -61
11 -105 23 -105 3 0 7 -25 8 -55 1 -30 7 -64 13 -75 6 -12 14 -47 16 -78 6
-76 34 -101 119 -108 56 -5 91 12 106 49 13 36 12 32 23 115 5 34 13 65 17 68
5 3 7 9 5 13 -3 4 0 25 6 47 12 43 12 45 28 164 15 117 19 135 31 167 6 15 13
48 15 73 7 62 12 88 18 99 3 4 8 28 11 52 3 24 12 68 19 96 8 29 12 62 9 72
-3 11 3 43 12 71 16 48 22 76 29 143 1 15 6 30 9 34 4 3 7 21 7 38 0 18 7 38
15 45 15 12 16 11 40 -58 7 -19 7 -252 0 -372 -4 -58 -6 -118 -5 -135 1 -30 2
-200 1 -305 0 -30 0 -95 2 -145 1 -49 -1 -108 -5 -130 -3 -22 -1 -48 4 -59 6
-10 10 -34 10 -52 0 -55 24 -75 93 -78 63 -3 87 6 78 30 -3 8 0 14 7 14 6 0
10 -10 8 -22 -2 -18 2 -22 24 -23 16 -1 25 2 21 8 -4 6 0 8 10 4 9 -3 26 2 38
12 l23 18 3 714 c3 687 3 807 1 894 -1 22 2 51 5 64 4 13 1 37 -7 55 -7 17
-10 45 -6 61 3 17 5 72 4 124 -2 79 -5 96 -22 114 l-21 20 -13 -29 c-7 -16
-21 -37 -30 -46 -10 -10 -18 -24 -18 -32 0 -7 -6 -19 -14 -26 -8 -6 -12 -18
-9 -26 5 -15 -24 -124 -34 -124 -2 0 -13 5 -24 10 -21 12 -26 32 -6 29 27 -3
37 2 37 21 0 25 -37 47 -53 31 -17 -17 -25 -13 -41 17 -8 15 -15 21 -16 14 0
-6 -6 -11 -12 -10 -7 2 -12 -3 -11 -9 4 -19 -37 -10 -53 11 -6 10 -16 16 -20
14 -5 -2 -15 10 -22 26 -11 22 -11 30 -2 36 15 9 15 14 -7 53 -10 17 -19 33
-20 35 -1 2 -10 -1 -21 -7 -24 -13 -35 -41 -38 -96 -2 -41 -5 -59 -24 -130 -6
-22 -13 -60 -16 -85 -3 -25 -10 -58 -16 -75 -6 -16 -14 -59 -18 -95 -4 -36
-10 -76 -14 -90 -4 -14 -13 -58 -21 -98 -8 -40 -18 -78 -22 -85 -4 -6 -8 -45
-9 -86 -1 -46 -7 -76 -14 -81 -7 -4 -14 -27 -16 -50 -2 -39 -16 -109 -34 -170
-10 -38 -33 -30 -46 16 -6 22 -19 55 -28 72 -9 17 -16 45 -16 62 0 17 -5 41
-11 52 -6 11 -12 48 -14 82 -2 34 -10 90 -19 126 -8 36 -34 162 -56 280 -22
118 -45 235 -50 260 -6 25 -12 54 -14 65 -2 11 -7 39 -11 62 -5 28 -14 44 -26
48 -11 4 -19 10 -19 15 0 8 -78 19 -85 11z m97 -79 c4 -4 -10 -6 -32 -4 -45 5
-48 0 -20 -30 29 -32 25 -62 -5 -40 -16 11 -32 55 -27 75 3 15 10 17 40 12 20
-3 40 -9 44 -13z m746 -134 c15 -15 16 -38 2 -38 -5 0 -10 7 -10 15 0 8 -4 15
-10 15 -5 0 -10 5 -10 10 0 14 13 13 28 -2z m117 -128 c21 0 25 -25 14 -82 -6
-29 -12 -69 -13 -88 -4 -52 -5 -53 -21 -40 -13 10 -15 9 -15 -9 0 -18 -4 -21
-21 -16 -20 7 -21 4 -15 -20 5 -19 3 -31 -6 -36 -10 -7 -10 -9 -1 -9 7 0 20
-14 29 -31 16 -31 15 -32 -13 -55 -15 -13 -32 -23 -36 -24 -5 0 -6 -4 -2 -9 3
-5 1 -12 -5 -16 -5 -3 -10 -3 -11 2 0 4 -2 16 -4 25 -2 10 6 18 20 22 19 5 23
11 19 29 -11 45 -5 130 11 147 8 9 15 22 15 28 0 7 4 12 9 12 5 0 12 7 15 16
5 13 2 15 -14 11 -30 -8 -35 16 -13 61 14 28 16 44 9 64 -7 20 -6 31 4 43 13
16 15 16 24 -4 5 -12 15 -21 21 -21z m-935 -220 c-11 -7 -11 -12 -2 -22 9 -11
8 -19 -4 -36 -33 -48 -41 -17 -20 83 3 11 5 34 6 50 1 27 3 25 17 -18 14 -41
14 -50 3 -57z m627 -2 c-3 -8 -6 -5 -6 6 -1 11 2 17 5 13 3 -3 4 -12 1 -19z
m-2 -48 c3 -5 1 -10 -4 -10 -6 0 -11 5 -11 10 0 6 2 10 4 10 3 0 8 -4 11 -10z
m300 -341 c11 -17 2 -18 -19 -3 -17 12 -17 14 -4 14 9 0 20 -5 23 -11z m-6
-288 c7 -5 15 -31 17 -57 l4 -49 -21 33 c-21 33 -34 82 -21 82 4 0 13 -4 21
-9z m-474 -84 c0 -36 -5 -58 -17 -71 -18 -20 -18 -20 -33 0 -8 10 -12 25 -10
32 3 8 -5 22 -17 32 -18 14 -21 23 -13 35 6 9 15 17 20 17 6 0 16 10 24 20 22
33 46 0 46 -65z m503 -236 c3 -45 1 -53 -11 -48 -9 3 -18 -1 -21 -9 -9 -23
-23 -16 -30 14 -4 15 -9 35 -12 44 -6 21 31 60 54 56 13 -2 18 -16 20 -57z
m-8 -81 c0 -5 -5 -10 -11 -10 -5 0 -7 5 -4 10 3 6 8 10 11 10 2 0 4 -4 4 -10z"/>
<path d="M5278 4573 c-10 -2 -18 -12 -18 -21 0 -14 -2 -14 -9 -3 -6 9 -33 16
-71 18 -43 3 -60 1 -55 -6 3 -6 17 -11 30 -11 21 0 38 -13 41 -30 0 -3 9 -20
20 -38 16 -27 23 -32 44 -27 31 8 39 21 32 49 -5 18 -3 19 11 8 9 -8 16 -17
15 -20 -2 -23 3 -42 11 -37 5 3 12 -4 16 -15 8 -25 27 -27 24 -2 -2 9 5 32 15
51 21 40 9 62 -18 32 -17 -19 -20 -19 -42 -4 -18 11 -22 21 -18 39 6 24 4 26
-28 17z m72 -93 c0 -5 -4 -10 -10 -10 -5 0 -10 5 -10 10 0 6 5 10 10 10 6 0
10 -4 10 -10z"/>
<path d="M3145 4383 c-84 -18 -175 -81 -175 -122 0 -25 -17 -28 -22 -3 -5 21
-47 -59 -54 -103 -6 -37 -11 -60 -22 -105 -8 -38 -8 -53 2 -115 4 -22 9 -58
11 -80 7 -58 28 -139 38 -146 11 -8 45 -141 40 -156 -3 -7 -10 -13 -17 -13
-11 0 -46 -34 -46 -46 0 -2 -12 -17 -26 -32 -14 -15 -37 -50 -50 -78 -14 -28
-33 -60 -42 -71 -9 -10 -19 -25 -20 -33 -30 -124 -33 -159 -23 -246 5 -51 14
-100 20 -111 5 -10 20 -40 32 -67 27 -60 87 -118 154 -150 62 -30 98 -37 200
-39 79 -1 81 0 156 46 79 49 134 64 147 42 15 -27 140 -82 179 -80 123 8 123
8 181 55 32 26 58 55 60 68 2 12 7 22 12 22 23 0 31 209 9 236 -15 18 -132 19
-147 1 -6 -7 -13 -38 -15 -70 -5 -66 -26 -97 -67 -97 -32 0 -80 35 -80 58 0
12 -3 13 -12 4 -17 -17 -27 -15 -23 6 2 9 4 23 4 30 1 6 7 12 14 12 7 0 19 15
27 33 7 17 15 35 18 40 2 4 -4 4 -13 0 -15 -5 -16 -3 -6 15 6 11 11 32 11 46
0 16 6 26 15 26 9 0 12 -6 8 -17 -4 -11 -3 -14 5 -9 7 4 12 14 12 21 0 8 9 32
20 53 12 23 22 65 24 105 2 36 7 71 12 78 4 7 9 41 11 75 l3 63 -33 7 c-39 9
-105 9 -114 0 -3 -3 -14 -6 -24 -6 -23 0 -28 -9 -35 -62 -3 -24 -7 -49 -10
-57 -3 -11 -1 -11 9 -3 25 21 27 0 3 -23 -16 -15 -27 -42 -36 -89 -14 -73 -36
-111 -60 -101 -16 6 -53 81 -64 127 -3 15 -13 33 -21 42 -8 8 -15 19 -15 25 0
6 -4 11 -8 11 -10 0 -42 98 -42 130 0 13 17 39 40 62 22 22 40 44 40 49 0 4 8
14 18 21 38 28 62 76 57 112 -2 20 1 38 7 42 6 4 8 3 4 -4 -3 -6 -1 -14 5 -17
5 -4 8 -13 5 -21 -3 -8 -1 -14 4 -14 6 0 10 5 10 11 0 7 7 17 15 23 21 16 65
148 69 209 3 45 -3 99 -18 183 -7 36 -42 89 -90 136 -34 33 -37 34 -53 8 -11
-16 -10 -18 4 -13 11 4 14 3 9 -5 -4 -7 -13 -12 -20 -12 -8 0 -16 -11 -18 -25
-3 -13 -2 -22 2 -20 11 7 19 -31 9 -46 -11 -19 -52 19 -46 42 5 20 -12 30 -43
24 -15 -3 -20 0 -18 12 4 20 37 26 58 10 12 -9 13 -9 3 3 -10 11 -9 18 5 34 9
11 11 16 5 12 -9 -5 -11 -2 -7 8 3 8 13 13 22 10 9 -2 4 2 -12 9 -16 8 -45 14
-65 13 -34 -1 -36 -3 -35 -33 0 -18 -4 -33 -8 -33 -4 0 -8 5 -8 11 0 6 -9 8
-20 4 -14 -5 -20 -2 -20 9 0 9 4 16 9 16 5 0 11 6 14 13 5 13 -13 17 -48 10z
m120 -152 c3 -5 1 -12 -5 -16 -5 -3 -10 1 -10 9 0 18 6 21 15 7z m10 -68 c22
-24 25 -37 25 -95 0 -39 5 -68 11 -70 7 -2 6 -13 -4 -33 -8 -17 -29 -61 -47
-99 -32 -65 -84 -117 -101 -98 -4 4 -17 39 -30 77 -30 92 -37 256 -12 295 25
39 44 49 90 50 33 0 48 -6 68 -27z m-319 -198 c-3 -8 -1 -15 3 -15 5 0 11 4
13 10 2 5 9 6 17 1 11 -7 9 -13 -9 -31 l-23 -23 -9 23 c-9 24 -5 50 8 50 3 0
4 -7 0 -15z m434 -65 c0 -5 -2 -10 -4 -10 -3 0 -8 5 -11 10 -3 6 -1 10 4 10 6
0 11 -4 11 -10z m-41 -39 c-15 -5 -22 6 -14 19 6 9 10 9 16 -1 5 -8 4 -15 -2
-18z m-279 -391 c-18 -12 -44 -9 -42 5 1 6 6 10 11 10 5 0 13 3 17 8 4 4 12 3
18 -3 8 -8 6 -14 -4 -20z m548 -29 c11 -7 11 -9 -1 -14 -16 -6 -27 0 -27 15 0
10 11 10 28 -1z m-554 -26 c9 -25 -9 -24 -20 0 -9 18 -9 22 2 18 7 -2 15 -11
18 -18z m546 -29 c0 -3 -4 -8 -10 -11 -5 -3 -10 -1 -10 4 0 6 5 11 10 11 6 0
10 -2 10 -4z m-462 -70 c-7 -8 -15 -12 -17 -11 -5 6 10 25 20 25 5 0 4 -6 -3
-14z m-73 -18 c14 -6 25 -17 25 -24 0 -7 16 -43 35 -80 20 -38 37 -75 38 -84
1 -8 14 -31 28 -50 70 -97 64 -140 -22 -153 -8 -2 -19 -6 -25 -10 -7 -4 -25 0
-40 8 -16 8 -35 15 -43 15 -14 0 -46 37 -70 80 -32 57 -17 221 25 288 17 26
16 25 49 10z m202 -45 c-8 -7 -37 9 -31 19 3 5 12 4 20 -3 8 -6 13 -14 11 -16z
m38 -53 c3 -5 1 -10 -4 -10 -6 0 -11 5 -11 10 0 6 2 10 4 10 3 0 8 -4 11 -10z
m211 -35 c2 -15 -33 -32 -43 -21 -4 3 2 15 12 26 19 21 27 20 31 -5z m-127
-47 c1 7 6 10 11 7 10 -6 -22 -57 -34 -56 -3 1 -5 2 -4 4 1 1 -4 12 -10 24
-10 18 -9 24 5 32 14 7 20 6 25 -7 4 -10 7 -12 7 -4z m-365 -200 c-4 -7 -18
-29 -33 -48 -14 -19 -18 -29 -9 -22 14 11 16 9 14 -13 -1 -27 -17 -38 -41 -29
-9 4 -13 18 -12 42 2 31 6 37 24 37 21 1 58 25 38 25 -6 0 -3 5 5 10 20 13 23
12 14 -2z m458 -63 c-5 -30 -10 -31 -28 -7 -18 23 -17 30 4 35 25 5 30 0 24
-28z m38 -9 c0 -13 3 -33 7 -43 6 -17 6 -17 -10 -1 -18 18 -23 68 -7 68 6 0
10 -11 10 -24z m-630 4 c0 -5 -5 -10 -11 -10 -5 0 -7 5 -4 10 3 6 8 10 11 10
2 0 4 -4 4 -10z m786 -77 c-10 -10 -19 5 -10 18 6 11 8 11 12 0 2 -7 1 -15 -2
-18z"/>
<path d="M1789 2032 l-66 -3 1 -212 1 -212 33 -1 c36 0 35 -2 36 81 l1 60 50
3 c64 4 79 -8 108 -83 21 -55 25 -59 56 -60 18 0 34 2 36 6 6 8 -30 105 -51
136 -13 21 -14 27 -3 34 8 5 17 9 20 9 9 0 30 53 34 86 5 42 -14 96 -43 121
-33 30 -97 40 -213 35z m128 -71 c33 -1 53 -28 53 -70 0 -55 -21 -69 -105 -67
l-70 1 0 65 c0 72 4 76 62 73 21 -1 48 -2 60 -2z"/>
<path d="M2299 2032 l-36 -3 0 -210 c0 -115 3 -209 6 -210 30 -5 263 -4 271 1
7 4 10 20 8 36 l-3 29 -95 0 c-102 0 -120 5 -115 33 2 9 4 29 4 43 1 26 1 26
84 25 l82 -1 3 36 3 35 -81 -1 c-87 -1 -98 5 -94 53 1 12 2 32 3 45 1 21 3 22
106 20 l105 -2 0 34 0 34 -107 3 c-60 2 -124 2 -144 0z"/>
<path d="M3550 2030 c-126 -34 -186 -158 -141 -295 27 -82 89 -127 177 -131
89 -3 155 31 191 100 41 79 31 203 -21 263 -44 51 -141 81 -206 63z m118 -82
c36 -17 62 -72 62 -128 -1 -97 -62 -156 -149 -145 -77 9 -110 57 -108 152 2
45 8 69 23 89 35 47 110 61 172 32z"/>
<path d="M4663 2032 l-73 -3 0 -212 0 -212 140 0 c77 0 141 2 141 5 8 33 6 60
-4 61 -7 1 -55 2 -107 3 l-95 1 0 50 0 50 84 0 c76 0 84 2 87 20 7 46 -1 51
-88 51 l-83 -1 -2 58 c-2 53 -1 57 20 58 12 0 60 1 106 2 l84 2 3 32 2 31 -71
4 c-40 2 -105 2 -144 0z"/>
<path d="M2774 1820 c0 -218 1 -223 42 -215 11 2 22 4 25 4 4 1 6 53 5 116 0
63 1 115 4 115 3 -1 26 -34 51 -74 40 -63 51 -73 74 -72 20 1 34 13 56 46 16
25 32 50 37 55 4 6 12 19 17 30 7 14 11 -14 15 -100 l5 -119 33 -2 c17 -1 33
3 33 10 1 6 2 102 3 214 l1 202 -25 0 c-18 0 -32 -11 -47 -35 -13 -19 -23 -37
-23 -40 0 -3 -5 -11 -11 -18 -6 -7 -29 -43 -53 -80 l-42 -68 -50 78 c-27 43
-54 87 -60 98 -28 53 -40 65 -65 65 l-25 0 0 -210z"/>
<path d="M4024 1823 c0 -114 4 -211 8 -214 5 -3 51 -5 102 -3 78 1 101 6 136
25 107 60 133 246 47 337 -43 46 -85 59 -192 61 l-101 2 0 -208z m235 106 c38
-35 47 -121 19 -191 -14 -36 -73 -64 -133 -63 l-48 1 -1 141 -1 142 35 3 c48
4 104 -10 129 -33z"/>
<path d="M5098 1908 c-2 -68 -1 -163 2 -213 l5 -90 120 1 c66 1 126 2 133 3 9
1 12 12 10 33 l-3 33 -95 0 -95 0 -2 135 c-1 74 -2 154 -2 178 -1 41 -2 42
-35 42 l-35 0 -3 -122z"/>
<path d="M2946 1068 c-4 -24 -9 -54 -11 -68 -2 -14 -8 -50 -14 -80 -7 -30 -14
-68 -17 -85 -3 -16 -9 -48 -14 -70 -17 -71 -17 -71 63 -85 39 -8 79 -15 87
-17 8 -1 36 -5 63 -9 l47 -7 0 36 0 35 -72 11 c-123 20 -118 15 -102 93 7 35
15 77 18 93 3 17 11 65 19 107 15 84 13 88 -38 88 -19 0 -23 -7 -29 -42z"/>
<path d="M3970 1081 c-54 -24 -85 -53 -108 -97 -38 -75 -11 -212 52 -267 64
-56 159 -67 239 -28 55 27 66 44 44 66 -20 19 -26 19 -68 -2 -40 -20 -109 -22
-142 -4 -27 14 -56 60 -63 96 -2 14 -6 36 -8 49 -7 37 30 102 67 117 17 7 57
14 89 14 47 1 61 5 73 22 13 18 13 22 0 33 -22 19 -134 19 -175 1z"/>
<path d="M3399 1018 c-2 -18 -4 -114 -4 -213 l0 -180 50 -2 c215 -8 228 -6
220 36 -2 9 -4 19 -4 24 -1 4 -44 7 -96 7 -69 0 -95 3 -96 13 0 6 0 87 1 180
l1 167 -34 0 c-32 0 -35 -3 -38 -32z"/>
</g>
</svg>
